<svg id="Слой_1" data-name="Слой 1" xmlns="http://www.w3.org/2000/svg" viewBox="0 0 546.58 347.19"><defs><style>.cls-1{fill:#e2e7ea;}.cls-2{fill:#7fb069;}.cls-3{fill:#1f602b;}.cls-4{fill:#eacea0;}.cls-5{fill:#d1b990;}.cls-6{fill:#d98424;}.cls-7{fill:#948264;}.cls-8{fill:#f7f2ed;}.cls-9{font-size:16.01px;}.cls-46,.cls-53,.cls-9{fill:#43284c;}.cls-12,.cls-53,.cls-9{font-family:Montserrat-Medium, Montserrat;font-weight:500;}.cls-10{letter-spacing:-0.01em;}.cls-11{letter-spacing:-0.01em;}.cls-12{font-size:10.36px;}.cls-12,.cls-24{fill:#422748;}.cls-13{letter-spacing:-0.03em;}.cls-14{letter-spacing:-0.01em;}.cls-15{letter-spacing:-0.01em;}.cls-16{letter-spacing:0em;}.cls-17{fill:#e5ddd8;}.cls-18,.cls-20,.cls-27,.cls-31,.cls-32,.cls-35,.cls-38,.cls-39,.cls-40,.cls-42,.cls-44,.cls-49,.cls-50{fill:none;}.cls-18{stroke:#fff;}.cls-18,.cls-20,.cls-49{stroke-miterlimit:10;}.cls-19{fill:#5e818f;}.cls-20,.cls-27{stroke:#446177;}.cls-21{fill:#557d87;}.cls-22{fill:#f8bea9;}.cls-23{fill:#f09c9d;}.cls-25{fill:#644466;}.cls-26{fill:#908791;}.cls-27,.cls-31,.cls-32,.cls-35,.cls-38,.cls-39,.cls-40,.cls-42,.cls-44,.cls-50{stroke-linecap:round;stroke-linejoin:round;}.cls-28{fill:#77a9aa;}.cls-29{fill:#2e2526;}.cls-30{fill:#434851;}.cls-31{stroke:#402a4d;}.cls-32,.cls-50{stroke:#bf5666;}.cls-33{fill:#d74c58;}.cls-34{fill:#ce454f;}.cls-35{stroke:#ae2e38;}.cls-35,.cls-38,.cls-39,.cls-50{stroke-width:0.75px;}.cls-36{fill:#f5a479;}.cls-37{fill:#ef9072;}.cls-38{stroke:#cd5a52;}.cls-39{stroke:#f09c9d;}.cls-40{stroke:#e5ddd8;}.cls-41{fill:#402a4d;}.cls-42{stroke:#010101;}.cls-43{fill:#89798e;}.cls-44{stroke:#89798e;stroke-width:3px;}.cls-45{fill:#573a60;}.cls-47{fill:#52767f;}.cls-48{fill:#afd398;}.cls-49{stroke:#1f602b;}.cls-51{fill:#5c8088;}.cls-52{fill:#ebd3ad;}.cls-53{font-size:17.87px;}.cls-54{letter-spacing:-0.03em;}</style></defs><ellipse class="cls-1" cx="267.27" cy="318.69" rx="267.27" ry="28.5"/><path class="cls-2" d="M556.66,279.83c-9.18-7.55-20.59-13.18-32.78-11.94-10.6,1.08-20.39,7.92-23.17,18.51a.47.47,0,0,0,.2.73c9.69,3.48,20,7.08,30.41,5,9.28-1.86,15.73-10.1,25-11.55C556.69,280.52,557,280.1,556.66,279.83Z" transform="translate(-10.22 -99.64)"/><path class="cls-2" d="M523.48,321c-10.51-4.34-19.19-12.8-30.53-15.17-8-1.67-17.55.78-21.26,8.73a.37.37,0,0,0,0,.29.37.37,0,0,0-.13.33c.57,9.6,11.11,14.24,19.44,15,11.49,1,22.3-3.75,32.51-8.4A.44.44,0,0,0,523.48,321Z" transform="translate(-10.22 -99.64)"/><path class="cls-3" d="M551.12,278.54A43.53,43.53,0,0,0,533,277.3h-.09l-.22,0-.25,0s0,0-.08,0c-2.31.41-4.61.88-6.9,1.39a40.28,40.28,0,0,0,5.83-8.06.44.44,0,0,0-.76-.43,39.25,39.25,0,0,1-6.46,8.74.24.24,0,0,0-.06.08q-7.37,1.71-14.54,4.07a50.29,50.29,0,0,0,3.91-9.15c.17-.53-.67-.73-.84-.21a49.9,49.9,0,0,1-4.2,9.66.26.26,0,0,0,0,.08,171.92,171.92,0,0,0-59.5,34.49,167.83,167.83,0,0,0-18.63,19.54c-.35.43.27,1,.62.6a166.54,166.54,0,0,1,22.49-22.8.34.34,0,0,0,.37.18,107.91,107.91,0,0,1,26,.46.34.34,0,0,0,.49.07c.84.12,1.67.26,2.5.4a.36.36,0,0,0,0,.09,42.84,42.84,0,0,1,5.06,9.31c.2.51,1,.27.83-.25a44.48,44.48,0,0,0-4.78-8.95,106.8,106.8,0,0,1,14.15,3.53.26.26,0,0,0,.1.11,26.68,26.68,0,0,1,5.89,6.29c.31.46,1.05,0,.74-.45a27.68,27.68,0,0,0-5.14-5.71,74.21,74.21,0,0,0,18.59,1.22.43.43,0,0,0,0-.86,74.51,74.51,0,0,1-13.36-.4l7.58-3.73c.5-.24.05-1-.45-.74l-8.62,4.24,0,0q-2.77-.4-5.54-1h-.06a107.29,107.29,0,0,0-16.52-3.86,95.89,95.89,0,0,0,8.06-7c.39-.39-.23-1-.62-.6a92.74,92.74,0,0,1-8.62,7.46,108.51,108.51,0,0,0-25.79-.54,170.89,170.89,0,0,1,53.17-29.91c1-.34,2-.65,3-1a.38.38,0,0,0,.16.06,36,36,0,0,1,13.3,5.43c.46.31.88-.44.42-.75a36.33,36.33,0,0,0-12.31-5.26,170.14,170.14,0,0,1,17.78-4.51.44.44,0,0,0,.21.13,43.34,43.34,0,0,1,11.41,4.44.43.43,0,0,0,.42-.75,43.87,43.87,0,0,0-10.17-4.16l1.25-.23a42.66,42.66,0,0,1,18.15,1.18C551.45,279.53,551.65,278.69,551.12,278.54Z" transform="translate(-10.22 -99.64)"/><path class="cls-2" d="M441.12,256.49c-5.5-10.31-15.77-16.6-26.07-21.34a.43.43,0,0,0-.52.67c7.4,9.06,5.48,21.47,7.79,32.19,1.72,8.07,7,16.59,16,17.32a.43.43,0,0,0,.48.05c1-.47,1.39-1.6,1.85-2.51C445.12,274.05,445.26,264.24,441.12,256.49Z" transform="translate(-10.22 -99.64)"/><path class="cls-2" d="M531,205.84c-16.13.11-32.87-.53-48.15,5.48-12.16,4.79-22.82,13.88-26,27a28.55,28.55,0,0,0,2.07,20,1.85,1.85,0,0,0,.71,1,5.44,5.44,0,0,0,1.92.44.41.41,0,0,0,.33-.05,46.77,46.77,0,0,0,33.74-9.17c9.62-7.35,14.91-18.4,21.35-28.33,3.86-5.95,8.29-11.56,14.27-15.5A.43.43,0,0,0,531,205.84Z" transform="translate(-10.22 -99.64)"/><path class="cls-2" d="M500.3,275.51c-11.95-1.82-24.62-3.29-36.3.68-7.9,2.67-15.06,7.79-19.07,15.11a19.31,19.31,0,0,0-1.85,3.48c-.12.28.09.47.34.5A31,31,0,0,0,474,297.59c10.42-5,15.26-17.42,26.32-21.25C500.65,276.21,500.75,275.58,500.3,275.51Z" transform="translate(-10.22 -99.64)"/><path class="cls-3" d="M509.72,229.2a50.47,50.47,0,0,0-16.45-3.82,173.11,173.11,0,0,1,14.29-10c.47-.29,0-1-.44-.74q-6.6,4.13-12.78,8.83v0a.78.78,0,0,0,.05-.14,61.76,61.76,0,0,0,.41-12.23c0-.56-.9-.56-.87,0a61,61,0,0,1-.41,12.23.24.24,0,0,0,0,.08l0,0c0,.26-.06.51-.1.76a179,179,0,0,0-21.35,19.38,71.15,71.15,0,0,0-2.21-18.95.43.43,0,0,0-.83.23,70.27,70.27,0,0,1,2.17,19.43.48.48,0,0,0,0,.18,182.69,182.69,0,0,0-14.72,18.09A186.82,186.82,0,0,0,439,292.78a76.74,76.74,0,0,0-.35-13.73.38.38,0,0,0,0-.21,77.09,77.09,0,0,0-1.72-9.39.37.37,0,0,0,.25-.18,46.37,46.37,0,0,0,4.31-8.34c.2-.52-.63-.74-.84-.23a44.86,44.86,0,0,1-4,7.74c-.36-1.4-.78-2.78-1.23-4.16a58.57,58.57,0,0,0-5.22-10,.42.42,0,0,0,.11-.17,28.5,28.5,0,0,0,1.25-7.88.44.44,0,0,0-.87,0,27.52,27.52,0,0,1-1.08,7.16,63.42,63.42,0,0,0-9.41-11c-.41-.37-1,.24-.61.61a64.23,64.23,0,0,1,11.69,14.51,32.88,32.88,0,0,0-9.2-1.3.43.43,0,0,0,0,.86,32.56,32.56,0,0,1,9.75,1.48h.05c.7,1.23,1.38,2.48,2,3.77h0A76.19,76.19,0,0,1,437.65,278a36.31,36.31,0,0,0-10.48-6.18c-.52-.2-.74.64-.23.84a34.82,34.82,0,0,1,10.86,6.61,75.87,75.87,0,0,1,.25,14.77.36.36,0,0,0,.23.38,183.31,183.31,0,0,0-11,32.14,174.21,174.21,0,0,0-4.86,39.12.44.44,0,0,0,.87,0,177.51,177.51,0,0,1,14.64-68.34,185.32,185.32,0,0,1,31.78-49.9.4.4,0,0,0,.38.24A58,58,0,0,1,490.14,251c.52.18.75-.65.23-.84a58.88,58.88,0,0,0-20.11-3.43c2.07-2.3,4.2-4.56,6.39-6.75a175.15,175.15,0,0,1,15.67-13.91.38.38,0,0,0,.23.08A50.15,50.15,0,0,1,509.49,230C510,230.24,510.23,229.41,509.72,229.2Z" transform="translate(-10.22 -99.64)"/><path class="cls-3" d="M491.31,276.1A203.62,203.62,0,0,0,468,281.54c.5-1.5,1-3,1.49-4.5.18-.52-.65-.75-.83-.22L467,281.87a87.15,87.15,0,0,0-12.52,5.06,19.87,19.87,0,0,0,1.29-4.94c.07-.55-.8-.54-.87,0a18.38,18.38,0,0,1-1.62,5.57c-1.33.7-2.65,1.44-3.93,2.24a.47.47,0,0,0-.28.18,52.06,52.06,0,0,0-13.78,12.44c-.33.44.42.87.75.44a50.86,50.86,0,0,1,13.43-12.15,80.28,80.28,0,0,1,13.57,8c.45.32.88-.42.43-.75a81.78,81.78,0,0,0-13.13-7.76c1.1-.67,2.24-1.3,3.39-1.9a.36.36,0,0,0,.18-.1,93.81,93.81,0,0,1,19.53-7.3.39.39,0,0,0,.3.34,25.72,25.72,0,0,1,9.61,4.76c.43.34,1.05-.26.61-.61a26.65,26.65,0,0,0-9.35-4.8c5.64-1.46,11.36-2.59,16.92-3.63C492.09,276.83,491.86,276,491.31,276.1Z" transform="translate(-10.22 -99.64)"/><polygon class="cls-4" points="509.62 220.85 447.21 219.78 384.63 222.25 447.97 240.97 509.62 220.85"/><polygon class="cls-5" points="510.12 310.03 474.6 313.85 467.62 314.6 437.19 317.88 437.19 223.76 467.62 222.53 474.6 222.26 509.63 220.85 510.12 310.03"/><polygon class="cls-6" points="474.6 222.26 474.6 313.85 467.62 314.6 467.62 222.53 474.6 222.26"/><polygon class="cls-7" points="437.19 317.88 384.63 313.41 384.63 222.25 437.19 223.76 437.19 317.88"/><polygon class="cls-8" points="504.39 266.73 443.84 273.74 443.71 252.83 504.39 248.14 504.39 266.73"/><text class="cls-9" transform="matrix(0.67, -0.06, 0, 1, 447.86, 268.54)">C<tspan class="cls-10" x="11.57" y="0">L</tspan><tspan class="cls-11" x="20.87" y="0">O</tspan><tspan x="34.16" y="0">THES</tspan></text><path class="cls-2" d="M84.85,229.22a.45.45,0,0,0,.17-.3c1.58-13.74-10.32-24.39-23-26.23-15.4-2.22-29.54,5.63-41.91,13.83a.44.44,0,0,0,.22.81c13.17.08,22.67,10.47,34.08,15.44A31.49,31.49,0,0,0,84.88,230,.46.46,0,0,0,84.85,229.22Z" transform="translate(-10.22 -99.64)"/><path class="cls-2" d="M90.35,241.13a.42.42,0,0,0-.21-.24.37.37,0,0,0,.25-.6c-4.44-6-12.66-6-19-3.49-8.73,3.5-15.86,11.11-25.7,11.49a.44.44,0,0,0-.22.81c8.55,6.23,19.63,10,30.29,8.92,4.6-.46,9.34-2.11,12.33-5.82A11.63,11.63,0,0,0,90.35,241.13Z" transform="translate(-10.22 -99.64)"/><path class="cls-3" d="M132.44,275.17a131.94,131.94,0,0,0-52-48.59,58.8,58.8,0,0,0,0-10.94c0-.55-.91-.55-.86,0a58.45,58.45,0,0,1,0,10.5q-4.59-2.34-9.37-4.33l-1.51-.61a.48.48,0,0,0,0-.27,37,37,0,0,0-8.93-16c-.38-.4-1,.21-.61.61a36.12,36.12,0,0,1,8.61,15.3,129.44,129.44,0,0,0-18.65-5.7.41.41,0,0,0,0-.21,27.14,27.14,0,0,0-5.68-7.44c-.41-.38-1,.23-.61.61a26.71,26.71,0,0,1,5.29,6.81l-.91-.2h-.11a43,43,0,0,0-16.83.38c-.54.12-.31.95.23.83a41.87,41.87,0,0,1,14.11-.71,38.07,38.07,0,0,0-6.41,3.69c-.45.33,0,1.07.43.75a37.81,37.81,0,0,1,7.2-4.06.34.34,0,0,0,.19-.18c.38.06.76.11,1.14.18h0a126.86,126.86,0,0,1,17,4.84A37.17,37.17,0,0,0,52.79,227c-.43.36.19,1,.61.61a36.27,36.27,0,0,1,11.87-6.71.45.45,0,0,0,.12-.06,129.48,129.48,0,0,1,15,6.72,23.06,23.06,0,0,0-12.32,6.29c-.4.39.21,1,.61.61a22.11,22.11,0,0,1,13-6.24h0A132,132,0,0,1,99,239.32a66.61,66.61,0,0,0-14,2.1,32.31,32.31,0,0,1-6.72-5c-.4-.38-1,.23-.61.61a33.47,33.47,0,0,0,6.16,4.7A67.23,67.23,0,0,0,74.65,245h-.1a.37.37,0,0,0-.27-.2,21.2,21.2,0,0,1-7.72-3.14c-.46-.31-.9.44-.44.74a21.73,21.73,0,0,0,7.34,3.1,46.29,46.29,0,0,1-11.81,3.91l-.07,0a9.73,9.73,0,0,1-3.64-1.81c-.43-.35-1,.26-.61.61a11,11,0,0,0,2.57,1.53,46.9,46.9,0,0,1-10.13.39c-.55,0-.55.83,0,.87a47.59,47.59,0,0,0,8.86-.24,13.92,13.92,0,0,0-2.32,3.69c-.22.51.52,1,.74.44a13.31,13.31,0,0,1,2.82-4.21l.05-.08a47,47,0,0,0,9.45-2.4,22.15,22.15,0,0,0-3.07,7.47c-.11.54.72.78.83.23a21.55,21.55,0,0,1,3.66-8.24c1.06-.43,2.12-.9,3.16-1.41a.53.53,0,0,0,.12,0,66.09,66.09,0,0,1,12.33-4.25,75.76,75.76,0,0,0-2.51,10.27c-.1.55.74.78.83.23A77.4,77.4,0,0,1,87.26,242a.37.37,0,0,0,0-.31,66.79,66.79,0,0,1,12.78-1.6,131.92,131.92,0,0,1,17.65,16.43,127.54,127.54,0,0,1,14,19.05A.43.43,0,0,0,132.44,275.17Z" transform="translate(-10.22 -99.64)"/><path class="cls-2" d="M143,193.16a41.75,41.75,0,0,0-18.66-24.54.44.44,0,0,0-.63.49c2.45,9.39-4.6,18.08-3.61,27.55.85,8.19,5.59,15.17,10.83,21.25a.35.35,0,0,0,.32.14.45.45,0,0,0,.53.4C143.29,216.14,145.59,202.84,143,193.16Z" transform="translate(-10.22 -99.64)"/><path class="cls-2" d="M107,163.58C96.88,153.53,83,152,69.44,151.18a.44.44,0,0,0-.31.74A44.1,44.1,0,0,1,80.8,168.68c2.48,6.41,3.31,13.36,6.2,19.62,2.33,5,6,9.27,11.29,11.24,5.54,2.07,11.67,1.67,17.4.7a.42.42,0,0,0,.66-.22A37.21,37.21,0,0,0,107,163.58Z" transform="translate(-10.22 -99.64)"/><path class="cls-2" d="M120.9,223.23c-9.41-4.09-19.26.72-28.91-1.41-.29-.06-.65.2-.53.53A32.44,32.44,0,0,0,134.19,241a.45.45,0,0,0,.72-.43A24.13,24.13,0,0,0,120.9,223.23Z" transform="translate(-10.22 -99.64)"/><path class="cls-3" d="M131,224.47a.46.46,0,0,0,.05-.14c.56-3,1-5.94,1.29-8.93h.05a37.63,37.63,0,0,0,8.89-5.32c.44-.35-.18-1-.61-.62a36.46,36.46,0,0,1-8.22,5q.47-5,.49-10a29.76,29.76,0,0,0,8.87-6.46c.38-.4-.23-1-.61-.61a29.22,29.22,0,0,1-8.25,6.1,111,111,0,0,0-.84-13.25v-.06s0-.06,0-.09a1.8,1.8,0,0,1,0-.22,54.91,54.91,0,0,0,3-8.91c.13-.54-.7-.77-.83-.23a54.5,54.5,0,0,1-2.48,7.64,75.76,75.76,0,0,0-5.31-16.73c-.22-.5-1-.06-.74.44a75.9,75.9,0,0,1,5.54,18.17c.37,3,.61,6.09.74,9.14a25.4,25.4,0,0,0-8.72-5.66c-.52-.2-.74.64-.23.84a24.36,24.36,0,0,1,9,6.09q.15,5.43-.22,10.86a50.54,50.54,0,0,0-6.55-4.29c-.49-.26-.93.48-.44.75a50.63,50.63,0,0,1,6.8,4.45.37.37,0,0,0,.12.07,107.21,107.21,0,0,1-1.38,10.83,252.88,252.88,0,0,0-17.63-29.06l0-.05a84.5,84.5,0,0,1,3.27-9.83c.21-.52-.63-.74-.83-.23a85.15,85.15,0,0,0-3.1,9.21l-.93-1.32a250.94,250.94,0,0,0-17.3-21.44.41.41,0,0,0,.12-.3q-.1-6.64-.22-13.29a.43.43,0,0,0-.86,0l.21,12.75c-.84-.93-1.69-1.85-2.54-2.76a.36.36,0,0,0,0-.09A43.35,43.35,0,0,0,72.7,153.11c-.51-.21-.73.62-.23.84a42.08,42.08,0,0,1,15.74,11.47,23.51,23.51,0,0,0-6.77-1.84c-.55-.06-.55.8,0,.86a22.25,22.25,0,0,1,7.86,2.46.08.08,0,0,0,.07,0,252.22,252.22,0,0,1,16.94,20,38.24,38.24,0,0,0-13.06,2.55c-.51.2-.29,1,.23.83A37.83,37.83,0,0,1,107,187.78a254.51,254.51,0,0,1,41.5,83.36,251.08,251.08,0,0,1,7,32.86c.07.55.91.32.83-.23A253.91,253.91,0,0,0,131,224.47Z" transform="translate(-10.22 -99.64)"/><path class="cls-3" d="M139.77,243.28c-3-2.3-6.46-3.19-10.05-3.84a.35.35,0,0,0,0-.44A19.48,19.48,0,0,1,126,228.39c0-.56-.89-.56-.86,0a20.19,20.19,0,0,0,3.79,10.9c-2.29-.39-4.59-.72-6.8-1.27l-.8-.22a.4.4,0,0,0-.42-.11,51.52,51.52,0,0,1-6.26-2.18.39.39,0,0,0,0-.18,70.28,70.28,0,0,1-3.63-10.83.43.43,0,0,0-.83.22A70.89,70.89,0,0,0,113.52,235a53.54,53.54,0,0,1-11-6.65c-.43-.34-1,.27-.61.61a56.31,56.31,0,0,0,6.12,4.16,41.34,41.34,0,0,0-5.3,1,.44.44,0,0,0,.23.84,38.26,38.26,0,0,1,5.74-1.1.42.42,0,0,0,.33-.21A52.77,52.77,0,0,0,119,238.06l.84.24a9.46,9.46,0,0,0-2.5,2.66c-.3.47.45.91.75.44a8.6,8.6,0,0,1,2.88-2.81c6.1,1.44,13.15,1.41,18.15,5.3C139.6,244.22,140.21,243.62,139.77,243.28Z" transform="translate(-10.22 -99.64)"/><polygon class="cls-6" points="29.99 222.08 92.41 221.01 154.98 223.48 91.64 242.2 29.99 222.08"/><polygon class="cls-5" points="102.42 224.99 102.42 319.12 64.2 315 57.13 314.24 29.49 311.26 29.99 222.09 57.13 223.17 64.2 223.46 102.42 224.99"/><polygon class="cls-6" points="64.2 315 64.2 223.46 57.13 223.17 57.13 314.24 64.2 315"/><polygon class="cls-7" points="154.98 223.47 154.98 311.75 135.46 314.48 127.82 315.55 102.42 319.12 102.42 224.99 127.82 224.26 135.46 224.04 154.98 223.47"/><polygon class="cls-6" points="127.82 224.26 127.82 315.55 135.46 314.48 135.46 224.04 127.82 224.26"/><polygon class="cls-8" points="35.23 289.99 95.77 297 95.91 276.09 35.23 271.39 35.23 289.99"/><text class="cls-12" transform="matrix(0.93, 0.08, 0, 1, 38.39, 285.51)">DON<tspan class="cls-13" x="25.67" y="0">A</tspan><tspan x="32.88" y="0">TION</tspan></text><polygon class="cls-5" points="99.95 154.96 99.95 224 70.41 222.92 65.57 222.75 47.37 222.09 46.95 156.59 65.57 156.02 70.41 155.87 99.95 154.96"/><polygon class="cls-6" points="70.41 155.87 70.41 222.92 65.57 222.75 65.57 156.02 70.41 155.87"/><polygon class="cls-7" points="140.14 156.4 140.14 222.09 127.82 222.67 120.05 223.04 99.95 224 99.95 154.96 120.05 155.69 127.82 155.96 140.14 156.4"/><polygon class="cls-6" points="127.82 222.67 127.82 155.96 120.05 155.69 120.05 223.04 127.82 222.67"/><polygon class="cls-8" points="50.66 206.42 95.08 207.78 95.18 187.83 50.66 189 50.66 206.42"/><text class="cls-12" transform="matrix(0.82, 0.01, 0, 1, 51.7, 200.93)">C<tspan class="cls-14" x="7.49" y="0">L</tspan><tspan class="cls-15" x="13.51" y="0">O</tspan><tspan class="cls-16" x="22.1" y="0">THES</tspan></text><path class="cls-17" d="M193.51,183.91v-3.36a10.65,10.65,0,0,1,7.62,5.78c3.15,6,4.68,38.95,6.79,40.4s21.07,5,21.07,5l2.79,11.36s-33.76,5.48-38.56-.6S193.51,183.91,193.51,183.91Z" transform="translate(-10.22 -99.64)"/><path class="cls-8" d="M162.45,174.69s-14,2.19-16.26,7.12,6.24,50.73,6.24,50.73l44.63.53s-.82-47.76-2.24-51.29c-.9-2.25-9.49-3.57-9.49-3.57Z" transform="translate(-10.22 -99.64)"/><path class="cls-18" d="M170,147.84" transform="translate(-10.22 -99.64)"/><path class="cls-19" d="M148.48,216.1s8.37-9.47,10-17h35s3.92,7.39,4.27,11.92c.38,4.91,1.18,22,1.18,22h-49.2Z" transform="translate(-10.22 -99.64)"/><path class="cls-19" d="M164.55,199.14a109.12,109.12,0,0,0-6.41-23.56,15.25,15.25,0,0,0-5,1.52,136.7,136.7,0,0,1,5.36,22Z" transform="translate(-10.22 -99.64)"/><path class="cls-19" d="M187.63,199.14c.48.08-.11-11.69-2.3-21a19.55,19.55,0,0,1,5.94,1.35c1.79,5.31,1.92,12.26,2.24,19.69Z" transform="translate(-10.22 -99.64)"/><path class="cls-20" d="M166.84,207.89h21.87s1.11,11.26,0,13.23-8.15,5.46-9.06,5.61-11.83-3.95-12.28-5.48S166.84,207.89,166.84,207.89Z" transform="translate(-10.22 -99.64)"/><line class="cls-20" x1="156.67" y1="111.94" x2="178.79" y2="111.94"/><path class="cls-21" d="M209.82,391.51s-7.14,10.37-26.52,6.84l11.25-12.73Z" transform="translate(-10.22 -99.64)"/><polygon class="cls-22" points="194.08 305.76 179.98 307.49 179.45 301.92 177.43 280.67 177.09 277.1 191.59 274.32 192.41 274.15 193.54 295.51 194.08 305.76"/><path class="cls-23" d="M203.76,395.15a15.73,15.73,0,0,0-14.09,6.41l-2-21.25L201.81,374l.83-.17Z" transform="translate(-10.22 -99.64)"/><path class="cls-24" d="M223.83,410.17s0,.05,0,.14c-.56,5.2-32.33,12.42-34.78,10.51-.91-.72-1-2.79-.73-5.11a56.32,56.32,0,0,1,1.89-8.58,49.61,49.61,0,0,1,14-3.53c3.14-.35,16.06-2.15,19,4.32h0A7,7,0,0,1,223.83,410.17Z" transform="translate(-10.22 -99.64)"/><path class="cls-25" d="M223.83,410.17s0,.05,0,.14c-.56,5.2-32.33,12.42-34.78,10.51-.91-.72-1-2.79-.73-5.11,2.68-1.84,7.83-2.26,9.3-2.46,2.38-.33,14-6.89,20.28-7a7.8,7.8,0,0,1,5.35,1.65h0A7,7,0,0,1,223.83,410.17Z" transform="translate(-10.22 -99.64)"/><path class="cls-26" d="M223.83,410.17s0,.05,0,.14c-.56,5.2-32.33,12.42-34.78,10.51-1.39-5.24,4.84-4.32,9.73-6.13,2.49-.93,13.65-5.45,16.78-6.45C221,406.51,223.83,410.17,223.83,410.17Z" transform="translate(-10.22 -99.64)"/><path class="cls-24" d="M129.08,413.29a3.43,3.43,0,0,1-1.48,1.84c-6.07,3.4-22.61-27.62-20.91-30.53a4.13,4.13,0,0,1,1.31-1.32c2.44-1.63,7.46-1.7,7.46-1.7l9.44,4.28S131.87,406.41,129.08,413.29Z" transform="translate(-10.22 -99.64)"/><path class="cls-25" d="M129.08,413.29a3.43,3.43,0,0,1-1.48,1.84c-6.07,3.4-22.61-27.62-20.91-30.53a4.13,4.13,0,0,1,1.31-1.32c1.08,4.2,4.56,11.74,8.91,18.38C122.25,409.81,125,413.45,129.08,413.29Z" transform="translate(-10.22 -99.64)"/><path class="cls-22" d="M125.82,391.31a15.35,15.35,0,0,1-10.36-9.73l3.94-4,15-15.16,2.53-2.54,11.42,9.35.65.53-15.68,14.54Z" transform="translate(-10.22 -99.64)"/><path class="cls-23" d="M133.35,384.33c-3.29.65-9.2-2-13.95-6.72l15-15.16,13.95,6.81.65.53Z" transform="translate(-10.22 -99.64)"/><path class="cls-19" d="M149.76,233.07s-1.89,82.74-6.26,100.62c-2.43,10-19.52,33-19.52,33,3.88,8.46,10.48,14.16,20.29,16.61,0,0,20-24.93,23.86-43.26,2.61-12.32,9-51.72,9-51.72l6.52,102.26,24.26-3.23-9-154.29Z" transform="translate(-10.22 -99.64)"/><path class="cls-27" d="M152,251.68s-1.24,71.8-6.15,85.35C141.52,349,127,367.48,127,367.48" transform="translate(-10.22 -99.64)"/><path class="cls-27" d="M156.66,252.3s1.8,13.59-4.75,12.8" transform="translate(-10.22 -99.64)"/><line class="cls-27" x1="169.93" y1="175.32" x2="169.39" y2="152.99"/><path class="cls-27" d="M184.71,252.63s2.3,12.3-4.78,13.07" transform="translate(-10.22 -99.64)"/><path class="cls-28" d="M182.29,384.93c9.49-5.12,18.27-7,26.4-6l1.13,12.6c-6.67-2-18.36,1.3-26.52,6.84Z" transform="translate(-10.22 -99.64)"/><path class="cls-28" d="M150.36,378.52c-10.17-1.63-17.44-8.31-22.86-18.19l-7,7.43c4.56,10,12.69,17,23.13,22.07Z" transform="translate(-10.22 -99.64)"/><path class="cls-27" d="M150.36,251.29s24.51,3.36,49-.56" transform="translate(-10.22 -99.64)"/><path class="cls-29" d="M154.86,126.81s-5.22,13.94-1.34,27c3.3,11.13,11.09,22,29.71,20.4,13.46-1.12,18.54-23,15.15-34.75Z" transform="translate(-10.22 -99.64)"/><path class="cls-22" d="M183.7,178s.45,12.28-7.46,12.28c-8.24,0-14.48-15.37-14.48-15.37,3.64-.66,5-5.6,5.37-10.24.12-1.34.17-2.65.17-3.82,0-2.67-.18-4.63-.18-4.63l14.64,9c0,.14-.06.28-.08.41a34.89,34.89,0,0,0-.77,6.17C180.72,178.1,183.7,178,183.7,178Z" transform="translate(-10.22 -99.64)"/><path class="cls-23" d="M181.76,165.15c0,.14-.06.28-.08.41a36.89,36.89,0,0,0-.77,6.17c-4.63,1.05-10.88-2.75-13.78-7.1.12-1.34.17-2.65.17-3.82,0-2.67-.18-4.63-.18-4.63Z" transform="translate(-10.22 -99.64)"/><path class="cls-29" d="M197.51,203.17a14.51,14.51,0,0,1-10.81,10,9.48,9.48,0,0,0,.55-11.81c-4.54-6.58-8.27-9.12-6.21-27l2.19-.12a11.63,11.63,0,0,1,1.87.18,14.41,14.41,0,0,1,12,11.18C199.12,193.48,198.84,199.13,197.51,203.17Z" transform="translate(-10.22 -99.64)"/><path class="cls-29" d="M197.51,203.17c-.46-22.39-12.41-28.77-12.41-28.77a14.41,14.41,0,0,1,12,11.18C199.12,193.48,198.84,199.13,197.51,203.17Z" transform="translate(-10.22 -99.64)"/><path class="cls-23" d="M189.37,151.93c.41,2.81,3.62,4.68,7.16,4.15s6.07-3.23,5.65-6.05-3.62-4.68-7.16-4.16S189,149.11,189.37,151.93Z" transform="translate(-10.22 -99.64)"/><path class="cls-22" d="M157.13,142.92c.73,12.83,11,24,22.55,24.8s16.78-9.34,17.62-22.15a57.57,57.57,0,0,0-.25-12.4c-.19-1.26-.83-16.85-19.75-16C165.7,117.7,156,123.18,157.13,142.92Z" transform="translate(-10.22 -99.64)"/><path class="cls-23" d="M163.81,146.63,166,143s15.57-6.34,18.4-14.58c0,0,10.26,7.9,12.65,12.32l-.25-1.43s-6.29-17-11.72-17.72-21.18,13.24-22,17.48A12.71,12.71,0,0,0,163.81,146.63Z" transform="translate(-10.22 -99.64)"/><path class="cls-29" d="M196.79,149.79a30.57,30.57,0,0,0,0-10.47A77.56,77.56,0,0,0,184,124.49c-.49-.44-1.92,10.25-19.08,18L163,149.5l-8.33-2.41s-6-17.43,5.23-27.58a22.59,22.59,0,0,1,3.05-2.36,20.93,20.93,0,0,1,19.6-1.67s8.46-3.13,16.31,8.07a18.15,18.15,0,0,1,3.56,10.4C202.51,141.4,197.74,147.3,196.79,149.79Z" transform="translate(-10.22 -99.64)"/><path class="cls-29" d="M202.41,134c-5.35-16.38-18.31-14.22-18.31-14.22-6.37-4.72-14.92-4.42-21.16-2.58a20.93,20.93,0,0,1,19.6-1.67s8.46-3.13,16.31,8.07A18.15,18.15,0,0,1,202.41,134Z" transform="translate(-10.22 -99.64)"/><path class="cls-22" d="M150.87,145.74c-1.18,2.6.51,5.9,3.77,7.38s6.86.56,8-2-.51-5.89-3.77-7.37S152,143.15,150.87,145.74Z" transform="translate(-10.22 -99.64)"/><path class="cls-30" d="M176.49,150.08a1.26,1.26,0,1,0,2.49.16,1.26,1.26,0,1,0-2.49-.16Z" transform="translate(-10.22 -99.64)"/><path class="cls-30" d="M191.06,150.08a1.26,1.26,0,1,0,2.5.16,1.27,1.27,0,1,0-2.5-.16Z" transform="translate(-10.22 -99.64)"/><path class="cls-31" d="M178.53,141.34a5.2,5.2,0,0,0-5.92.33" transform="translate(-10.22 -99.64)"/><path class="cls-31" d="M195.78,142.45c-1.13-1.33-4.38-1.88-6-.78" transform="translate(-10.22 -99.64)"/><path class="cls-32" d="M185.7,148.72a9,9,0,0,1-.61,6.44" transform="translate(-10.22 -99.64)"/><path class="cls-32" d="M184,158.93s-4.71,2.54-7.13-2.24" transform="translate(-10.22 -99.64)"/><line class="cls-18" x1="159.76" y1="48.2" x2="153.67" y2="46.7"/><path class="cls-18" d="M198.38,148.41a5.59,5.59,0,1,1-5.59-5.58A5.59,5.59,0,0,1,198.38,148.41Z" transform="translate(-10.22 -99.64)"/><circle class="cls-18" cx="165.35" cy="49.08" r="5.58"/><path class="cls-18" d="M180.44,146c2.53-1.36,5-1.58,7.32,0" transform="translate(-10.22 -99.64)"/><path class="cls-23" d="M236,238.47a2.63,2.63,0,0,1-1.65,4c-3.29,1.08-8.49.74-8.77-.86S236,238.47,236,238.47Z" transform="translate(-10.22 -99.64)"/><path class="cls-23" d="M238.62,239.06a2.62,2.62,0,0,1-1.64,4c-3.29,1.08-8.5.74-8.78-.86S238.62,239.06,238.62,239.06Z" transform="translate(-10.22 -99.64)"/><path class="cls-23" d="M242.21,239.06a2.63,2.63,0,0,1-1.65,4c-3.29,1.08-8.54.75-8.77-.86C231.53,240.37,242.25,238.64,242.21,239.06Z" transform="translate(-10.22 -99.64)"/><path class="cls-22" d="M245.29,238.47a2.63,2.63,0,0,1-1.65,4c-3.29,1.08-8.49.74-8.78-.86S245.29,238.47,245.29,238.47Z" transform="translate(-10.22 -99.64)"/><path class="cls-33" d="M254.34,206.81a12.1,12.1,0,0,1-1.59,3.74,6.63,6.63,0,0,1,1.19,3.18,4.39,4.39,0,0,1,0,1,6.42,6.42,0,0,1-1.7,3.86c-2.73,3.16-56.85,2.72-63.87,1.85a9.19,9.19,0,0,1-8.29-9.74,11.84,11.84,0,0,1,3-6.87c7-8.1,63.29-3.72,63.29-3.72C254.19,200.26,255,203.88,254.34,206.81Z" transform="translate(-10.22 -99.64)"/><path class="cls-34" d="M254,214.69a6.42,6.42,0,0,1-1.7,3.86c-2.73,3.16-56.85,2.72-63.87,1.85a9.19,9.19,0,0,1-8.29-9.74c1.33,2.91,12.79,6.14,19.41,6.26,4.4.07,11.13-1.08,13.94-1.07C230.18,215.89,247.57,217.67,254,214.69Z" transform="translate(-10.22 -99.64)"/><path class="cls-34" d="M252.75,210.55a6.63,6.63,0,0,1,1.19,3.18,6.88,6.88,0,0,0-2.81-1c-3.83-.55-30.86-1-39.35.8-4.11.88-6.93,2.43-7.66,1.19s.44-3,2.3-4.1c0,0-1.95-5.65-.3-6.07,2.07-.53,3.26,3,7.56,3.3,6.77.44,31.38,2.9,40.66-1.08A12.1,12.1,0,0,1,252.75,210.55Z" transform="translate(-10.22 -99.64)"/><path class="cls-35" d="M207.67,208.19s1.45,2.55,5.48,2.47,32.18.61,39.15,0" transform="translate(-10.22 -99.64)"/><path class="cls-35" d="M206.64,212.54a11.36,11.36,0,0,1,4.47-2.07" transform="translate(-10.22 -99.64)"/><path class="cls-36" d="M253.35,226a12.27,12.27,0,0,1-1.6,3.73,6.6,6.6,0,0,1,1.2,3.19,6,6,0,0,1,0,1,6.5,6.5,0,0,1-1.71,3.86c-2.73,3.16-56.85,2.72-63.87,1.85a9.19,9.19,0,0,1-8.29-9.74,11.79,11.79,0,0,1,3-6.86c7-8.11,63.29-3.73,63.29-3.73C253.19,219.44,254,223.06,253.35,226Z" transform="translate(-10.22 -99.64)"/><path class="cls-37" d="M253,233.87a6.5,6.5,0,0,1-1.71,3.86c-2.73,3.16-56.85,2.72-63.87,1.85a9.19,9.19,0,0,1-8.29-9.74c1.33,2.91,4.31,6.14,10.93,6.22C201.5,236.19,243.58,238.24,253,233.87Z" transform="translate(-10.22 -99.64)"/><path class="cls-37" d="M251.75,229.73a6.6,6.6,0,0,1,1.2,3.19,6.78,6.78,0,0,0-2.81-1c-3.84-.55-30.87-1-39.35.8-4.12.88-6.94,2.43-7.67,1.19s.44-3,2.3-4.1c0,0-1.95-5.65-.3-6.07,2.07-.53,3.27,3,7.56,3.3,6.77.44,31.38,2.9,40.67-1.07A12.27,12.27,0,0,1,251.75,229.73Z" transform="translate(-10.22 -99.64)"/><path class="cls-38" d="M206.67,227.37s1.45,2.55,5.48,2.47,32.19.61,39.15,0" transform="translate(-10.22 -99.64)"/><path class="cls-38" d="M205.64,231.72a11.36,11.36,0,0,1,4.48-2.07" transform="translate(-10.22 -99.64)"/><path class="cls-22" d="M196.52,241.51a1.53,1.53,0,0,1-.7,2.16s.78,1.39-1.4,2.09c0,0-.33,1.06-3.67,2.07-2,.61-7.48.43-11.41.2-2.51-.15-4.41-.32-4.41-.32l.54-11a8.29,8.29,0,0,1,1.62-2.06,9.15,9.15,0,0,1,2.62-1.76c3-1.3,3.14-1.15,4.93-2s1.06,3.21-3.34,5.78a57.38,57.38,0,0,0,8.51,2.3c3.92.54,8.5-.82,8.65.5S196.52,241.51,196.52,241.51Z" transform="translate(-10.22 -99.64)"/><path class="cls-39" d="M196,241.75a16.94,16.94,0,0,1-8,.45" transform="translate(-10.22 -99.64)"/><path class="cls-39" d="M195.24,243.74a15.5,15.5,0,0,1-8,.69" transform="translate(-10.22 -99.64)"/><path class="cls-39" d="M193.77,245.88a16.61,16.61,0,0,1-8,.69" transform="translate(-10.22 -99.64)"/><path class="cls-23" d="M179.34,248c-2.51-.15-4.41-.32-4.41-.32l.54-11a8.29,8.29,0,0,1,1.62-2.06Z" transform="translate(-10.22 -99.64)"/><path class="cls-8" d="M152.94,183l-2.44-4.85s-5,1.05-7.93,7.49-6.74,54.66-2.93,60,37.25,4.09,37.25,4.09V232.92s-19.33-1.58-20.09-2.8c-.51-.83.24-26.86.24-26.86Z" transform="translate(-10.22 -99.64)"/><path class="cls-40" d="M156.07,230.43a9.63,9.63,0,0,0-7.73,5.81" transform="translate(-10.22 -99.64)"/><path class="cls-40" d="M154.3,229.48a15.43,15.43,0,0,0-10.07,2.59" transform="translate(-10.22 -99.64)"/><path class="cls-40" d="M151.6,184.62c2.43,5.23,4.69,11.8,5.22,17.55" transform="translate(-10.22 -99.64)"/><path class="cls-41" d="M409.11,139.53c0,3.22,2.86,9.54-5.11,10.2-8.45.71-10.08-4.94-10.08-8.15S401.77,136,404,136C409.54,136,409.11,136.32,409.11,139.53Z" transform="translate(-10.22 -99.64)"/><path class="cls-22" d="M409.63,159.84S399.19,180,392.06,179s-10.29-14.65-10.29-14.65,3.4-.6,3.61-6.5a27.24,27.24,0,0,0-1.13-7.94l18.57-9.2a43,43,0,0,0-.23,4.74C402.62,150.8,403.67,159,409.63,159.84Z" transform="translate(-10.22 -99.64)"/><path class="cls-23" d="M402.82,140.67a43,43,0,0,0-.23,4.74c-2.81,4.71-9.54,14.15-17.21,12.4a27.24,27.24,0,0,0-1.13-7.94Z" transform="translate(-10.22 -99.64)"/><path class="cls-23" d="M376.49,138.51c-.39,2.65-3.41,4.4-6.73,3.91s-5.71-3-5.32-5.68,3.41-4.4,6.73-3.91S376.88,135.86,376.49,138.51Z" transform="translate(-10.22 -99.64)"/><path class="cls-41" d="M373.87,112.28s-7.13-.71-7.83,7.51c-1.12,13.32,4.43,17,4.43,17Z" transform="translate(-10.22 -99.64)"/><path class="cls-22" d="M406.79,130.06c.79,12-10.31,22.58-21.2,23.3s-15.77-8.78-16.56-20.82a54,54,0,0,1,.24-11.65,20.75,20.75,0,0,1,.71-3.19c2.34-7.49,8.11-7.67,15.66-8.17C396.53,108.82,406,118,406.79,130.06Z" transform="translate(-10.22 -99.64)"/><path class="cls-23" d="M404.09,134.87s-10.17-4.13-12.18-14.14c0,0-15.34,5.21-22.64.16a20.75,20.75,0,0,1,.71-3.19c3.71-3.22,11.64-5.08,18.53-7.26l12.44,7Z" transform="translate(-10.22 -99.64)"/><path class="cls-29" d="M411.81,116.79c.75,8.95-2,16.33-4.54,17.44-5.58,2.39-9.61-2.77-12.68-10s-1-14.62,1.54-16.29C403.23,103.18,411.16,108.92,411.81,116.79Z" transform="translate(-10.22 -99.64)"/><path class="cls-29" d="M383.72,119.8c-6.82,1.14-13.1,0-16.56-2.74a8.07,8.07,0,0,1-1.23-1.17c1-13.61,25.21-13.68,30.3-13.59a7.1,7.1,0,0,1,3.41,4.68C400.55,112.42,393.42,118.17,383.72,119.8Z" transform="translate(-10.22 -99.64)"/><path class="cls-29" d="M396.23,102.3c-5.09-.09-29.27,0-30.3,13.59a6,6,0,0,1-1.45-3c-.92-5.45,6.2-11.19,15.92-12.82C386.76,99,392.67,100,396.23,102.3Z" transform="translate(-10.22 -99.64)"/><path class="cls-30" d="M390.18,134.81a1.18,1.18,0,1,1-1.26-1.27A1.27,1.27,0,0,1,390.18,134.81Z" transform="translate(-10.22 -99.64)"/><path class="cls-30" d="M376.07,135.43a1.18,1.18,0,1,1-1.26-1.27A1.26,1.26,0,0,1,376.07,135.43Z" transform="translate(-10.22 -99.64)"/><path class="cls-31" d="M386.68,127.73c1.37-1.54,5.11-1.69,6.43,0" transform="translate(-10.22 -99.64)"/><path class="cls-31" d="M370.05,128.36a4.39,4.39,0,0,1,6-.13" transform="translate(-10.22 -99.64)"/><path class="cls-32" d="M379.44,133.76s-.51,5,1.07,7.8" transform="translate(-10.22 -99.64)"/><path class="cls-32" d="M382.28,145.38a10.28,10.28,0,0,0,7.61-4.38" transform="translate(-10.22 -99.64)"/><ellipse class="cls-22" cx="407.12" cy="135.22" rx="6.09" ry="4.85" transform="translate(-29.76 80.22) rotate(-24.35)"/><polygon class="cls-29" points="422.65 306.36 402.44 306.97 392.5 185.23 378.94 306.97 357.44 306.36 365.41 149.11 365.53 141.2 419.51 137.52 419.58 141.05 422.65 306.36"/><polygon class="cls-29" points="392.5 185.23 391.16 175.19 383.13 173.3 380.99 288.59 392.5 185.23"/><polygon class="cls-29" points="419.58 141.05 365.41 149.11 365.53 141.2 419.51 137.52 419.58 141.05"/><line class="cls-42" x1="416.46" y1="136.23" x2="420.2" y2="303.33"/><path class="cls-42" d="M422.5,236.69s-.93,16.05,4.18,16.05" transform="translate(-10.22 -99.64)"/><line class="cls-42" x1="402.63" y1="304.17" x2="422.08" y2="303.33"/><line class="cls-42" x1="358.14" y1="303.33" x2="378.84" y2="304.17"/><path class="cls-42" d="M397,237.16s.49,22.75,2.11,36.31" transform="translate(-10.22 -99.64)"/><path class="cls-42" d="M400.81,238.88c0,.44,4,18.64-3,18.54" transform="translate(-10.22 -99.64)"/><path class="cls-36" d="M390.12,420.18l-39.74,0a9.27,9.27,0,0,1,.32-2.78c2.43-8.66,17.19-11.47,17.19-11.47l21.28.7.76,10.82Z" transform="translate(-10.22 -99.64)"/><path class="cls-43" d="M390.12,420.18a164,164,0,0,1-39.74,0,9.27,9.27,0,0,1,.32-2.78,276,276,0,0,0,39.23.05Z" transform="translate(-10.22 -99.64)"/><path class="cls-44" d="M360.76,408.54a22.55,22.55,0,0,1,1.09,3.41" transform="translate(-10.22 -99.64)"/><path class="cls-44" d="M364,407.11a22.2,22.2,0,0,1,1.09,3.41" transform="translate(-10.22 -99.64)"/><path class="cls-44" d="M367.27,406.26a22.2,22.2,0,0,1,1.09,3.41" transform="translate(-10.22 -99.64)"/><path class="cls-36" d="M411.7,420.18l39.75,0a9.26,9.26,0,0,0-.33-2.78c-2.43-8.66-17.18-11.47-17.18-11.47l-21.28.7-.76,10.82Z" transform="translate(-10.22 -99.64)"/><path class="cls-43" d="M411.7,420.18c14.21,1.31,27.87,1.86,39.75,0a9.26,9.26,0,0,0-.33-2.78c-10.08.93-24,.68-39.22.05Z" transform="translate(-10.22 -99.64)"/><path class="cls-44" d="M441.06,408.54A23.74,23.74,0,0,0,440,412" transform="translate(-10.22 -99.64)"/><path class="cls-44" d="M437.83,407.11a23.35,23.35,0,0,0-1.09,3.41" transform="translate(-10.22 -99.64)"/><path class="cls-44" d="M434.55,406.26a23.35,23.35,0,0,0-1.09,3.41" transform="translate(-10.22 -99.64)"/><path class="cls-45" d="M382.28,178.09c-.84-.09-10.73-10-10.73-10s-5.46,1.75-14.6,23.32l7.45,15.42Z" transform="translate(-10.22 -99.64)"/><path class="cls-46" d="M383.87,162.67c-1.52,6.12.11,11,6,14.3,7.55-3.72,12.94-10.44,17.59-18.18,0,0,16.22,1.28,18.89,7.41,2.77,6.37,4.11,72.59,4.11,72.59l-55.12,3.51s-9.54-61.41-7.38-69.18S383.87,162.67,383.87,162.67Z" transform="translate(-10.22 -99.64)"/><path class="cls-47" d="M358.34,197.59s0,.24,0,.7l-1.25-.7Z" transform="translate(-10.22 -99.64)"/><path class="cls-6" d="M261.55,252.73s-1,9.23,1.32,10.25,12.6,4.1,16.85,2,4.68-11.18,4.68-11.18Z" transform="translate(-10.22 -99.64)"/><path class="cls-2" d="M305.58,197.12c0-1.08-4.5-16.9-4.5-16.9s-19.9,10.47-24.6,18.06c-9.19,14.85-22.67,50.54-14.4,57.76s19.36,6,22.65,2.58,4.31-27.35,11.86-34.18S305.58,197.12,305.58,197.12Z" transform="translate(-10.22 -99.64)"/><path class="cls-3" d="M289.4,224.66a46.66,46.66,0,0,1-8.59-10.93" transform="translate(-10.22 -99.64)"/><path class="cls-3" d="M290.06,228.86a19.79,19.79,0,0,1-12.38-2.4" transform="translate(-10.22 -99.64)"/><path class="cls-6" d="M291.38,258.62s-2.16,10.81,0,12,12.79,4.31,31,4.07,34.49-2,40-5.27c2-1.21-.66-13.39-.66-13.39Z" transform="translate(-10.22 -99.64)"/><path class="cls-2" d="M363.74,260.73c-5.17,7.29-63.52,12.5-74,0-.74-.88-1.29-2.75-1.69-5.35-2.51-16.49,1.25-62.22,4.6-68.25,8.09-14.54,60.79-18.65,66.32-1.25.82,2.55,2.08,10,3.28,19.24C364.92,225.83,367.31,255.69,363.74,260.73Z" transform="translate(-10.22 -99.64)"/><path class="cls-3" d="M363.74,260.73c-5.17,7.29-63.52,12.5-74,0-.74-.88-1.29-2.75-1.69-5.35,48.16,19.07,66.56-11.54,65.9-33.76l3,1s-.87-19-.94-21c1.32.75,3.58,2,6.22,3.53C364.92,225.83,367.31,255.69,363.74,260.73Z" transform="translate(-10.22 -99.64)"/><path class="cls-6" d="M379,262.71s1.74,8,4.53,7.67,13.72-5.23,14-7-.78-12-.78-12Z" transform="translate(-10.22 -99.64)"/><path class="cls-2" d="M344.76,192.44,351,178.09s24.92,14.16,32.69,25.76,16.69,47.51,14.19,52.19-14.41,11.12-19.77,8.3-8.36-32.35-12.6-35.23S346.2,214,344.76,192.44Z" transform="translate(-10.22 -99.64)"/><path class="cls-48" d="M352.13,178.61s-11.42,9-37.93,10.46c-5.59.31-14.42-.11-17.79-4.73-.94-1.29-1-3.4-.85-5.31a22.27,22.27,0,0,1,.42-2.78c.78-3.8,7.54-5.89,26.12-5.89,14.59,0,23.65,4.2,27.64,6.61A16.87,16.87,0,0,1,352.13,178.61Z" transform="translate(-10.22 -99.64)"/><path class="cls-3" d="M352.13,178.61s-11.42,9-37.93,10.46c-5.59.31-14.42-.11-17.79-4.73-.94-1.29-1-3.4-.85-5.31,5.28,1.18,23.19,4.06,54.18-2.06A16.87,16.87,0,0,1,352.13,178.61Z" transform="translate(-10.22 -99.64)"/><path class="cls-48" d="M352.13,178.6s-42,9.72-56.64,3.15c0,0-4.46,1.35-2.41,7.89s12.61,18.21,28.48,17.09S352.13,178.6,352.13,178.6Z" transform="translate(-10.22 -99.64)"/><path class="cls-49" d="M366.35,227.56a15.62,15.62,0,0,1,6.36-12.21" transform="translate(-10.22 -99.64)"/><path class="cls-49" d="M347.13,197.59c.49,12.1,5.5,19.92,13.59,27.51" transform="translate(-10.22 -99.64)"/><path class="cls-49" d="M340.85,212.43A34.64,34.64,0,0,0,357,222.58" transform="translate(-10.22 -99.64)"/><path class="cls-49" d="M369,228.05a22.59,22.59,0,0,1,6.91-4.4,6.74,6.74,0,0,1,2.63-.61,2.85,2.85,0,0,1,2.34,1.18,2.89,2.89,0,0,1-.72,3.5,7.16,7.16,0,0,1-3.52,1.51,13,13,0,0,0-3.7,1.08" transform="translate(-10.22 -99.64)"/><path class="cls-22" d="M384.14,193.18c-3.17-4.36-8.21-6.44-10.3-6.43-1.54,0-6.41,1.07-8.57,3.14-2.63,2.53-4.27,6.29-3.31,7,1.7,1.28,3.37-1.28,5.42-3,2.6-2.14,3.94-2.08,3.94-2.08a16.52,16.52,0,0,0-3.58,2.52c-2.21,2-4,5.94-3.43,6.78,1.52,2.32,3.51-1.75,6.06-3.31a17.82,17.82,0,0,1,5.11-2.09,13.51,13.51,0,0,0-4.44,2.62c-2.12,2-3.12,5.28-2.17,6s2.74-1.69,4.78-3.11a13.71,13.71,0,0,1,3.79-2,11.64,11.64,0,0,0-3.46,2.6c-1.6,1.71-2.38,3.91-1.74,4.65s2.55-.89,4.39-2.14a4.58,4.58,0,0,1,3.44-1s3.21,2.94,5.73,1.57C389.22,203.05,387.53,197.82,384.14,193.18Z" transform="translate(-10.22 -99.64)"/><path class="cls-22" d="M278.71,197.29s-7.66-4-9.54-.2c-1.14,2.33,5.64,13.37,8.18,12.69s-2.05-10.05-2.05-10.05Z" transform="translate(-10.22 -99.64)"/><path class="cls-22" d="M281.45,193.38s-7.65-4-9.53-.2c-1.14,2.34,5.64,13.37,8.18,12.7S278,195.82,278,195.82Z" transform="translate(-10.22 -99.64)"/><path class="cls-22" d="M285.11,189.61s-7.66-4-9.54-.2c-1.14,2.34,5.64,13.37,8.18,12.7s-2.05-10.06-2.05-10.06Z" transform="translate(-10.22 -99.64)"/><path class="cls-22" d="M289.47,187.1s-7.54-3.86-9.42,0c-1.14,2.33,5.64,13.36,8.18,12.69s-2.05-10-2.05-10A23.44,23.44,0,0,1,289.47,187.1Z" transform="translate(-10.22 -99.64)"/><path class="cls-50" d="M280.28,188.44a20.42,20.42,0,0,0,2.47,5.87" transform="translate(-10.22 -99.64)"/><path class="cls-50" d="M275.86,191.79a18.82,18.82,0,0,0,3,5.89" transform="translate(-10.22 -99.64)"/><path class="cls-50" d="M272.25,195.9a26.6,26.6,0,0,0,4.69,7.91" transform="translate(-10.22 -99.64)"/><path class="cls-22" d="M422.43,201.59s-.88,2.7-2.32,6.34c-2.93,7.39-8.22,18.63-13.29,18.75-7.55.18-22.95-21.55-22.95-21.55l-.41-7.19.31-5.24,18,14.1,4.62-11.11.43-1Z" transform="translate(-10.22 -99.64)"/><path class="cls-23" d="M422.43,201.59s-.88,2.7-2.32,6.34l-13.72-12.24.43-1Z" transform="translate(-10.22 -99.64)"/><path class="cls-45" d="M405.39,194l19.49,12.64s6.61-18.19,6.76-24-.94-16.56-9.21-20.16S405.39,194,405.39,194Z" transform="translate(-10.22 -99.64)"/><polygon class="cls-7" points="377.02 212.43 269.84 207.78 159.5 212.43 274.38 241.72 377.02 212.43"/><path class="cls-45" d="M254.63,314s27.26-3.51,34.65-3.27,49.49,5.53,49.49,5.53l-61.12,10Z" transform="translate(-10.22 -99.64)"/><path class="cls-51" d="M195.94,316.21s47.16-4.69,57.05-4.14,35.74,3.86,36.29,8-63.68,8.78-63.68,8.78Z" transform="translate(-10.22 -99.64)"/><polygon class="cls-7" points="377.02 212.43 399.92 259.03 351.23 259.03 377.02 212.43"/><polygon class="cls-5" points="377.34 330.7 236.89 339.69 236.89 217.35 377.02 212.43 377.34 330.7"/><polygon class="cls-7" points="236.89 339.69 159.91 325.66 159.5 212.43 236.89 217.35 236.89 339.69"/><polygon class="cls-5" points="236.88 217.36 221.44 264.87 142.96 256.39 144.53 252.21 144.54 252.19 159.5 212.43 230.43 216.95 236.88 217.36"/><polygon class="cls-52" points="230.43 216.95 162.35 218.87 144.54 252.19 159.5 212.43 230.43 216.95"/><path class="cls-8" d="M265.35,371.79v32.34l111.83-8.34-.76-29.25Z" transform="translate(-10.22 -99.64)"/><text class="cls-53" transform="matrix(0.99, -0.05, 0, 1, 261.29, 293.98)">DON<tspan class="cls-54" x="44.29" y="0">A</tspan><tspan x="56.74" y="0">TION</tspan></text></svg>