<svg width="325" height="132" viewBox="0 0 325 132" fill="none" xmlns="http://www.w3.org/2000/svg">
<path d="M15.9 131.5V50.5C15.9 46 15.25 42.4 13.95 39.7C12.75 36.9 9.9 35.5 5.4 35.5H2.4V32.5H41.4C44 32.5 46.9 32.7 50.1 33.1C53.4 33.4 56.7 34.15 60 35.35C63.4 36.45 66.5 38.1 69.3 40.3C72.2 42.5 74.5 45.4 76.2 49C78 52.6 78.9 57.1 78.9 62.5C78.9 67.6 78.05 71.9 76.35 75.4C74.65 78.8 72.4 81.55 69.6 83.65C66.9 85.75 64.05 87.35 61.05 88.45C58.05 89.45 55.2 90.15 52.5 90.55C49.8 90.85 47.6 91 45.9 91H29.4V131.5H15.9ZM29.4 85.75H40.65C42.75 85.75 45.1 85.35 47.7 84.55C50.3 83.75 52.85 82.4 55.35 80.5C57.85 78.6 59.9 76.15 61.5 73.15C63.1 70.05 63.9 66.25 63.9 61.75C63.9 57.25 63.1 53.5 61.5 50.5C59.9 47.4 57.85 44.9 55.35 43C52.85 41.1 50.3 39.75 47.7 38.95C45.1 38.15 42.75 37.75 40.65 37.75C38.75 37.75 36.75 37.9 34.65 38.2C32.65 38.5 30.9 38.85 29.4 39.25V85.75Z" fill="#D98324"/>
<mask id="path-2-inside-1_156_77" fill="white">
<path d="M124.186 46.1311L135.232 57.3785L102.924 93.6538L91.8787 82.4064L124.186 46.1311Z"/>
</mask>
<path d="M124.186 46.1311L135.232 57.3785L102.924 93.6538L91.8787 82.4064L124.186 46.1311Z" fill="#D6EDCB" fill-opacity="0.5"/>
<path d="M124.887 46.8446L125.552 46.0978L124.151 44.6709L123.486 45.4176L124.887 46.8446ZM135.932 58.0919L136.597 57.3452L135.196 55.9182L134.531 56.665L135.932 58.0919ZM102.924 93.6538L102.259 94.4006L102.96 95.114L103.625 94.3673L102.924 93.6538ZM91.8787 82.4064L91.178 81.693L90.513 82.4397L91.2136 83.1532L91.8787 82.4064ZM119.447 49.952L118.782 50.6988L120.183 52.1258L120.848 51.379L119.447 49.952ZM112.772 60.4478L113.437 59.7011L112.035 58.2741L111.37 59.0209L112.772 60.4478ZM103.293 68.0897L102.628 68.8365L104.03 70.2634L104.695 69.5167L103.293 68.0897ZM96.6178 78.5855L97.2829 77.8387L95.8816 76.4118L95.2165 77.1585L96.6178 78.5855ZM93.975 85.965L94.6757 86.6785L96.0058 85.185L95.3052 84.4715L93.975 85.965ZM100.828 90.0952L100.127 89.3817L98.7971 90.8752L99.4977 91.5887L100.828 90.0952ZM107.663 89.8329L108.328 89.0861L106.927 87.6591L106.262 88.4059L107.663 89.8329ZM114.339 79.3371L113.674 80.0838L115.075 81.5108L115.74 80.764L114.339 79.3371ZM123.817 71.6952L124.482 70.9484L123.081 69.5215L122.416 70.2682L123.817 71.6952ZM130.493 61.1994L129.827 61.9462L131.229 63.3731L131.894 62.6264L130.493 61.1994ZM123.486 45.4176L119.447 49.952L120.848 51.379L124.887 46.8446L123.486 45.4176ZM111.37 59.0209L103.293 68.0897L104.695 69.5167L112.772 60.4478L111.37 59.0209ZM95.2165 77.1585L91.178 81.693L92.5794 83.1199L96.6178 78.5855L95.2165 77.1585ZM91.2136 83.1532L93.975 85.965L95.3052 84.4715L92.5438 81.6597L91.2136 83.1532ZM99.4977 91.5887L102.259 94.4006L103.589 92.907L100.828 90.0952L99.4977 91.5887ZM103.625 94.3673L107.663 89.8329L106.262 88.4059L102.224 92.9403L103.625 94.3673ZM115.74 80.764L123.817 71.6952L122.416 70.2682L114.339 79.3371L115.74 80.764ZM131.894 62.6264L135.932 58.0919L134.531 56.665L130.493 61.1994L131.894 62.6264ZM125.588 47.5581L126.918 46.0645L124.115 43.2106L122.785 44.7041L125.588 47.5581ZM136.633 58.8054L137.963 57.3119L135.161 54.458L133.83 55.9515L136.633 58.8054ZM102.924 93.6538L101.594 95.1473L102.995 96.5743L104.326 95.0808L102.924 93.6538ZM91.8787 82.4064L90.4774 80.9795L89.1472 82.473L90.5486 83.9L91.8787 82.4064ZM118.746 49.2386L117.416 50.7321L120.219 53.586L121.549 52.0925L118.746 49.2386ZM113.472 61.1613L114.802 59.6678L112 56.8139L110.67 58.3074L113.472 61.1613ZM102.593 67.3762L101.263 68.8698L104.065 71.7237L105.395 70.2302L102.593 67.3762ZM97.3185 79.299L98.6487 77.8055L95.846 74.9515L94.5158 76.4451L97.3185 79.299ZM93.3099 86.7118L94.7113 88.1388L97.3716 85.1517L95.9703 83.7247L93.3099 86.7118ZM101.493 89.3484L100.092 87.9215L97.4313 90.9085L98.8326 92.3355L101.493 89.3484ZM108.364 90.5463L109.694 89.0528L106.891 86.1989L105.561 87.6924L108.364 90.5463ZM113.638 78.6236L112.308 80.1171L115.111 82.971L116.441 81.4775L113.638 78.6236ZM124.518 72.4087L125.848 70.9151L123.045 68.0612L121.715 69.5547L124.518 72.4087ZM129.792 60.4859L128.462 61.9794L131.264 64.8334L132.595 63.3398L129.792 60.4859ZM122.785 44.7041L118.746 49.2386L121.549 52.0925L125.588 47.5581L122.785 44.7041ZM110.67 58.3074L102.593 67.3762L105.395 70.2302L113.472 61.1613L110.67 58.3074ZM94.5158 76.4451L90.4774 80.9795L93.2801 83.8334L97.3185 79.299L94.5158 76.4451ZM90.5486 83.9L93.3099 86.7118L95.9703 83.7247L93.2089 80.9129L90.5486 83.9ZM98.8326 92.3355L101.594 95.1473L104.254 92.1603L101.493 89.3484L98.8326 92.3355ZM104.326 95.0808L108.364 90.5463L105.561 87.6924L101.523 92.2268L104.326 95.0808ZM116.441 81.4775L124.518 72.4087L121.715 69.5547L113.638 78.6236L116.441 81.4775ZM132.595 63.3398L136.633 58.8054L133.83 55.9515L129.792 60.4859L132.595 63.3398Z" fill="#7FB069" mask="url(#path-2-inside-1_156_77)"/>
<path d="M136.55 33.6163L143.382 32.0661L143.586 33.0765L144.53 32.8622L147.507 32.1866L147.022 35.3995L146.868 36.4185L147.821 36.5866L146.707 43.9585L145.753 43.7904L145.599 44.8095L144.176 54.2195L144.022 55.2386L144.976 55.4066L143.862 62.7785L142.908 62.6105L142.754 63.6295L142.334 66.4046L140.012 64.0402L139.312 63.3267L138.647 64.0735L132.75 58.0691L133.415 57.3224L132.715 56.6089L125.417 49.1776L124.716 48.4641L124.051 49.2109L118.154 43.2066L118.819 42.4598L118.119 41.7463L115.797 39.382L118.369 38.7984L119.313 38.5841L119.109 37.5738L125.941 36.0236L126.145 37.034L127.089 36.8197L135.809 34.8409L136.754 34.6267L136.55 33.6163Z" fill="#D6EDCB" fill-opacity="0.5" stroke="#7FB069" stroke-width="2" stroke-linecap="square" stroke-dasharray="9 9"/>
<mask id="path-5-inside-2_156_77" fill="white">
<path d="M132.027 115.89V99.5811L178.875 99.5811V115.89L132.027 115.89Z"/>
</mask>
<path d="M132.027 115.89V99.5811L178.875 99.5811V115.89L132.027 115.89Z" fill="#D6EDCB" fill-opacity="0.5"/>
<path d="M132.027 114.89H131.027V116.89H132.027V114.89ZM132.027 98.5811H131.027V100.581H132.027V98.5811ZM178.875 99.5811H179.875V98.5811H178.875V99.5811ZM178.875 115.89V116.89H179.875V115.89H178.875ZM137.883 116.89H138.883V114.89H137.883V116.89ZM149.595 114.89H148.595V116.89H149.595V114.89ZM161.307 116.89H162.307V114.89H161.307V116.89ZM173.019 114.89H172.019V116.89H173.019V114.89ZM179.875 111.813V110.813H177.875V111.813H179.875ZM177.875 103.658V104.658H179.875V103.658H177.875ZM173.019 98.5811H172.019V100.581H173.019V98.5811ZM161.307 100.581H162.307V98.5811H161.307V100.581ZM149.595 98.5811H148.595V100.581H149.595V98.5811ZM137.883 100.581H138.883V98.5811H137.883V100.581ZM132.027 116.89H137.883V114.89H132.027V116.89ZM149.595 116.89L161.307 116.89V114.89L149.595 114.89V116.89ZM173.019 116.89H178.875V114.89H173.019V116.89ZM179.875 115.89V111.813H177.875V115.89H179.875ZM179.875 103.658V99.5811H177.875V103.658H179.875ZM178.875 98.5811H173.019V100.581H178.875V98.5811ZM161.307 98.5811L149.595 98.5811V100.581L161.307 100.581V98.5811ZM137.883 98.5811H132.027V100.581H137.883V98.5811ZM132.027 113.89H130.027V117.89H132.027V113.89ZM132.027 97.5811H130.027V101.581H132.027V97.5811ZM178.875 99.5811H180.875V97.5811H178.875V99.5811ZM178.875 115.89V117.89H180.875V115.89H178.875ZM137.883 117.89H139.883V113.89H137.883V117.89ZM149.595 113.89H147.595V117.89H149.595V113.89ZM161.307 117.89H163.307V113.89H161.307V117.89ZM173.019 113.89H171.019V117.89H173.019V113.89ZM180.875 111.813V109.813H176.875V111.813H180.875ZM176.875 103.658V105.658H180.875V103.658H176.875ZM173.019 97.5811H171.019V101.581H173.019V97.5811ZM161.307 101.581H163.307V97.5811H161.307V101.581ZM149.595 97.5811H147.595V101.581H149.595V97.5811ZM137.883 101.581H139.883V97.5811H137.883V101.581ZM132.027 117.89H137.883V113.89H132.027V117.89ZM149.595 117.89L161.307 117.89V113.89L149.595 113.89V117.89ZM173.019 117.89H178.875V113.89H173.019V117.89ZM180.875 115.89V111.813H176.875V115.89H180.875ZM180.875 103.658V99.5811H176.875V103.658H180.875ZM178.875 97.5811H173.019V101.581H178.875V97.5811ZM161.307 97.5811L149.595 97.5811V101.581L161.307 101.581V97.5811ZM137.883 97.5811H132.027V101.581H137.883V97.5811Z" fill="#1C5F22" mask="url(#path-5-inside-2_156_77)"/>
<path d="M115.014 114.939L109.274 110.734L109.865 109.927L109.058 109.336L106.482 107.449L109.058 105.561L109.865 104.97L109.274 104.164L115.014 99.9577L115.605 100.764L116.412 100.173L123.766 94.7855L124.573 94.1945L123.982 93.3879L129.722 89.182L130.313 89.9886L131.12 89.3976L133.206 87.8693V91.2849V92.2849H134.206V101.061H133.206V102.061V112.836V113.836H134.206V122.612H133.206V123.612V127.028L131.12 125.5L130.313 124.909L129.722 125.715L123.982 121.509L124.573 120.703L123.766 120.112L116.412 114.724L115.605 114.133L115.014 114.939Z" fill="#D6EDCB" fill-opacity="0.5" stroke="#1C5F22" stroke-width="2" stroke-linecap="square" stroke-dasharray="9 9"/>
<path d="M115.014 114.939L109.274 110.734L109.865 109.927L109.058 109.336L106.482 107.449L109.058 105.561L109.865 104.97L109.274 104.164L115.014 99.9577L115.605 100.764L116.412 100.173L123.766 94.7855L124.573 94.1945L123.982 93.3879L129.722 89.182L130.313 89.9886L131.12 89.3976L133.206 87.8693V91.2849V92.2849H134.206V101.061H133.206V102.061V112.836V113.836H134.206V122.612H133.206V123.612V127.028L131.12 125.5L130.313 124.909L129.722 125.715L123.982 121.509L124.573 120.703L123.766 120.112L116.412 114.724L115.605 114.133L115.014 114.939Z" fill="#D6EDCB" fill-opacity="0.5" stroke="#1C5F22" stroke-width="2" stroke-linecap="square" stroke-dasharray="9 9"/>
<mask id="path-9-inside-3_156_77" fill="white">
<path d="M191.143 72.3851L178.761 81.9079L151.407 41.2408L163.79 31.718L191.143 72.3851Z"/>
</mask>
<path d="M191.143 72.3851L178.761 81.9079L151.407 41.2408L163.79 31.718L191.143 72.3851Z" fill="#D6EDCB" fill-opacity="0.5"/>
<path d="M190.351 72.9947L190.909 73.8245L192.494 72.6052L191.936 71.7755L190.351 72.9947ZM177.968 82.5175L178.526 83.3473L180.111 82.128L179.553 81.2983L177.968 82.5175ZM151.407 41.2408L150.849 40.4111L150.056 41.0207L150.614 41.8504L151.407 41.2408ZM163.79 31.718L164.582 31.1084L164.024 30.2787L163.231 30.8883L163.79 31.718ZM188.517 66.6921L187.959 65.8623L186.373 67.0816L186.931 67.9113L188.517 66.6921ZM180.093 57.7446L180.651 58.5743L182.236 57.3551L181.678 56.5253L180.093 57.7446ZM174.84 46.3586L174.282 45.5288L172.696 46.748L173.255 47.5778L174.84 46.3586ZM166.416 37.411L166.974 38.2408L168.56 37.0216L168.001 36.1918L166.416 37.411ZM160.136 33.269L159.343 33.8786L160.459 35.5381L161.252 34.9285L160.136 33.269ZM155.061 39.6899L155.853 39.0803L154.737 37.4208L153.944 38.0304L155.061 39.6899ZM154.033 46.9338L154.591 47.7636L156.177 46.5444L155.619 45.7146L154.033 46.9338ZM162.457 55.8814L161.899 55.0516L160.314 56.2708L160.872 57.1006L162.457 55.8814ZM167.71 67.2674L168.268 68.0971L169.854 66.8779L169.296 66.0481L167.71 67.2674ZM176.134 76.2149L175.576 75.3851L173.991 76.6044L174.549 77.4341L176.134 76.2149ZM191.936 71.7755L188.517 66.6921L186.931 67.9113L190.351 72.9947L191.936 71.7755ZM181.678 56.5253L174.84 46.3586L173.255 47.5778L180.093 57.7446L181.678 56.5253ZM168.001 36.1918L164.582 31.1084L162.997 32.3277L166.416 37.411L168.001 36.1918ZM163.231 30.8883L160.136 33.269L161.252 34.9285L164.348 32.5478L163.231 30.8883ZM153.944 38.0304L150.849 40.4111L151.965 42.0706L155.061 39.6899L153.944 38.0304ZM150.614 41.8504L154.033 46.9338L155.619 45.7146L152.2 40.6312L150.614 41.8504ZM160.872 57.1006L167.71 67.2674L169.296 66.0481L162.457 55.8814L160.872 57.1006ZM174.549 77.4341L177.968 82.5175L179.553 81.2983L176.134 76.2149L174.549 77.4341ZM189.558 73.6043L190.674 75.2639L193.845 72.8254L192.729 71.1659L189.558 73.6043ZM177.175 83.1271L178.291 84.7866L181.462 82.3482L180.346 80.6887L177.175 83.1271ZM151.407 41.2408L150.291 39.5813L148.705 40.8005L149.821 42.4601L151.407 41.2408ZM163.79 31.718L165.375 30.4988L164.259 28.8393L162.673 30.0585L163.79 31.718ZM189.309 66.0825L188.193 64.423L185.022 66.8614L186.139 68.521L189.309 66.0825ZM179.3 58.3542L180.416 60.0137L183.587 57.5752L182.471 55.9157L179.3 58.3542ZM175.633 45.749L174.516 44.0894L171.346 46.5279L172.462 48.1874L175.633 45.749ZM165.623 38.0207L166.74 39.6802L169.91 37.2417L168.794 35.5822L165.623 38.0207ZM159.578 32.4392L157.992 33.6585L160.225 36.9775L161.81 35.7583L159.578 32.4392ZM155.619 40.5197L157.204 39.3004L154.972 35.9814L153.386 37.2006L155.619 40.5197ZM153.241 47.5434L154.357 49.203L157.528 46.7645L156.411 45.105L153.241 47.5434ZM163.25 55.2717L162.134 53.6122L158.963 56.0507L160.079 57.7102L163.25 55.2717ZM166.918 67.877L168.034 69.5365L171.205 67.098L170.088 65.4385L166.918 67.877ZM176.927 75.6053L175.811 73.9458L172.64 76.3842L173.756 78.0437L176.927 75.6053ZM192.729 71.1659L189.309 66.0825L186.139 68.521L189.558 73.6043L192.729 71.1659ZM182.471 55.9157L175.633 45.749L172.462 48.1874L179.3 58.3542L182.471 55.9157ZM168.794 35.5822L165.375 30.4988L162.204 32.9373L165.623 38.0207L168.794 35.5822ZM162.673 30.0585L159.578 32.4392L161.81 35.7583L164.906 33.3776L162.673 30.0585ZM153.386 37.2006L150.291 39.5813L152.523 42.9003L155.619 40.5197L153.386 37.2006ZM149.821 42.4601L153.241 47.5434L156.411 45.105L152.992 40.0216L149.821 42.4601ZM160.079 57.7102L166.918 67.877L170.088 65.4385L163.25 55.2717L160.079 57.7102ZM173.756 78.0437L177.175 83.1271L180.346 80.6887L176.927 75.6053L173.756 78.0437Z" fill="#D98324" mask="url(#path-9-inside-3_156_77)"/>
<path d="M200.355 87.6919L200.514 95.1642L199.545 95.2083L199.567 96.237L199.635 99.4682L196.792 98.3704L195.887 98.0208L195.54 98.9893L188.966 96.4505L189.313 95.482L188.408 95.1325L180.023 91.8946L179.118 91.5451L178.771 92.5136L172.196 89.9748L172.544 89.0063L171.639 88.6568L169.143 87.6931L171.748 85.6902L172.54 85.0806L171.982 84.2508L178.578 79.1782L179.136 80.0079L179.929 79.3983L188.111 73.1065L188.903 72.4969L188.345 71.6671L194.941 66.5945L195.499 67.4243L196.292 66.8147L198.897 64.8117L198.957 67.6479L198.979 68.6766L199.948 68.6325L200.107 76.1048L199.138 76.1489L199.16 77.1776L199.363 86.7073L199.385 87.736L200.355 87.6919Z" fill="#D6EDCB" fill-opacity="0.5" stroke="#D98324" stroke-width="2" stroke-linecap="square" stroke-dasharray="9 9"/>
<path d="M232.9 131V50C232.9 45.5 232.25 41.9 230.95 39.2C229.75 36.4 226.9 35 222.4 35H219.4V32H258.7C278.5 32 293.25 36.4 302.95 45.2C312.75 54 317.65 65.9 317.65 80.9C317.65 90.6 315.55 99.25 311.35 106.85C307.25 114.35 301.1 120.25 292.9 124.55C284.8 128.85 274.7 131 262.6 131H232.9ZM262.15 125.75C269.55 125.75 276.2 123.95 282.1 120.35C288 116.75 292.65 111.65 296.05 105.05C299.55 98.35 301.3 90.5 301.3 81.5C301.3 72.6 299.6 64.85 296.2 58.25C292.8 51.65 288.15 46.5 282.25 42.8C276.35 39.1 269.55 37.25 261.85 37.25C259.65 37.25 257.25 37.45 254.65 37.85C252.15 38.25 249.55 38.85 246.85 39.65V123.8C248.85 124.2 250.7 124.55 252.4 124.85C254.2 125.15 255.9 125.4 257.5 125.6C259.2 125.7 260.75 125.75 262.15 125.75Z" fill="#7FB069"/>
</svg>
