<svg id="Слой_1" data-name="Слой 1" xmlns="http://www.w3.org/2000/svg" viewBox="0 0 551.18 361.15"><defs><style>.cls-1,.cls-2{fill:#cde6d8;}.cls-1{opacity:0.48;}.cls-2{opacity:0.55;}.cls-3{fill:#e4e3e2;}.cls-4{fill:#312645;}.cls-5{fill:#00602f;}.cls-6{fill:#64b265;}.cls-7{fill:#422a4a;}.cls-8{fill:#ed713e;}.cls-9{fill:#fff;}.cls-10{fill:#f39980;}.cls-11{fill:#e95b5d;opacity:0.5;}.cls-12{fill:#f18412;}.cls-13{fill:#f9d7b1;}.cls-14{fill:#472149;}.cls-15{fill:none;}</style></defs><path class="cls-1" d="M172.56,147.66c121.17-49,137.69,75.57,201.28,64.23s85.71,2.55,113,57.08c40.22,80.22-12.24,187.36-91.5,174.51-143.6-23.29-166.73,2.72-273.31-7.41C16.15,426-1.67,303.93,84.29,263.78,126.81,243.92,79.64,185.23,172.56,147.66Z" transform="translate(-7.87 -119.62)"/><path class="cls-2" d="M429.41,162.56c-96.42-40.73-111.19,58.82-162,48.95s-68.66,1-91.23,44.31C143,319.56,183.7,406,247.32,396.69c115.29-16.87,136.19,30,219.93,14.22s99.75-121,31.41-154.27C464.86,240.22,503.36,193.8,429.41,162.56Z" transform="translate(-7.87 -119.62)"/><path class="cls-3" d="M78,446.64S8,448,29.44,464.69c12.06,9.34,108.58,23,173.87,12s141.52-13.34,192.94-3.14C522.72,498.66,601.5,448.08,534.75,448,441.46,448,78,446.64,78,446.64Z" transform="translate(-7.87 -119.62)"/><polygon class="cls-4" points="84.86 339.78 81.77 339.29 82.01 337.74 125.93 59.21 129.04 59.37 144.63 339.46 141.5 339.64 141.41 338.07 126.73 74.27 84.86 339.78"/><polygon class="cls-4" points="393.62 339.78 390.52 339.29 434.69 59.21 437.8 59.37 453.39 339.46 450.25 339.64 450.17 338.07 435.49 74.27 393.62 339.78"/><rect class="cls-4" x="125.91" y="57.88" width="311.9" height="3.14"/><path class="cls-5" d="M512.42,348.82s5.27-18.94,20.23-25.41c7.59-3.28,23.28-8.43,25.13-4.92s-16.46,17-23.12,23.05-22.54,7.57-22.24,7.28Z" transform="translate(-7.87 -119.62)"/><path class="cls-6" d="M516.79,327.17s-4.84-21.37,6.52-35.6c5.77-7.23,18.55-20.54,22.24-18.07s-7.25,25.38-10.63,34.81-18.28,19.3-18.13,18.86Z" transform="translate(-7.87 -119.62)"/><path class="cls-7" d="M502.68,401.25l-1-.06C504.85,341,530.69,291.81,531,291.32l.92.49C531.61,292.3,505.88,341.32,502.68,401.25Z" transform="translate(-7.87 -119.62)"/><path class="cls-7" d="M509.8,353.89l-1-.27c2.44-9,17.34-17.34,18-17.69l.5.91C527.12,336.93,512.13,345.36,509.8,353.89Z" transform="translate(-7.87 -119.62)"/><path class="cls-5" d="M506.63,264.69s-10.85-7-2.11-16.58C512.59,239.32,521.8,262.51,506.63,264.69Z" transform="translate(-7.87 -119.62)"/><path class="cls-6" d="M461.14,304s3.5-8.44,1.59-16.78-9.17-15.49-14.88-17.37-6.49,19.61-2.34,25.74S460.54,305.71,461.14,304Z" transform="translate(-7.87 -119.62)"/><path class="cls-6" d="M468.37,322.53s8.71-2.75,13.87-9.58,6-17,3.72-22.57-19.18,7.65-21.2,14.78S466.68,323.17,468.37,322.53Z" transform="translate(-7.87 -119.62)"/><path class="cls-6" d="M472.33,339.69s-2.3-8.84-8.84-14.35-16.66-6.83-22.35-4.89,6.64,19.56,13.65,21.95S472.88,341.41,472.33,339.69Z" transform="translate(-7.87 -119.62)"/><path class="cls-7" d="M486.65,433.23h-1c0-82.57-31.71-140.83-32-141.41l.92-.51C454.82,291.89,486.65,350.4,486.65,433.23Z" transform="translate(-7.87 -119.62)"/><path class="cls-7" d="M489.64,400.26h-1.05c0-80.12,21-146.33,21.19-147l1,.32C510.57,254.25,489.64,320.32,489.64,400.26Z" transform="translate(-7.87 -119.62)"/><path class="cls-8" d="M385,462.11H527V351.69H462.66S467,409.85,429.2,415,385,462.11,385,462.11Z" transform="translate(-7.87 -119.62)"/><path class="cls-4" d="M436.29,462.24H434.2v-1c0-33.82-22.47-39.19-22.69-39.24l-1-.22.46-2.05,1,.23c.24.05,24.33,5.8,24.33,41.28Z" transform="translate(-7.87 -119.62)"/><rect class="cls-4" x="470.87" y="367.79" width="2.09" height="25.02" transform="translate(-53.73 575.71) rotate(-70.18)"/><rect class="cls-4" x="463.15" y="387.96" width="2.09" height="21.44" transform="translate(-128.6 458.75) rotate(-57.74)"/><rect class="cls-4" x="451.43" y="403.49" width="2.09" height="18.58" transform="translate(-167.43 316.28) rotate(-44.54)"/><rect class="cls-4" x="453.81" y="240.59" width="66.38" height="2.09"/><path class="cls-4" d="M461.64,429.79a6.67,6.67,0,1,1,6.67-6.67A6.68,6.68,0,0,1,461.64,429.79Zm0-11.25a4.58,4.58,0,1,0,4.57,4.58A4.58,4.58,0,0,0,461.64,418.54Z" transform="translate(-7.87 -119.62)"/><path class="cls-4" d="M477.08,413.57a6.67,6.67,0,1,1,6.67-6.67A6.68,6.68,0,0,1,477.08,413.57Zm0-11.25a4.58,4.58,0,1,0,4.58,4.58A4.58,4.58,0,0,0,477.08,402.32Z" transform="translate(-7.87 -119.62)"/><path class="cls-4" d="M487.07,393.45a6.67,6.67,0,1,1,6.67-6.67A6.69,6.69,0,0,1,487.07,393.45Zm0-11.25a4.58,4.58,0,1,0,4.58,4.58A4.58,4.58,0,0,0,487.07,382.2Z" transform="translate(-7.87 -119.62)"/><path class="cls-4" d="M491.22,463.16h-2.1v-1.05c0-13.73,3.84-24.35,11.42-31.57,11-10.53,25.9-9.94,26.53-9.92l1,.05-.1,2.09-1-.05c-.15,0-14.62-.56-25,9.36-7.13,6.81-10.74,16.92-10.74,30Z" transform="translate(-7.87 -119.62)"/><path class="cls-5" d="M489.11,337.91s6.09-12.41-6.51-15.36C471,319.84,475.35,344.66,489.11,337.91Z" transform="translate(-7.87 -119.62)"/><path class="cls-5" d="M497.79,340.28s-6.09-12.41,6.51-15.36C515.92,322.21,511.55,347,497.79,340.28Z" transform="translate(-7.87 -119.62)"/><path class="cls-7" d="M491.42,347.46l.18-1.76c.57-5.62-10.41-16.49-10.52-16.6l.74-.75c.43.43,9.84,9.75,10.77,16,2.51-3.06,9.65-11.55,13.16-13.39l.48.93c-4,2.1-13.6,14.07-13.7,14.2Z" transform="translate(-7.87 -119.62)"/><path class="cls-5" d="M490.54,319.81s6.09-12.42-6.51-15.36C472.41,301.73,476.78,326.56,490.54,319.81Z" transform="translate(-7.87 -119.62)"/><path class="cls-5" d="M499.21,322.18s-6.09-12.42,6.51-15.36C517.34,304.1,513,328.93,499.21,322.18Z" transform="translate(-7.87 -119.62)"/><path class="cls-7" d="M493.8,328.18l.18-1.77c.57-5.59-11.32-15.29-11.44-15.39l.66-.81c.47.38,10.71,8.74,11.76,14.86,2.33-2.84,8.74-10.41,12.21-12.22l.49.92c-4,2.1-12.66,12.91-12.75,13Z" transform="translate(-7.87 -119.62)"/><path class="cls-5" d="M493.4,299.47s6.09-12.42-6.51-15.36C475.27,281.39,479.64,306.22,493.4,299.47Z" transform="translate(-7.87 -119.62)"/><path class="cls-5" d="M502.08,301.84s-6.09-12.42,6.51-15.36C520.21,283.76,515.84,308.59,502.08,301.84Z" transform="translate(-7.87 -119.62)"/><path class="cls-7" d="M497,308.47l.19-1.91c.57-5.6-11.69-15.78-11.81-15.88l.66-.81c.49.4,11,9.1,12.11,15.28,2.27-3,8.4-10.83,11.86-12.64l.48.92c-4,2.09-12.27,13.37-12.36,13.49Z" transform="translate(-7.87 -119.62)"/><path class="cls-5" d="M497.51,277.84s6.93-12-5.44-15.77C480.66,258.56,483.32,283.63,497.51,277.84Z" transform="translate(-7.87 -119.62)"/><path class="cls-5" d="M507.35,281.47s-4.17-12.25,8.6-14.32C527.73,265.24,520.61,289.15,507.35,281.47Z" transform="translate(-7.87 -119.62)"/><path class="cls-7" d="M501.36,286.23l-.14-1c-1.09-8.44-7.78-14.54-7.85-14.6l.7-.78c.28.25,6.54,5.95,8,14.25,2.51-2.35,10.74-9.91,14.46-11.55l.43,1c-4.16,1.83-14.79,11.93-14.9,12Z" transform="translate(-7.87 -119.62)"/><path class="cls-7" d="M471.85,339.91c-.69-1.47-9.08-4.66-14.21-6.33l.32-1c2.29.74,13.75,4.57,14.84,6.88Z" transform="translate(-7.87 -119.62)"/><path class="cls-7" d="M468.41,324.43h-1.05c.08-5.82,6.4-16.91,6.67-17.38l.9.52C474.87,307.67,468.48,318.89,468.41,324.43Z" transform="translate(-7.87 -119.62)"/><path class="cls-5" d="M63.22,362.47S58.14,351.24,38.41,358,10.9,393.56,8.08,409.72s23.45-17.11,35.63-20.87S75.62,375.37,63.22,362.47Z" transform="translate(-7.87 -119.62)"/><path class="cls-6" d="M77,347.11c.55-1.84,2.29-18.76-17.41-32.53S-.3,320.37,9.34,328.9c8.11,7.17,24.66.22,36.09,14.36S72.64,361.65,77,347.11Z" transform="translate(-7.87 -119.62)"/><path class="cls-5" d="M90.24,370.72s-6.15-12.59,12.11-21c16.09-7.39,36.89,15.18,49.88,16.4S135,394.37,118.42,385.09,94,384.82,90.24,370.72Z" transform="translate(-7.87 -119.62)"/><path class="cls-6" d="M82.84,350.45S70,332,89.8,315.51s42.57,1.68,54.26,3.84-13.45,21.21-32.22,19.54S91.44,360.64,82.84,350.45Z" transform="translate(-7.87 -119.62)"/><path class="cls-7" d="M78.23,422a112.48,112.48,0,0,1,1.18-19.48c1.47-9.74,5-22.91,13.41-30.37,5.84-5.15,13.29-7,22.14-5.47l-.17,1c-8.53-1.47-15.69.29-21.27,5.23-15.73,13.9-14.26,48.66-14.24,49Z" transform="translate(-7.87 -119.62)"/><path class="cls-7" d="M78.23,416.47c-1.47-30.62-7.56-47.92-18.1-51.44-12.82-4.28-28.08,13.9-28.23,14.08l-.81-.66a61.74,61.74,0,0,1,9.5-8.88c7.39-5.49,14.26-7.41,19.87-5.53,11,3.67,17.32,21.29,18.82,52.38Z" transform="translate(-7.87 -119.62)"/><path class="cls-7" d="M78.73,410.74c-1.36-50.32,8.74-71.41,17.46-80.23C102.58,324,108.26,324,108.5,324v1s-5.51,0-11.61,6.23c-8.55,8.7-18.45,29.54-17.1,79.42Z" transform="translate(-7.87 -119.62)"/><path class="cls-7" d="M79.78,432.63l-1,0c2.52-69.17-10.86-93.46-22.52-101.66a20.68,20.68,0,0,0-18.5-3.1l-.39-1a21.74,21.74,0,0,1,19.47,3.2C78.32,345.15,81.18,394.17,79.78,432.63Z" transform="translate(-7.87 -119.62)"/><path class="cls-8" d="M107,407.39H56.08s-1,28.64,4.85,54.72h41.24C108.05,436,107,407.39,107,407.39Z" transform="translate(-7.87 -119.62)"/><path class="cls-6" d="M90.9,395.07s2.85-13.72,22.42-9.17c17.24,4,19.85,34.6,29.38,43.52s-30.94,11.74-38.34-5.73S85.26,408.53,90.9,395.07Z" transform="translate(-7.87 -119.62)"/><path class="cls-7" d="M80.08,405.35l-1-.2c1.76-9.22,5.18-14.57,10.15-15.89,9.82-2.62,22,11.33,22.48,11.93l-.79.68c-.12-.14-12.23-14.07-21.42-11.6C84.92,391.48,81.76,396.56,80.08,405.35Z" transform="translate(-7.87 -119.62)"/><path class="cls-6" d="M72.82,398.61s2.15-11.1-16-9.31S36.33,415,30.15,434.46s17.43,3.27,23.75-2.63S75.66,409.61,72.82,398.61Z" transform="translate(-7.87 -119.62)"/><path class="cls-7" d="M54,407.46l-1-.13c0-.16,2-16.05,15.46-16.37l0,1.05c-5.24.12-9.26,2.74-11.95,7.77A24.24,24.24,0,0,0,54,407.46Z" transform="translate(-7.87 -119.62)"/><path class="cls-5" d="M73.13,375.41s9.12-10.64,24.07,2.79c13.16,11.84.7,39.89,4.74,52.3S69.17,425.85,71.13,407,61.7,384.49,73.13,375.41Z" transform="translate(-7.87 -119.62)"/><path class="cls-7" d="M89.77,404.19l-1-.07c0-.19,1.22-19.19-3.42-24.29s-8.36-4.3-8.4-4.3l-.21-1c.17,0,4.41-.88,9.39,4.61S89.82,403.39,89.77,404.19Z" transform="translate(-7.87 -119.62)"/><path class="cls-4" d="M266.2,237.53c-14.44,0-48.23-.55-50.06-5.66-.18-.52-.17-1.34,1-2.27,2.12-1.33,51-31.73,63.18-31.73l.57,0c11,1,47.1,19.73,57.66,30a1.67,1.67,0,0,1,.56,1.93C336.79,235.43,293.16,237.53,266.2,237.53Zm14.08-38.61c-11.91,0-62.07,31.22-62.58,31.53s-.68.77-.57,1.07c.88,2.47,16.4,5,49.07,5,37.42,0,70.35-3.24,71.9-7.07,0-.09.14-.34-.32-.79-10.46-10.16-46.16-28.74-57-29.68A3.7,3.7,0,0,0,280.28,198.92Z" transform="translate(-7.87 -119.62)"/><path class="cls-6" d="M246.46,213S265,224.54,277.7,224.72s33.89-13.67,37-14.85,38,14.6,43.74,20.33,28.17,63.25,24.4,66.92-32.52,5.34-32.52,5.34,15.41,93,9.94,99.63-133.47,3.38-139.08,4.54,1.43-97.5,1.43-97.5-30.5,3.35-34.18-.5,19.27-74.83,24.8-80.56S246.46,213,246.46,213Z" transform="translate(-7.87 -119.62)"/><path class="cls-4" d="M280.3,198.57c-.07-.24-1.83-6,.18-9.82a21.49,21.49,0,0,1,1.7-2.5c1.93-2.59,4.33-5.81,3.56-8.84-.48-1.9-2.23-3.56-5.19-4.94-3.18-1.48-6,.26-7.51,2.37-2.21,3-2.84,7.87.26,11.23l-.77.71c-3.48-3.77-2.8-9.17-.33-12.55,2.28-3.13,5.65-4.17,8.79-2.71s5.2,3.41,5.77,5.63c.88,3.51-1.79,7.1-3.74,9.73a20.75,20.75,0,0,0-1.62,2.36c-1.8,3.43-.11,9-.1,9Z" transform="translate(-7.87 -119.62)"/><path class="cls-4" d="M280.33,234.92h-.68c-13.4-.36-29.78-10.67-29.94-10.78l.56-.88c.16.1,16.3,10.27,29.41,10.61,15.14.42,29-13.33,29.17-13.47l.74.74C309.45,221.27,295.63,234.92,280.33,234.92Z" transform="translate(-7.87 -119.62)"/><path class="cls-4" d="M305.07,393.69c-34,0-70.75-2.86-71.3-2.91l.08-1c.83.06,83.38,6.5,115.47,0l.2,1C338.72,393,322.23,393.69,305.07,393.69Z" transform="translate(-7.87 -119.62)"/><path class="cls-4" d="M349.57,295v-1.05c.2,0,20.36-.29,29.1-4.12l.42,1C370.14,294.69,350.41,295,349.57,295Z" transform="translate(-7.87 -119.62)"/><path class="cls-4" d="M210.29,304.56c-7.78,0-16.49-.74-17-.79l.09-1c.2,0,20.34,1.72,26.77,0l.27,1A45,45,0,0,1,210.29,304.56Z" transform="translate(-7.87 -119.62)"/><path class="cls-4" d="M348.21,298.31c-5.65-30.4-10-41.08-10-41.18l1-.4c0,.1,4.41,10.84,10.09,41.39Z" transform="translate(-7.87 -119.62)"/><path class="cls-4" d="M226.09,304.06l-1-.07c.11-1.67,2.69-41,4.09-46.23l1,.27C228.78,263.14,226.12,303.65,226.09,304.06Z" transform="translate(-7.87 -119.62)"/><path class="cls-9" d="M291.68,283.05l-5.36,4.31h17.57l7.22-14.25-4.49,2.54s-7.11-9.53-7.91-10.35c-8.34-8.61-22.93-.17-22.93-.17a7.07,7.07,0,0,1,7.22,3.49C284.52,271,291.68,283.05,291.68,283.05Z" transform="translate(-7.87 -119.62)"/><path class="cls-9" d="M297.64,295.17l14.64-7.81,8,14.15S324.51,311.7,309,311.7h-3.16Z" transform="translate(-7.87 -119.62)"/><path class="cls-9" d="M294.81,312.75v-5.67l-8.49,14.06L294.81,335v-5.07h10.44s13.22-.59,15.16-19.33c0,0-2.69,2.54-9.3,2.73C307,313.45,294.81,312.75,294.81,312.75Z" transform="translate(-7.87 -119.62)"/><path class="cls-9" d="M253.71,293.81l-5.27-3.52H266.6l7.22,15-5.66-2.93s-11.55,16.58-10,22.24c0,0-13.27-8.77-11.48-18.24C247.55,301.79,253.71,293.81,253.71,293.81Z" transform="translate(-7.87 -119.62)"/><path class="cls-9" d="M282,329.34v-16.2H262.87s-3.25,6.63-2.7,10.05a7.59,7.59,0,0,0,5.86,6.15Z" transform="translate(-7.87 -119.62)"/><path class="cls-9" d="M259.29,281.7l15.7,8.59,10.53-14a63.58,63.58,0,0,0-3.5-6.05,8.93,8.93,0,0,0-14.06-.6C264.76,273.55,259.29,281.7,259.29,281.7Z" transform="translate(-7.87 -119.62)"/><path class="cls-9" d="M95.09,251.27h68.62s-.17-15.71-11.83-13.9-4.33-16.47-20.37-19.58c-13.61-2.64-15.62,15.17-18.67,13.44-18.19-10.3-16.45,9.74-26.62,10s-9.31,10-9.31,10Z" transform="translate(-7.87 -119.62)"/><path class="cls-9" d="M345.52,153.37H276.91s.17-15.71,11.83-13.9,4.33-16.47,20.37-19.58c13.6-2.64,15.61,15.17,18.67,13.44,18.19-10.3,16.45,9.74,26.62,10s9.31,10,9.31,10Z" transform="translate(-7.87 -119.62)"/><path class="cls-9" d="M489.32,221.71H420.7s.17-15.71,11.84-13.89,4.32-16.48,20.37-19.59c13.6-2.64,15.61,15.17,18.67,13.44,18.19-10.3,16.45,9.74,26.61,10s9.32,10,9.32,10Z" transform="translate(-7.87 -119.62)"/><path class="cls-10" d="M404.44,290.85s-6.52-.37-5.5-13.79c.38-5-3.82-5.84-5.08-4.5s2,19.36-8.19,17.55C384.42,289.89,387.23,308.83,404.44,290.85Z" transform="translate(-7.87 -119.62)"/><path class="cls-10" d="M394.37,270.36s-5.32,9.19-.31,9.61c12.51,1,10.45-11.26,8.41-12.32A6.48,6.48,0,0,0,394.37,270.36Z" transform="translate(-7.87 -119.62)"/><path class="cls-7" d="M399.22,267.2s-2.93,4.76.56,8.3c1.53,1.55,2.47-1.6,2.86.07.65,2.75-1.32,1.37-2.25,2.77-2.34,3.57,2.59,6.24,6.17,1.11.74-1.05,1.22-2.85.71-7.56s-6.5-8-9.38-7-7.8,6.11-6,6.36S398,270.31,399.22,267.2Z" transform="translate(-7.87 -119.62)"/><path class="cls-11" d="M398.19,280a11.62,11.62,0,0,1-4.44,0,17,17,0,0,1-.85,5.26C392.64,285.87,398.19,285.8,398.19,280Z" transform="translate(-7.87 -119.62)"/><circle class="cls-7" cx="401.81" cy="145.07" r="6.79"/><path class="cls-7" d="M360.83,443.47s0,16.21-.84,16.55-4.84-.17-4.84-.17l-.84-4.51s-1.34,3.68-2.84,4-12.54,1.34-14.71,0,12.87-3.34,14-15.71Z" transform="translate(-7.87 -119.62)"/><path class="cls-7" d="M433.33,440.07s5.81,15.13,5.15,15.74-4.58,1.58-4.58,1.58l-2.4-3.91s.07,3.91-1.22,4.76-11.22,5.74-13.73,5.27,10.82-7.73,7.48-19.69Z" transform="translate(-7.87 -119.62)"/><path class="cls-12" d="M369.25,450.89s-27.2,1.08-31,0,5.79-51.23,7.59-56.9c3.53-11.12,19.81-51.18,19.81-55s47.27-1,53.2,1.72c3.6,1.64-2.53,45.73,5.6,60.82,3.92,7.27,17.11,36.06,17.11,39.84s-28.75,9.87-32.54,10.41-13.5-31.19-16.74-41.47-3.79-38.94-3.79-38.94-5.85,22.88-8.14,33.24C378.49,413.1,369.25,450.89,369.25,450.89Z" transform="translate(-7.87 -119.62)"/><path class="cls-13" d="M388.13,290.14s-2.73,6.18,2,7,9.57-8.84,10.84-8.57c5.54,1.15,12.34,2,16.87,3.82s5.94,45.77,4.1,50.29-54.32.8-57.63,1.44,4.69-41.95,3.31-47S384.93,289.24,388.13,290.14Z" transform="translate(-7.87 -119.62)"/><path class="cls-7" d="M410.54,290s1.26,60.66,2,61.71-6.92-.33-6.89,0,.92-57.81,0-61.71S410.54,290,410.54,290Z" transform="translate(-7.87 -119.62)"/><path class="cls-7" d="M402.52,339.32s34.08-1.39,36.52,0,3.14,38.55,2.79,42.12-33.13,1.2-35.91,2.55S402.52,339.32,402.52,339.32Z" transform="translate(-7.87 -119.62)"/><path class="cls-10" d="M426.9,339.88s-4.06,5.72-3.4,6.59,2.14-1.56,2.14-1.56-1.26,3.74-.22,3.41,2.51-2.61,2.51-2.61-.82,3.23,0,3.33,1.46-2.4,3-4.58S429.1,337.78,426.9,339.88Z" transform="translate(-7.87 -119.62)"/><path class="cls-10" d="M378.65,289.89s6-3.57,5.79-4.64-2.59.55-2.59.55,2.67-2.89,1.59-3-3.35,1.37-3.35,1.37,2.06-2.62,1.36-3-2.32,1.59-4.63,2.95S375.78,290.9,378.65,289.89Z" transform="translate(-7.87 -119.62)"/><path class="cls-13" d="M417.82,292.35s24.43,10.78,29.94,18.36-8.78,34.2-12.32,34.2-7.31-2.57-10.78-5,4.53-16,4-17.5-12.33-5-13-7.52S417.82,292.35,417.82,292.35Z" transform="translate(-7.87 -119.62)"/><path class="cls-13" d="M373,283.62s6.61,5.74,8,12.59-25.76,30-33.09,28.1-9.19-6.78-6.79-15C342.8,303.54,370.94,280.9,373,283.62Z" transform="translate(-7.87 -119.62)"/><path class="cls-7" d="M409.21,448.83l-.36-1c.29-.1,28.44-10.25,31.1-11.71l.5.92C437.72,438.56,410.37,448.41,409.21,448.83Z" transform="translate(-7.87 -119.62)"/><path class="cls-7" d="M360.35,444.34c-9.69,0-22.19-.32-23-.34l0-1.05c.29,0,29.4.76,33.57,0l.18,1A97.17,97.17,0,0,1,360.35,444.34Z" transform="translate(-7.87 -119.62)"/><path class="cls-7" d="M367,441.48l-1-.15c8.3-57.85,18.73-66.39,19.17-66.73l.64.83s-2.67,2.17-6.29,11.39C376.11,395.29,371.23,411.65,367,441.48Z" transform="translate(-7.87 -119.62)"/><path class="cls-7" d="M430.52,431.17c-.12-.17-12.2-16.61-15.38-46.08l1-.11c3.15,29.17,15.06,45.4,15.18,45.56Z" transform="translate(-7.87 -119.62)"/><path class="cls-7" d="M388.92,369.69l-.75-.61c-.22-.18-5.24-4.44-3.28-17.06l1,.16c-1.4,9,.91,13.53,2.17,15.25l1.49-14.67,1,.1Z" transform="translate(-7.87 -119.62)"/><path class="cls-7" d="M389.78,301h-.35a5.23,5.23,0,0,1-4.16-2.14c-1-1.58-1.12-3.93-.21-6.8l1,.32c-.57,1.78-1,4.25.08,5.9a4.24,4.24,0,0,0,3.38,1.68c4.23.36,11.39-8,11.46-8.08l.8.68C401.48,292.9,394.57,301,389.78,301Z" transform="translate(-7.87 -119.62)"/><path class="cls-7" d="M365.9,314.73l-.65-.81c4.08-3.31,14.88-12.52,15.87-15.48l1,.33C380.82,302.62,366.51,314.24,365.9,314.73Z" transform="translate(-7.87 -119.62)"/><path class="cls-7" d="M386.75,341.14a66,66,0,0,1-8.28-.43,77.74,77.74,0,0,0-11.75-.85l-.06-1.05a78.26,78.26,0,0,1,11.94.87c5.67.72,13.35.34,17.95.11,2.16-.11,3.59-.18,4.19-.12l-.11,1c-.51,0-2.07,0-4,.13C394,341,390.41,341.14,386.75,341.14Z" transform="translate(-7.87 -119.62)"/><path class="cls-7" d="M378,297.81c-1.31-4.33-7.19-9.09-7.25-9.14l.65-.82c.25.21,6.2,5,7.6,9.65Z" transform="translate(-7.87 -119.62)"/><path class="cls-7" d="M422,316.73l-1,0c.34-11.35-5.75-23.38-5.81-23.5l.93-.48C416.1,292.84,422.3,305.11,422,316.73Z" transform="translate(-7.87 -119.62)"/><path class="cls-7" d="M430.49,321.94a1.61,1.61,0,0,1-.8-.14l-.2-.13-.07-.29c0-.24-.13-1,4.86-6.83l.8.67a57.7,57.7,0,0,0-4.44,5.72c1.72-.07,8-1.3,9.33-3.64l.91.53c-1.19,2-4.79,3.13-6.82,3.6A22.32,22.32,0,0,1,430.49,321.94Z" transform="translate(-7.87 -119.62)"/><path class="cls-7" d="M435.07,342.28c-3.21-.68-9.46-4.49-9.73-4.65l.55-.89c.06,0,6.36,3.87,9.4,4.51Z" transform="translate(-7.87 -119.62)"/><path class="cls-9" d="M157.45,293.36a13,13,0,0,0,9.87,4.25c6.52,0,8.05-2.27,11.89-1.42s5.5-4.68,5-8.65-5.53-7.23-7.08-12.62-7.22-5.59-13-2.16-3,9.06-4.69,11.28S156.63,292,157.45,293.36Z" transform="translate(-7.87 -119.62)"/><path class="cls-12" d="M143.18,305.28s-19.12,23.51-17.46,36.39c1,7.71,14.13,8.79,17.23,7.62s9.3-27.39,7.17-31.05S146.74,303.05,143.18,305.28Z" transform="translate(-7.87 -119.62)"/><path class="cls-10" d="M165.14,297.52s6.52-.37,5.5-13.79c-.38-5,3.82-5.84,5.08-4.5s-2,19.37,8.19,17.55C185.16,296.56,182.34,315.5,165.14,297.52Z" transform="translate(-7.87 -119.62)"/><path class="cls-10" d="M175.21,277s5.32,9.19.31,9.61c-12.51,1-10.46-11.27-8.41-12.33A6.47,6.47,0,0,1,175.21,277Z" transform="translate(-7.87 -119.62)"/><path class="cls-9" d="M170.36,273.88s2.92,4.75-.56,8.29c-1.53,1.55-2.47-1.59-2.86.07-.65,2.76,1.32,1.37,2.24,2.77,2.35,3.57-2.58,6.24-6.16,1.11-.74-1.05-1.23-2.85-.71-7.56s6.5-8,9.38-7,7.8,6.12,6,6.36S171.55,277,170.36,273.88Z" transform="translate(-7.87 -119.62)"/><path class="cls-11" d="M170.43,285.85a6.14,6.14,0,0,0,4.52,1s.78,3.35,2.12,4.65C177.52,292,170.85,292.27,170.43,285.85Z" transform="translate(-7.87 -119.62)"/><path class="cls-7" d="M208.75,450.15s0,16.21.84,16.54,4.84-.17,4.84-.17l.84-4.51s1.34,3.68,2.84,4,12.54,1.34,14.71,0-12.87-3.34-14-15.71Z" transform="translate(-7.87 -119.62)"/><path class="cls-7" d="M151.2,450.15s0,16.21.83,16.54,4.85-.17,4.85-.17l.83-4.51s1.34,3.68,2.85,4,12.53,1.34,14.7,0-12.87-3.34-14-15.71Z" transform="translate(-7.87 -119.62)"/><path class="cls-13" d="M200.33,457.57s31,1.08,34.77,0S203.91,349.48,203.91,345.7s-47.26-1-53.19,1.71c-3.6,1.64-15.78,103.82-15.78,107.6s33,2.92,36.78,3.47,9.36-80.4,9.36-80.4,5.85,22.87,8.14,33.23C191.09,419.77,200.33,457.57,200.33,457.57Z" transform="translate(-7.87 -119.62)"/><path class="cls-12" d="M181.45,296.81s2.73,6.18-2,7-9.57-8.84-10.85-8.58c-5.54,1.16-12.33,2-16.86,3.82s-5.94,45.77-4.1,50.29,54.32.8,57.62,1.45-4.68-42-3.3-47S184.65,295.92,181.45,296.81Z" transform="translate(-7.87 -119.62)"/><path class="cls-7" d="M209.22,451a97,97,0,0,1-10.79-.35l.18-1c4.17.75,33.28,0,33.57,0l0,1.05C231.42,450.69,218.91,451,209.22,451Z" transform="translate(-7.87 -119.62)"/><path class="cls-7" d="M202.62,448.15c-8.24-57.43-18.67-66-18.77-66l.63-.83c.44.33,10.88,8.87,19.18,66.72Z" transform="translate(-7.87 -119.62)"/><path class="cls-7" d="M180.66,376.37,179,359.54l1-.11,1.49,14.67c1.26-1.72,3.57-6.26,2.17-15.25l1-.16c2,12.62-3.06,16.89-3.27,17.06Z" transform="translate(-7.87 -119.62)"/><path class="cls-5" d="M145.91,350.27s-8.43-21.06,4.34-37S169.48,288,171.07,289.7s.4,15.61-5.33,26.75S150.32,344.35,145.91,350.27Z" transform="translate(-7.87 -119.62)"/><path class="cls-6" d="M146.09,341.81s-14.79-17.19-7.88-36.45,10-30.05,12.09-29,5.43,14.64,3.61,27S148.35,334.79,146.09,341.81Z" transform="translate(-7.87 -119.62)"/><path class="cls-5" d="M140.52,345.85s11.09-19.79.49-37.29-15.82-27.45-17.62-26S121,298,125.23,309.76,136.91,339.42,140.52,345.85Z" transform="translate(-7.87 -119.62)"/><path class="cls-14" d="M141,345.91l-1-.11c0-.18,1.92-18.21-5.41-27.48a33.82,33.82,0,0,1-7.4-20.11l1.05,0a33.35,33.35,0,0,0,7.17,19.44C143,327.28,141.13,345.16,141,345.91Z" transform="translate(-7.87 -119.62)"/><path class="cls-14" d="M145.59,342c-6-20.11,3.93-47.21,4-47.48l1,.36c-.1.27-9.87,27.05-4,46.82Z" transform="translate(-7.87 -119.62)"/><path class="cls-14" d="M153.25,329.07l-1-.13c2.08-16.24,13.34-26.9,13.46-27l.71.76C166.27,302.8,155.28,313.22,153.25,329.07Z" transform="translate(-7.87 -119.62)"/><path class="cls-7" d="M130.84,334.41s28.69-2.82,29-.31-.18,21.92-3.22,26.45l-22.8-.5C129.7,356.5,130.84,334.41,130.84,334.41Z" transform="translate(-7.87 -119.62)"/><path class="cls-10" d="M132.09,341.67s6.86,1.5,6.95,2.59-2.63.28-2.63.28,3.44,1.92,2.46,2.37-3.62-.24-3.62-.24,2.78,1.84,2.24,2.46-2.69-.79-5.31-1.36S129.05,341.59,132.09,341.67Z" transform="translate(-7.87 -119.62)"/><path class="cls-10" d="M207.58,355.25s-5,4.92-6,4.4,1.2-2.36,1.2-2.36-3.49,1.84-3.33.76,2.18-2.89,2.18-2.89-3.06,1.32-3.28.53,2.13-1.82,4-3.7S209.3,352.74,207.58,355.25Z" transform="translate(-7.87 -119.62)"/><path class="cls-7" d="M182,308a15.47,15.47,0,0,1-10.35-4.25l.75-.73A14.64,14.64,0,0,0,182,307a3.31,3.31,0,0,0,2.8-1.18c1.72-2.18.7-6.59.69-6.63l1-.24c0,.2,1.14,5-.89,7.52A4.36,4.36,0,0,1,182,308Z" transform="translate(-7.87 -119.62)"/><path class="cls-12" d="M193.65,298.22s41.7,14.73,41.52,23.31c-.25,12.06-24.28,38.31-26.42,35.69s-10.23-11.84-10.23-11.84l14.42-18.53s-16.59-2.68-16.91-7.15S193.65,298.22,193.65,298.22Z" transform="translate(-7.87 -119.62)"/><path class="cls-7" d="M149.45,370.76l-.2-1c.59-.11,14.38-3,12.33-17.24l1-.15C164.8,367.63,149.6,370.73,149.45,370.76Z" transform="translate(-7.87 -119.62)"/><path class="cls-7" d="M143.7,455.07l-1-.12c.07-.64,7.11-64.92,8-79.64l1.05.07C150.81,390.12,143.77,454.42,143.7,455.07Z" transform="translate(-7.87 -119.62)"/><path class="cls-7" d="M160.45,452.12A216.8,216.8,0,0,1,138,450.66l.12-1c.25,0,25.13,3,33.77.36l.3,1C169.43,451.83,165.1,452.12,160.45,452.12Z" transform="translate(-7.87 -119.62)"/><path class="cls-7" d="M179.86,348.5c-1.17,0-2.31,0-3.42-.14-9.58-.84-15.28-1-15.34-1l0-1.05c.05,0,5.78.19,15.39,1s21.73-2.42,21.85-2.45l.27,1A84.76,84.76,0,0,1,179.86,348.5Z" transform="translate(-7.87 -119.62)"/><path class="cls-7" d="M210.28,354.09c-2.23-4.31-7.42-8.7-7.47-8.74l.67-.8c.22.18,5.41,4.57,7.73,9.06Z" transform="translate(-7.87 -119.62)"/><path class="cls-7" d="M222.55,328.17c-.46-.51-2.11-.34-3.56-.19-1.61.16-3.28.33-4.41-.16A.79.79,0,0,1,214,327c0-.38.13-1.52,11-4.24l.26,1c-4.06,1-8.64,2.41-9.94,3.17a11.94,11.94,0,0,0,3.52,0c1.87-.19,3.63-.37,4.44.52Z" transform="translate(-7.87 -119.62)"/><path class="cls-7" d="M202.62,322.09c-1.84-18.88-7.62-19.25-7.68-19.25v-1c.31,0,6.76.15,8.72,20.19Z" transform="translate(-7.87 -119.62)"/><path class="cls-9" d="M178.6,229.48c-10.41,17.26,4.45,36.64,24.06,32.41,0,0-1.85,6.89-.22,7s23.29-9.45,22.82-28.37C224.63,215.81,189,212.22,178.6,229.48Z" transform="translate(-7.87 -119.62)"/><path class="cls-12" d="M202.24,253.22S186,244.64,186.12,237.4s8-11.07,14-.19c0,0,1.67-8.62,7.76-7.71C214.77,230.54,215.78,240.71,202.24,253.22Z" transform="translate(-7.87 -119.62)"/><path class="cls-9" d="M404,225.77c11.1,18.39-4.74,39-25.64,34.53,0,0,2,7.34.23,7.49s-24.81-10.07-24.3-30.22C354.94,211.2,392.89,207.38,404,225.77Z" transform="translate(-7.87 -119.62)"/><path class="cls-6" d="M162.83,189s6,1.59,8.58-4,.61-9.37-1-10.43-9.34,3.36-10.09,7.68A7.24,7.24,0,0,0,162.83,189Z" transform="translate(-7.87 -119.62)"/><path class="cls-5" d="M213.55,174.49s2.35,5.7,8.41,4.39,7.82-5.21,7.67-7.15-8.34-5.38-12.22-3.36A7.23,7.23,0,0,0,213.55,174.49Z" transform="translate(-7.87 -119.62)"/><path class="cls-6" d="M193,173.35s-1.5,6,4.15,8.52,9.39.47,10.42-1.17-3.5-9.3-7.83-10A7.23,7.23,0,0,0,193,173.35Z" transform="translate(-7.87 -119.62)"/><path class="cls-5" d="M148.88,183.44s-4.87,3.78-2,9.27,7.09,6.16,8.92,5.51,3-9.48,0-12.69A7.24,7.24,0,0,0,148.88,183.44Z" transform="translate(-7.87 -119.62)"/><path class="cls-5" d="M167.4,194.77s.7,6.12,6.89,6.51,8.94-2.87,9.33-4.78-6.55-7.46-10.84-6.57A7.23,7.23,0,0,0,167.4,194.77Z" transform="translate(-7.87 -119.62)"/><path class="cls-5" d="M177.72,184.1s.7,6.12,6.89,6.51,8.94-2.87,9.33-4.77-6.55-7.46-10.84-6.58A7.25,7.25,0,0,0,177.72,184.1Z" transform="translate(-7.87 -119.62)"/><path class="cls-5" d="M182.61,178s6.14-.51,6.72-6.68-2.58-9-4.47-9.48-7.67,6.31-6.92,10.63A7.25,7.25,0,0,0,182.61,178Z" transform="translate(-7.87 -119.62)"/><path class="cls-5" d="M199.16,169.21s6,1.41,8.46-4.28.33-9.38-1.33-10.4-9.24,3.64-9.86,8A7.24,7.24,0,0,0,199.16,169.21Z" transform="translate(-7.87 -119.62)"/><path class="cls-5" d="M217.57,181.68s-5.93,1.66-5.34,7.84,4.24,8.38,6.18,8.46,6.34-7.65,4.79-11.74A7.25,7.25,0,0,0,217.57,181.68Z" transform="translate(-7.87 -119.62)"/><path class="cls-5" d="M231.23,192.33s-3.27,5.22,1.32,9.39,8.77,3.35,10.27,2.11-.46-9.92-4.36-11.91A7.26,7.26,0,0,0,231.23,192.33Z" transform="translate(-7.87 -119.62)"/><path class="cls-6" d="M230.53,189.32s5.71,2.32,9-2.92,1.78-9.23.29-10.48-9.69,2.17-11,6.36A7.23,7.23,0,0,0,230.53,189.32Z" transform="translate(-7.87 -119.62)"/><path class="cls-5" d="M246.91,189s2.43,5.67,8.47,4.27,7.75-5.31,7.58-7.25-8.42-5.27-12.28-3.2A7.26,7.26,0,0,0,246.91,189Z" transform="translate(-7.87 -119.62)"/><path class="cls-4" d="M150.11,189.32l-.07-.52s-.53-3.61-1.58-5.05l-.31-.42.85-.62.31.42c1.2,1.65,1.74,5.36,1.76,5.52l.08.52Z" transform="translate(-7.87 -119.62)"/><path class="cls-4" d="M172.25,194.93a8.62,8.62,0,0,1-7-3.79l.85-.61a7.61,7.61,0,0,0,6.56,3.34l.12,1S172.53,194.93,172.25,194.93Z" transform="translate(-7.87 -119.62)"/><path class="cls-4" d="M162.69,190.85l-1-.36.18-.49c1-2.81,4-6,4.17-6.11l.36-.37.75.72-.36.38s-3,3.13-3.94,5.73Z" transform="translate(-7.87 -119.62)"/><path class="cls-4" d="M184.54,185.35c-1.63-1-6.41-.77-8.12-.61l-.09-1.05c.26,0,6.49-.57,8.74.76Z" transform="translate(-7.87 -119.62)"/><path class="cls-4" d="M183.05,178.51l-.92-.49.25-.46c.74-1.37.21-4.84,0-6.06l-.11-.51,1-.22.11.51c.11.49,1,4.82,0,6.77Z" transform="translate(-7.87 -119.62)"/><path class="cls-4" d="M197.72,175.11c-.21,0-5.24-1-7-2.54l.69-.79c1.28,1.11,5.14,2,6.52,2.31Z" transform="translate(-7.87 -119.62)"/><path class="cls-4" d="M199.84,170l-1,0c.06-2.16,2.41-4.45,2.51-4.55l.73.76S199.9,168.24,199.84,170Z" transform="translate(-7.87 -119.62)"/><path class="cls-4" d="M214.7,176.19h-.63l.06-1.05c1,.05,3.81,0,4.86-.93l.68.79C218.44,176.06,215.91,176.19,214.7,176.19Z" transform="translate(-7.87 -119.62)"/><path class="cls-4" d="M218.13,185a30.47,30.47,0,0,1-.8-5.67l1,0a28.48,28.48,0,0,0,.77,5.41Z" transform="translate(-7.87 -119.62)"/><path class="cls-4" d="M234.14,194.87c-.15-.07-3.73-1.81-4.54-4.54l1-.3c.68,2.29,4,3.89,4,3.9Z" transform="translate(-7.87 -119.62)"/><path class="cls-4" d="M229,189.53a2.39,2.39,0,0,1-1.35-.37l.59-.87c1.15.79,4.15-.89,5.78-2.14l.63.83C234.28,187.28,231.28,189.53,229,189.53Z" transform="translate(-7.87 -119.62)"/><path class="cls-4" d="M245.16,189l-.07-1c.84-.06,5.09-.31,6,0l-.34,1A32.76,32.76,0,0,0,245.16,189Z" transform="translate(-7.87 -119.62)"/><path class="cls-4" d="M235.14,191.36c-6.8,0-11.38-4.9-16.2-10.07-5.39-5.79-11-11.77-20.12-10.77-9.43,1-15.4,7.19-20.67,12.62-4.7,4.84-8.75,9-14,8-10.69-2.1-19.56-11.31-19.94-11.7l-.36-.38.76-.72.36.38c.09.1,9,9.36,19.39,11.39,4.72.93,8.6-3.06,13.08-7.69,5.39-5.55,11.5-11.85,21.31-12.93s15.43,5.12,21,11.09c5,5.37,9.75,10.45,16.92,9.66,15-1.62,16.92-12.23,16.94-12.33l.09-.52,1,.18-.09.51c0,.12-2.13,11.5-17.85,13.2A14.89,14.89,0,0,1,235.14,191.36Z" transform="translate(-7.87 -119.62)"/><path class="cls-5" d="M332.76,189s6,1.59,8.59-4,.6-9.37-1-10.43-9.34,3.36-10.09,7.68A7.24,7.24,0,0,0,332.76,189Z" transform="translate(-7.87 -119.62)"/><path class="cls-6" d="M383.48,174.49s2.35,5.7,8.41,4.39,7.82-5.21,7.68-7.15-8.35-5.38-12.23-3.36A7.26,7.26,0,0,0,383.48,174.49Z" transform="translate(-7.87 -119.62)"/><path class="cls-5" d="M362.92,173.35s-1.5,6,4.16,8.52,9.38.47,10.42-1.17-3.51-9.3-7.83-10A7.24,7.24,0,0,0,362.92,173.35Z" transform="translate(-7.87 -119.62)"/><path class="cls-5" d="M318.82,183.44s-4.87,3.78-2,9.27,7.1,6.16,8.93,5.51,3-9.48,0-12.69A7.24,7.24,0,0,0,318.82,183.44Z" transform="translate(-7.87 -119.62)"/><path class="cls-6" d="M337.33,194.77s.71,6.12,6.89,6.51,8.95-2.87,9.34-4.78S347,189,342.71,189.93A7.23,7.23,0,0,0,337.33,194.77Z" transform="translate(-7.87 -119.62)"/><path class="cls-5" d="M347.65,184.1s.71,6.12,6.89,6.51,8.95-2.87,9.34-4.77-6.56-7.46-10.85-6.58A7.25,7.25,0,0,0,347.65,184.1Z" transform="translate(-7.87 -119.62)"/><path class="cls-6" d="M352.54,178s6.14-.51,6.73-6.68-2.58-9-4.47-9.48-7.67,6.31-6.93,10.63A7.25,7.25,0,0,0,352.54,178Z" transform="translate(-7.87 -119.62)"/><path class="cls-5" d="M369.09,169.21s6,1.41,8.46-4.28.33-9.38-1.33-10.4-9.24,3.64-9.86,8A7.24,7.24,0,0,0,369.09,169.21Z" transform="translate(-7.87 -119.62)"/><path class="cls-5" d="M387.51,181.68s-5.94,1.66-5.35,7.84,4.24,8.38,6.18,8.46,6.34-7.65,4.79-11.74A7.23,7.23,0,0,0,387.51,181.68Z" transform="translate(-7.87 -119.62)"/><path class="cls-5" d="M401.17,192.33s-3.28,5.22,1.31,9.39,8.78,3.35,10.27,2.11-.45-9.92-4.35-11.91A7.25,7.25,0,0,0,401.17,192.33Z" transform="translate(-7.87 -119.62)"/><path class="cls-5" d="M400.46,189.32s5.71,2.32,9-2.92,1.77-9.23.29-10.48-9.7,2.17-11,6.36A7.23,7.23,0,0,0,400.46,189.32Z" transform="translate(-7.87 -119.62)"/><path class="cls-6" d="M416.85,189s2.43,5.67,8.47,4.27,7.74-5.31,7.57-7.25-8.42-5.27-12.27-3.2A7.24,7.24,0,0,0,416.85,189Z" transform="translate(-7.87 -119.62)"/><path class="cls-4" d="M320.05,189.32l-.08-.52s-.53-3.61-1.58-5.05l-.3-.42.84-.62.31.42c1.2,1.65,1.75,5.36,1.77,5.52l.07.52Z" transform="translate(-7.87 -119.62)"/><path class="cls-4" d="M342.18,194.93a8.63,8.63,0,0,1-7-3.79l.85-.61a7.54,7.54,0,0,0,6.57,3.34l.11,1S342.46,194.93,342.18,194.93Z" transform="translate(-7.87 -119.62)"/><path class="cls-4" d="M332.63,190.85l-1-.36.18-.49c1-2.81,4-6,4.17-6.11l.36-.37.76.72-.37.38s-3,3.13-3.94,5.73Z" transform="translate(-7.87 -119.62)"/><path class="cls-4" d="M354.47,185.35c-1.62-1-6.41-.77-8.12-.61l-.09-1.05c.26,0,6.5-.57,8.75.76Z" transform="translate(-7.87 -119.62)"/><path class="cls-4" d="M353,178.51l-.92-.5.25-.46c.74-1.37.22-4.83-.05-6.05l-.11-.51,1-.22.11.51c.11.49,1,4.82,0,6.77Z" transform="translate(-7.87 -119.62)"/><path class="cls-4" d="M367.65,175.11c-.21,0-5.24-1-7-2.54l.68-.79c1.29,1.11,5.15,2,6.52,2.31Z" transform="translate(-7.87 -119.62)"/><path class="cls-4" d="M369.78,170l-1,0c.07-2.16,2.42-4.45,2.52-4.55l.72.76S369.83,168.24,369.78,170Z" transform="translate(-7.87 -119.62)"/><path class="cls-4" d="M384.64,176.19H384l.05-1.05c1,.05,3.81,0,4.86-.93l.68.79C388.38,176.06,385.84,176.19,384.64,176.19Z" transform="translate(-7.87 -119.62)"/><path class="cls-4" d="M388.07,185a28.79,28.79,0,0,1-.8-5.67l1,0a30.31,30.31,0,0,0,.77,5.41Z" transform="translate(-7.87 -119.62)"/><path class="cls-4" d="M404.07,194.87c-.15-.07-3.72-1.81-4.54-4.54l1-.3c.68,2.29,3.95,3.89,4,3.9Z" transform="translate(-7.87 -119.62)"/><path class="cls-4" d="M399,189.53a2.39,2.39,0,0,1-1.35-.37l.59-.87c1.15.79,4.16-.89,5.78-2.14l.64.83C404.22,187.28,401.22,189.53,399,189.53Z" transform="translate(-7.87 -119.62)"/><path class="cls-4" d="M415.09,189l-.06-1c.84-.06,5.08-.31,6,0l-.34,1A32.75,32.75,0,0,0,415.09,189Z" transform="translate(-7.87 -119.62)"/><path class="cls-4" d="M405.08,191.36c-6.81,0-11.38-4.9-16.2-10.08-5.39-5.78-11-11.75-20.13-10.76-9.42,1-15.4,7.19-20.66,12.62-4.7,4.84-8.75,9-14,8-10.7-2.1-19.57-11.31-19.94-11.7l-.36-.38.75-.72.36.38c.09.1,9,9.36,19.39,11.39,4.72.93,8.6-3.06,13.08-7.69,5.4-5.55,11.51-11.85,21.31-12.93s15.44,5.12,21,11.09c5,5.37,9.72,10.44,16.93,9.66,14.94-1.62,16.92-12.23,16.94-12.33l.08-.52,1,.18-.08.51c0,.12-2.14,11.5-17.86,13.2A14.71,14.71,0,0,1,405.08,191.36Z" transform="translate(-7.87 -119.62)"/><circle class="cls-6" cx="374.23" cy="118.23" r="16.43"/><path class="cls-15" d="M371,230.94c3,2.9-.95,7,.61,8.12s4.91-1,7.58,2.24-2.45,7.58.56,8.58c2.75.92,5.2.68,4.68,4.22a16.19,16.19,0,0,0,5.21-1.64c-1.35-2.4-.28-2.88,1.36-5.06,2-2.63-6.39-.44-4.41-6.15s4.91-1.46,6.61-3.4-2.14-2.75-2.2-7a3.85,3.85,0,0,1,3.26-4.07,16.33,16.33,0,0,0-3.09-2.65c-1.2,1.65-2.92,1.66-5.83.78-3.66-1.09-4.53,2.86-9.07,1.4a13.86,13.86,0,0,1-3.79-1.73,16.35,16.35,0,0,0-4.31,4.65A6.12,6.12,0,0,1,371,230.94Z" transform="translate(-7.87 -119.62)"/><path class="cls-5" d="M379.71,249.88c-3-1,2.11-5.35-.56-8.58s-6-1.11-7.58-2.24,2.34-5.22-.61-8.12a6.12,6.12,0,0,0-2.83-1.7,16.41,16.41,0,0,0,14,25,15.72,15.72,0,0,0,2.29-.18C384.91,250.56,382.46,250.8,379.71,249.88Z" transform="translate(-7.87 -119.62)"/><path class="cls-5" d="M385.3,224.92c2.91.88,4.63.87,5.83-.78a16.37,16.37,0,0,0-18.69.45,13.86,13.86,0,0,0,3.79,1.73C380.77,227.78,381.64,223.83,385.3,224.92Z" transform="translate(-7.87 -119.62)"/><path class="cls-5" d="M391,230.86c.06,4.24,3.91,5.06,2.2,7s-4.63-2.31-6.61,3.4,6.4,3.52,4.41,6.15c-1.64,2.18-2.71,2.66-1.36,5.06a16.39,16.39,0,0,0,4.62-25.67A3.85,3.85,0,0,0,391,230.86Z" transform="translate(-7.87 -119.62)"/><path class="cls-9" d="M217.89,208.81s1.31-3.64,1.68-3.46,1.5,3.46,1.5,3.46,3.28.61,3.18.92a16.15,16.15,0,0,1-2.8,1.61,24.47,24.47,0,0,1-1.5,3.91c-.38.3-1.78-3.72-1.78-3.72s-2.52-.19-3.09-.66S217.89,208.81,217.89,208.81Z" transform="translate(-7.87 -119.62)"/><path class="cls-9" d="M347,203.85s1.31-3.64,1.68-3.46,1.5,3.46,1.5,3.46,3.28.61,3.18.92a16.15,16.15,0,0,1-2.8,1.61,24.47,24.47,0,0,1-1.5,3.91c-.38.3-1.78-3.72-1.78-3.72s-2.53-.19-3.09-.66S347,203.85,347,203.85Z" transform="translate(-7.87 -119.62)"/><path class="cls-9" d="M419.7,244.64s1.31-3.65,1.68-3.46,1.5,3.46,1.5,3.46,3.28.61,3.18.91a15.62,15.62,0,0,1-2.8,1.62,24.84,24.84,0,0,1-1.5,3.91c-.38.3-1.78-3.73-1.78-3.73s-2.53-.18-3.09-.65S419.7,244.64,419.7,244.64Z" transform="translate(-7.87 -119.62)"/><path class="cls-9" d="M153.64,263.2s1.31-3.65,1.68-3.46,1.5,3.46,1.5,3.46,3.27.61,3.18.91a15.68,15.68,0,0,1-2.81,1.62,24.27,24.27,0,0,1-1.49,3.9c-.38.31-1.78-3.72-1.78-3.72s-2.53-.18-3.09-.65S153.64,263.2,153.64,263.2Z" transform="translate(-7.87 -119.62)"/><path class="cls-9" d="M245.17,421.63s1.31-3.65,1.68-3.47,1.5,3.47,1.5,3.47,3.27.6,3.18.91a16.21,16.21,0,0,1-2.81,1.61,23.55,23.55,0,0,1-1.5,3.91c-.37.3-1.77-3.72-1.77-3.72s-2.53-.19-3.09-.66S245.17,421.63,245.17,421.63Z" transform="translate(-7.87 -119.62)"/><path class="cls-9" d="M437.94,397.18s1.31-3.65,1.68-3.46,1.5,3.46,1.5,3.46,3.27.61,3.18.92a16.21,16.21,0,0,1-2.81,1.61,24.34,24.34,0,0,1-1.49,3.91c-.38.3-1.78-3.72-1.78-3.72s-2.53-.19-3.09-.66S437.94,397.18,437.94,397.18Z" transform="translate(-7.87 -119.62)"/><path class="cls-9" d="M458.44,263.7s.88-2.44,1.12-2.31a11.61,11.61,0,0,1,1,2.31s2.18.4,2.12.6a10.24,10.24,0,0,1-1.87,1.08,16,16,0,0,1-1,2.6c-.25.21-1.18-2.48-1.18-2.48a6.42,6.42,0,0,1-2.06-.43C456.2,264.76,458.44,263.7,458.44,263.7Z" transform="translate(-7.87 -119.62)"/><path class="cls-9" d="M102.26,289.28s.87-2.43,1.12-2.3a11.55,11.55,0,0,1,1,2.3s2.18.41,2.12.61a11.24,11.24,0,0,1-1.87,1.08,16,16,0,0,1-1,2.6c-.25.2-1.19-2.48-1.19-2.48a6.22,6.22,0,0,1-2.06-.44C100,290.34,102.26,289.28,102.26,289.28Z" transform="translate(-7.87 -119.62)"/><path class="cls-9" d="M320.58,168.37s.87-2.43,1.12-2.3a11.55,11.55,0,0,1,1,2.3s2.18.41,2.12.61a10.85,10.85,0,0,1-1.87,1.08,16,16,0,0,1-1,2.6c-.25.2-1.18-2.48-1.18-2.48a6.42,6.42,0,0,1-2.06-.43C318.34,169.43,320.58,168.37,320.58,168.37Z" transform="translate(-7.87 -119.62)"/><path class="cls-9" d="M422.33,164.78s.87-2.43,1.12-2.31a11.61,11.61,0,0,1,1,2.31s2.18.4,2.12.61a11.14,11.14,0,0,1-1.87,1.07,16.38,16.38,0,0,1-1,2.61c-.25.2-1.19-2.48-1.19-2.48a6.39,6.39,0,0,1-2.05-.44C420.08,165.84,422.33,164.78,422.33,164.78Z" transform="translate(-7.87 -119.62)"/><path class="cls-9" d="M158.21,164.78s.87-2.43,1.12-2.31a11.61,11.61,0,0,1,1,2.31s2.18.4,2.12.61a10.76,10.76,0,0,1-1.87,1.07,16.38,16.38,0,0,1-1,2.61c-.25.2-1.18-2.48-1.18-2.48a6.44,6.44,0,0,1-2.06-.44C156,165.84,158.21,164.78,158.21,164.78Z" transform="translate(-7.87 -119.62)"/></svg>