<svg id="Слой_1" data-name="Слой 1" xmlns="http://www.w3.org/2000/svg" xmlns:xlink="http://www.w3.org/1999/xlink" viewBox="0 0 499.62 322.65"><defs><style>.cls-1{fill:#e3ebdd;}.cls-2{fill:#7fb069;}.cls-3,.cls-37,.cls-6{fill:#fff;}.cls-3{opacity:0.86;}.cls-4{fill:#a6c693;}.cls-5{fill:#dce4f5;}.cls-6{opacity:0.69;}.cls-7{fill:#433930;}.cls-8{fill:#6e6256;}.cls-9{fill:#d98424;}.cls-10{fill:#d66d12;}.cls-11{fill:url(#linear-gradient);}.cls-12{fill:#010101;}.cls-13{fill:url(#linear-gradient-2);}.cls-14{fill:url(#linear-gradient-3);}.cls-15{fill:url(#linear-gradient-4);}.cls-16{fill:url(#linear-gradient-5);}.cls-17{fill:url(#linear-gradient-6);}.cls-18{fill:url(#linear-gradient-7);}.cls-19{fill:url(#linear-gradient-8);}.cls-20{fill:url(#linear-gradient-9);}.cls-21{fill:url(#linear-gradient-10);}.cls-22{fill:url(#linear-gradient-11);}.cls-23{fill:url(#linear-gradient-12);}.cls-24{fill:url(#linear-gradient-13);}.cls-25{fill:url(#linear-gradient-14);}.cls-26{fill:url(#linear-gradient-15);}.cls-27{fill:url(#linear-gradient-16);}.cls-28{fill:url(#linear-gradient-17);}.cls-29{fill:url(#linear-gradient-18);}.cls-30{fill:url(#linear-gradient-19);}.cls-31{fill:url(#linear-gradient-20);}.cls-32{fill:url(#linear-gradient-21);}.cls-33{fill:url(#linear-gradient-22);}.cls-34{fill:url(#linear-gradient-23);}.cls-35{fill:url(#linear-gradient-24);}.cls-36{fill:url(#linear-gradient-25);}</style><linearGradient id="linear-gradient" x1="430.35" y1="182.51" x2="417.47" y2="221.82" gradientUnits="userSpaceOnUse"><stop offset="0" stop-color="#f2908f"/><stop offset="1" stop-color="#f6b2b2"/></linearGradient><linearGradient id="linear-gradient-2" x1="402.58" y1="186.56" x2="396.82" y2="222.48" xlink:href="#linear-gradient"/><linearGradient id="linear-gradient-3" x1="403.04" y1="228.5" x2="367.12" y2="175.63" xlink:href="#linear-gradient"/><linearGradient id="linear-gradient-4" x1="2304.63" y1="195.85" x2="2310.64" y2="195.85" gradientTransform="translate(-1915.59)" xlink:href="#linear-gradient"/><linearGradient id="linear-gradient-5" x1="416.09" y1="133.28" x2="405.59" y2="158.7" xlink:href="#linear-gradient"/><linearGradient id="linear-gradient-6" x1="220.24" y1="166.14" x2="174.15" y2="252.89" gradientUnits="userSpaceOnUse"><stop offset="0" stop-color="#232451"/><stop offset="1" stop-color="#2a307b"/></linearGradient><linearGradient id="linear-gradient-7" x1="199.74" y1="253.02" x2="196.12" y2="235.63" xlink:href="#linear-gradient-6"/><linearGradient id="linear-gradient-8" x1="-864.11" y1="352.89" x2="-853.07" y2="352.89" gradientTransform="matrix(-1, 0, 0, 1, -499.19, 0)" xlink:href="#linear-gradient"/><linearGradient id="linear-gradient-9" x1="-850.71" y1="400.25" x2="-852.29" y2="414.04" gradientTransform="matrix(-1, 0, 0, 1, -499.19, 0)" xlink:href="#linear-gradient"/><linearGradient id="linear-gradient-10" x1="-837.83" y1="401.72" x2="-839.42" y2="415.52" gradientTransform="matrix(-1, 0, 0, 1, -499.19, 0)" xlink:href="#linear-gradient"/><linearGradient id="linear-gradient-11" x1="-847.22" y1="312.05" x2="-853.26" y2="338.13" gradientTransform="matrix(-1, 0, 0, 1, -499.19, 0)" xlink:href="#linear-gradient"/><linearGradient id="linear-gradient-12" x1="-2409.87" y1="-1644.71" x2="-2420.58" y2="-1630.55" gradientTransform="matrix(-0.69, -0.73, -0.73, 0.69, -2500.21, -320.34)" xlink:href="#linear-gradient"/><linearGradient id="linear-gradient-13" x1="-2425.55" y1="-1633.49" x2="-2416.96" y2="-1642.31" gradientTransform="matrix(-0.69, -0.73, -0.73, 0.69, -2500.21, -320.34)" xlink:href="#linear-gradient"/><linearGradient id="linear-gradient-14" x1="-1567.58" y1="311.41" x2="-1604.52" y2="358.67" gradientTransform="matrix(-1, 0, 0, 1, -1266.96, 0)" xlink:href="#linear-gradient"/><linearGradient id="linear-gradient-15" x1="-1562.64" y1="315.28" x2="-1599.58" y2="362.53" gradientTransform="matrix(-1, 0, 0, 1, -1266.96, 0)" xlink:href="#linear-gradient"/><linearGradient id="linear-gradient-16" x1="84.04" y1="406.49" x2="87.67" y2="406.49" xlink:href="#linear-gradient"/><linearGradient id="linear-gradient-17" x1="70.96" y1="406.31" x2="74.1" y2="406.31" xlink:href="#linear-gradient"/><linearGradient id="linear-gradient-18" x1="98.98" y1="311.78" x2="117.53" y2="311.78" xlink:href="#linear-gradient"/><linearGradient id="linear-gradient-19" x1="7190.38" y1="308.67" x2="7202.82" y2="336.99" gradientTransform="matrix(-1, 0, 0, 1, 7303.78, 0)" xlink:href="#linear-gradient"/><linearGradient id="linear-gradient-20" x1="121.36" y1="281.42" x2="117.75" y2="298.29" xlink:href="#linear-gradient"/><linearGradient id="linear-gradient-21" x1="58.4" y1="338.05" x2="81.87" y2="338.05" xlink:href="#linear-gradient"/><linearGradient id="linear-gradient-22" x1="80.13" y1="335.59" x2="87.44" y2="335.59" xlink:href="#linear-gradient"/><linearGradient id="linear-gradient-23" x1="80.78" y1="315.22" x2="85.14" y2="293.98" xlink:href="#linear-gradient"/><linearGradient id="linear-gradient-24" x1="-5994.19" y1="-1217.95" x2="-5992.83" y2="-1236.62" gradientTransform="matrix(0.75, -0.67, 0.67, 0.75, 5773.84, -2249.26)" xlink:href="#linear-gradient"/><linearGradient id="linear-gradient-25" x1="-5997.93" y1="-1218.22" x2="-5996.57" y2="-1236.89" gradientTransform="matrix(0.75, -0.67, 0.67, 0.75, 5773.84, -2249.26)" xlink:href="#linear-gradient"/></defs><path class="cls-1" d="M114.72,113.58c-38.75,32,13,73.14-13.79,91.08s-138,53-26.05,122.4,117.59,103.16,197.5,59.19,71.58-39.58,137.34-9.86S544.2,359.87,520.83,305s-38.24-54.2-11.56-89.25S482.89,88,374.6,136.29c-50.82,22.64-104.76,28.9-114.84.87S176,63,114.72,113.58Z" transform="translate(-25.88 -90.95)"/><path class="cls-2" d="M294,170.43c13.71,21.71,88.38,151.27-20.61,243.17,0,0-71.11-72.64,16.84-243A2.18,2.18,0,0,1,294,170.43Z" transform="translate(-25.88 -90.95)"/><path class="cls-3" d="M292.1,196.15s2,12.14,4.38,30.45c.59,4.57,1.19,9.53,1.79,14.79s1.2,10.79,1.75,16.53,1.08,11.68,1.57,17.72q.33,4.53.67,9.12c.19,3.06.41,6.13.57,9.2s.35,6.14.46,9.21c.07,1.53.13,3.06.2,4.58l.14,4.56c.05,1.51.09,3,.14,4.52s.05,3,.07,4.48c.07,3,.07,5.91.07,8.79,0,5.78-.1,11.36-.29,16.65s-.48,10.29-.85,14.9c-.15,2.31-.39,4.51-.6,6.61-.11,1.05-.21,2.07-.31,3.06s-.25,1.95-.37,2.89c-.25,1.86-.45,3.61-.7,5.22l-.72,4.41-.32,1.9c-.12.59-.23,1.14-.34,1.65-.21,1-.38,1.91-.53,2.62l-.44,2.18a.92.92,0,0,1-1.8-.37h0v0s.16-.75.45-2.15l.54-2.59c.11-.5.22-1.05.34-1.63s.21-1.22.33-1.88c.22-1.32.47-2.78.74-4.37s.46-3.33.72-5.18c.12-.92.26-1.87.38-2.86s.21-2,.32-3c.22-2.08.47-4.27.63-6.57.4-4.58.7-9.56.93-14.82s.36-10.84.38-16.59c0-2.88,0-5.81,0-8.77,0-1.48,0-3-.05-4.47s-.07-3-.11-4.51l-.12-4.55c-.06-1.52-.12-3.05-.17-4.58-.1-3.05-.27-6.12-.41-9.19s-.35-6.13-.52-9.19-.42-6.09-.62-9.11c-.46-6-.94-12-1.48-17.7s-1.09-11.28-1.65-16.53-1.15-10.21-1.71-14.79c-2.24-18.3-4.21-30.43-4.21-30.43a.39.39,0,0,1,.32-.45A.39.39,0,0,1,292.1,196.15Z" transform="translate(-25.88 -90.95)"/><path class="cls-4" d="M468.23,114.73a3.08,3.08,0,0,1,4.77,2.43c1.85,36.4,4,248.68-194.88,286.45C278.12,403.61,240.75,264.21,468.23,114.73Z" transform="translate(-25.88 -90.95)"/><path class="cls-3" d="M452.57,147.56s-5.28,17.66-15.37,43.35c-5.05,12.85-11.28,27.7-18.6,43.32s-15.72,32-24.93,48A462.14,462.14,0,0,1,364,327.41c-5.18,6.91-10.43,13.41-15.63,19.38S338,358.22,333.1,363.06s-9.69,9.06-14,12.67l-3.15,2.59c-1,.83-2,1.58-3,2.33-1.91,1.51-3.74,2.8-5.37,4l-1.19.86-1.15.79-2.09,1.42c-1.29.9-2.42,1.61-3.34,2.19l-2.8,1.78a.92.92,0,0,1-1.27-.28.93.93,0,0,1,.28-1.27h0l2.78-1.76c.91-.57,2-1.26,3.31-2.15l2.08-1.4,1.14-.77,1.18-.86c1.62-1.17,3.44-2.44,5.34-3.94.95-.74,2-1.48,3-2.3s2.06-1.68,3.15-2.55c4.29-3.57,9-7.74,13.94-12.53s10.06-10.2,15.26-16.12,10.45-12.38,15.63-19.24a459.56,459.56,0,0,0,29.72-45c9.25-15.87,17.71-32.2,25-47.78s13.65-30.38,18.73-43.19,9-23.63,11.57-31.23,3.93-12,3.93-12a.38.38,0,0,1,.49-.26A.39.39,0,0,1,452.57,147.56Z" transform="translate(-25.88 -90.95)"/><path class="cls-2" d="M511.84,274.73a2.38,2.38,0,0,1,2.41,3.34c-11.58,25.56-85,171.53-234.39,127.21C279.86,405.28,303.47,296.73,511.84,274.73Z" transform="translate(-25.88 -90.95)"/><path class="cls-5" d="M489.6,291.73s-2.44,2.47-6.83,6.65c-2.21,2.08-4.89,4.61-8,7.45s-6.68,6-10.59,9.45-8.2,7.08-12.81,10.86-9.5,7.72-14.61,11.73-10.5,8-16.05,12l-4.17,3-4.24,3c-2.82,2-5.71,3.91-8.59,5.84-.72.48-1.44,1-2.17,1.44l-2.18,1.41L395,367.35c-2.92,1.84-5.86,3.63-8.77,5.42l-4.41,2.58-2.18,1.28c-.72.43-1.45.85-2.19,1.25-1.46.81-2.92,1.61-4.36,2.42s-2.88,1.6-4.33,2.34c-5.75,3-11.39,5.84-16.82,8.33l-4,1.8-2,.89c-.65.29-1.31.54-2,.82-2.6,1-5.1,2.11-7.53,3l-7,2.58-.83.31-.83.26-1.63.53-3.12,1-2.93.94-2.76.76-4.86,1.33c-.73.22-1.44.37-2.1.52l-1.86.41-2.93.66-2.45.55a.92.92,0,0,1-.4-1.79h.05l2.42-.53,2.91-.64,1.84-.4c.66-.14,1.36-.29,2.08-.5l4.83-1.3,2.73-.74,2.91-.92,3.1-1,1.62-.52.83-.26.83-.3,7-2.53c2.42-.92,4.91-2,7.5-3,.65-.26,1.31-.51,2-.8l2-.87,4-1.78c5.41-2.45,11-5.2,16.78-8.21,1.45-.72,2.88-1.52,4.32-2.31l4.36-2.39c.73-.39,1.46-.81,2.19-1.23l2.18-1.27,4.4-2.55c2.91-1.76,5.85-3.53,8.77-5.35l4.37-2.79,2.18-1.39c.73-.46,1.45-.95,2.17-1.43,2.88-1.91,5.78-3.81,8.6-5.78l4.25-2.93,4.17-3c5.55-4,10.91-8,16.07-11.92s10.05-7.86,14.64-11.64,8.9-7.4,12.84-10.78,7.5-6.55,10.62-9.38,5.82-5.34,8-7.41c4.41-4.15,6.85-6.6,6.85-6.6a.39.39,0,0,1,.55.55Z" transform="translate(-25.88 -90.95)"/><path class="cls-2" d="M255.65,404.49s-10.3-81.87-60.18-97.09c-47.84-14.6-55.28,9-81.65-18.36a1.85,1.85,0,0,0-3.18,1.42c1.51,18.54,10.58,80.48,64.81,81.61C238.11,373.37,255.65,404.49,255.65,404.49Z" transform="translate(-25.88 -90.95)"/><path class="cls-6" d="M122.33,306.45l0,.1.17.29c.14.26.38.64.7,1.14a38.6,38.6,0,0,0,3.14,4,52.33,52.33,0,0,0,5.73,5.52,66.63,66.63,0,0,0,8.41,6,85.19,85.19,0,0,0,10.9,5.53,106.21,106.21,0,0,0,12.88,4.49,135.57,135.57,0,0,0,14.26,3.15l7.46,1.22,3.77.74,3.75.85a104.93,104.93,0,0,1,14.58,4.67A80.84,80.84,0,0,1,221.34,351c2,1.3,4,2.73,5.8,4.16s3.55,3,5.13,4.53a77.28,77.28,0,0,1,8.26,9.39c2.33,3.1,4.26,6.08,5.89,8.75s3,5,4.05,7l3.35,6.15a1.58,1.58,0,0,1-.63,2.15,1.6,1.6,0,0,1-2.16-.63v0h0l-3.25-6.18c-1-1.95-2.32-4.3-3.88-6.95s-3.39-5.56-5.6-8.6a75.45,75.45,0,0,0-7.84-9.2c-1.5-1.53-3.16-3-4.88-4.44S222,354.3,220,353a78.11,78.11,0,0,0-12.73-6.86,101.55,101.55,0,0,0-14.22-4.8l-3.67-.89-3.68-.78-7.44-1.33a137.88,137.88,0,0,1-14.38-3.41,107.31,107.31,0,0,1-13-4.74,86.19,86.19,0,0,1-11-5.78,66.67,66.67,0,0,1-8.45-6.19,55,55,0,0,1-5.73-5.69,39.41,39.41,0,0,1-3.14-4.16c-.33-.51-.57-.91-.72-1.19l-.17-.32-.06-.1a.36.36,0,0,1,.16-.48.35.35,0,0,1,.47.15Z" transform="translate(-25.88 -90.95)"/><path class="cls-4" d="M263.15,402l-6.43-2.17c-6.6-45-32.1-124.73-81.18-137.46-33.24-8.62-48-23-53.42-59.29-3.61-24.22-15.07-39-22.29-46.22a2,2,0,0,1,1.93-3.42c20.23,5.12,73.63,21.63,104.53,59.44C245,260.19,263.15,402,263.15,402Z" transform="translate(-25.88 -90.95)"/><path class="cls-6" d="M135.93,178.61a.75.75,0,0,1,.44-1.43l.17,0,.53.17.86.29,1.16.45c.88.32,1.92.81,3.15,1.35.63.27,1.26.62,1.95,1s1.44.69,2.19,1.12l2.39,1.33c.41.24.85.47,1.27.73l1.3.81,2.76,1.73c.93.63,1.88,1.3,2.87,2a144.72,144.72,0,0,1,12.68,10c.58.47,1.11,1,1.67,1.51l1.66,1.56,3.43,3.22,3.38,3.49,1.73,1.79.88.91.44.45.42.48,3.4,3.86c.57.66,1.15,1.31,1.73,2s1.17,1.32,1.71,2l3.37,4.21c.57.71,1.13,1.42,1.71,2.13s1.16,1.42,1.69,2.18l6.61,9.11,6.35,9.61c4.17,6.53,8.09,13.39,11.75,20.36s7.06,14.09,10.16,21.2,5.94,14.19,8.51,21.11c5.15,13.84,9.22,27,12.34,38.4s5.34,21,6.74,27.73c.71,3.38,1.22,6,1.55,7.86.17.91.29,1.61.38,2.09l.12.72a1.59,1.59,0,0,1-3.13.53h0v0l-.12-.7c-.08-.46-.19-1.15-.35-2.05-.32-1.8-.81-4.44-1.48-7.79-1.35-6.71-3.48-16.26-6.52-27.6s-7-24.46-12-38.25c-2.51-6.89-5.28-13.95-8.32-21s-6.35-14.16-9.94-21.11-7.42-13.75-11.53-20.27l-6.23-9.59-6.5-9.08c-.52-.76-1.11-1.45-1.67-2.17l-1.67-2.13-3.31-4.2c-.53-.7-1.12-1.35-1.69-2l-1.7-2-3.35-3.85-.41-.48-.43-.45-.86-.9-1.7-1.78-3.33-3.49-3.37-3.2L170.12,201c-.54-.52-1.07-1-1.64-1.5a141.68,141.68,0,0,0-12.46-10c-1-.68-1.9-1.36-2.82-2l-2.7-1.72-1.28-.81c-.41-.26-.84-.48-1.25-.72L145.64,183c-.74-.43-1.47-.76-2.14-1.12s-1.3-.68-1.91-.94c-1.2-.54-2.21-1-3.06-1.34l-1.11-.44-.8-.28a4.46,4.46,0,0,0-.5-.16l-.18-.06Z" transform="translate(-25.88 -90.95)"/><path class="cls-7" d="M271.46,272.71,276,400a2,2,0,0,1-1.54,2l-36.15,7.75a1.92,1.92,0,0,0-1.34,1h0a2,2,0,0,0,1.75,2.84h81.42a2,2,0,0,0,2-2v-.11a2,2,0,0,0-1.56-1.93L283.17,402A2,2,0,0,1,281.6,400l.91-127.3Z" transform="translate(-25.88 -90.95)"/><path class="cls-8" d="M269.62,127.41v0a2,2,0,0,1-1.6,1.92L253.6,132a2,2,0,0,0-1.53,1.4l-6.77,24.44a23.52,23.52,0,0,0-.44,10.65l9,47.52a11.6,11.6,0,0,1-1.89,8.84c-5.06,7.24-14.76,24.41-11.72,46.47a7.09,7.09,0,0,0,4.69,5.72c9.27,3.19,33.95,9.46,65.31-.14a7.06,7.06,0,0,0,5-6.42c.37-7.83-.48-24.36-10.74-45.82a11.73,11.73,0,0,1-.91-7.49l9.88-46.37a23.5,23.5,0,0,0-.45-11.57L305,132.2a2,2,0,0,0-1.73-1.39l-9.73-.69a2,2,0,0,1-1.81-2h0a2,2,0,0,0-1.87-1.94l-18.2-.76A1.94,1.94,0,0,0,269.62,127.41Z" transform="translate(-25.88 -90.95)"/><path class="cls-9" d="M253,130s5.53-5.53,9.21-2.77,14.73,31.31,32.23,40.52,45.12-.92,65.38-9.21,68.14,44.2,77.35,89.32c6.7,32.85,6.08,63.74,5.25,78.12a12.14,12.14,0,0,1-9.17,11.1c-7.34,1.81-18.16,3.36-27.39.1a34.54,34.54,0,0,0-8.51-2,12.1,12.1,0,0,1-11-11.2L375.69,180.32a4.72,4.72,0,0,0-4.22-4.43c-1.67-.13-3.59.66-5.17,3.82-3.68,7.37-19.33,45.12-53.4,47S248.44,188,245.68,183.39a8.22,8.22,0,0,1,.34-8.8l1,5.24S265.93,177.87,253,130Z" transform="translate(-25.88 -90.95)"/><path class="cls-10" d="M402.19,191.74c5.52,12.89,12.67,24.72,15.43,51.43,2.12,20.48-1.44,69.42-.32,91.48,7.57,1.56,15.68.54,21.83-.85-1.38-19-4.41-57.41-8.4-88.65C425.21,201.87,396.66,178.85,402.19,191.74Z" transform="translate(-25.88 -90.95)"/><path class="cls-11" d="M396.35,243.18s9.07,19.78,13.83,28c0,0,.95,5.15,0,6.77l-.81.36,3.76-.11s.34-6.94.08-7.32a1,1,0,0,0-.78-.37s-1.62-12.77-6.29-15.5l-4.52-15.58Z" transform="translate(-25.88 -90.95)"/><path class="cls-12" d="M407.77,279.25c0,.09,2.94.05,4.53,0a1.27,1.27,0,0,0,1.22-1l1.21-6.34a1.15,1.15,0,0,0-.87-1.33l-.67-.15a3.62,3.62,0,0,0-.66,2.56c.3,1.24.57,4.45-.19,4.83a11.43,11.43,0,0,1-3,.44S407.82,278.43,407.77,279.25Z" transform="translate(-25.88 -90.95)"/><path class="cls-12" d="M387.75,279.36a.33.33,0,0,0,.17.62c2.67,0,8.66-.11,9.2-.33s-.25-2.76-1.24-3.59l-5.45,1.78Z" transform="translate(-25.88 -90.95)"/><path class="cls-13" d="M386.06,241.92s5.86,28.36,7.52,33.9l-3.93,2.46s2-.34,3.43-.44a5,5,0,0,0,2.8-1.78l-.47-.75s-1.47-28.21-1.11-31.41Z" transform="translate(-25.88 -90.95)"/><path class="cls-14" d="M371.5,175.77s-.81,14.75,12.63,22.29l-3.24,7.37s-12.16-7.35-11.71-27.41a2.3,2.3,0,0,0-.57-1.57l-2.58-3a4.63,4.63,0,0,1-1-4.16l.34-1.36a.71.71,0,0,1,1-.44l.27.16a4.77,4.77,0,0,1,1.95,2.17l1.29,2c.48,1.06.59,1.51,1.75,1.41l2.15,0Z" transform="translate(-25.88 -90.95)"/><path class="cls-4" d="M383.66,197c2.25.63,9.86,2.63,14.61,2.55L395.35,216l.24,2.69-9.52,0a74.09,74.09,0,0,0-4.79-9.32c-.61-.9-.16-2,.19-3L381,206a1.29,1.29,0,0,1-.52-1.48l2.32-7.09A.71.71,0,0,1,383.66,197Z" transform="translate(-25.88 -90.95)"/><path class="cls-12" d="M385.31,217.2l.19,1.63s-2.69,8,1.34,26.86c0,0,8.74,2.47,15.92-3.45,0,0-2-17.75-2.58-18.58-2.76-4.11-4.59-5-4.59-5l-.09-1.78S387.83,218.26,385.31,217.2Z" transform="translate(-25.88 -90.95)"/><path class="cls-15" d="M389,198.28s2-6.1,2-6.1l2.89.26,1.13,6.87S390.51,200.23,389,198.28Z" transform="translate(-25.88 -90.95)"/><path class="cls-16" d="M393.22,182.64c-.19.12-6.18,2.59-4.89,8.81a1.14,1.14,0,0,0,.66.83,10.17,10.17,0,0,0,5,.83c3.14-.32,5.2-5.79,5.11-7.38S395.13,181.45,393.22,182.64Z" transform="translate(-25.88 -90.95)"/><path class="cls-7" d="M395,180.22c-.15,0-3.46,1.17-1.82,3.56s2.25,3.81,1.48,4.86-2.27.41-2.13,2.4a1.13,1.13,0,0,1-.48,1c-1.47,1-5.07,4.07-1.51,8.45a1.12,1.12,0,0,1,.13,1.25c-1,1.87-3.24,7.35,4.7,10.39S406.08,210,406.87,208a1.1,1.1,0,0,1,1.08-.69c.86,0,2.08-.1,2-1.25a2.89,2.89,0,0,0-1-1.83,1.09,1.09,0,0,1,.21-1.72,2.16,2.16,0,0,0,1.06-1.33c.47-1.76-.47-7-5.52-7.92a1.18,1.18,0,0,1-.92-.89v0a1.09,1.09,0,0,1,.41-1.07,2.84,2.84,0,0,0,1-3.69,4.17,4.17,0,0,0-3.23-2.45,1.09,1.09,0,0,1-.91-1.31C401.44,182.12,401.13,179.42,395,180.22Z" transform="translate(-25.88 -90.95)"/><rect class="cls-8" x="80.99" y="292.54" width="149.17" height="3.38"/><path class="cls-8" d="M257.9,397.82l-3.71-.24c1.69-26-1.39-117.57-2.38-145a7.44,7.44,0,0,0-7.4-7.14h-.1l-130.76,1.79a6.33,6.33,0,0,0-6.22,6.74c2.17,33.1,1.41,142.65,1.4,143.75l-3.72,0c0-1.1.77-110.51-1.39-143.48a10,10,0,0,1,9.88-10.7l130.76-1.79a11.19,11.19,0,0,1,11.27,10.72C256.52,279.92,259.61,371.63,257.9,397.82Z" transform="translate(-25.88 -90.95)"/><path class="cls-8" d="M84.53,408.36l-1.37-5a4.47,4.47,0,0,1,4.2-5.64l42.69-1.09a4,4,0,0,1,4.15,4.26l-.39,7.28a.92.92,0,0,1-.92.86h-.59a.91.91,0,0,1-.91-.91v-6.41a2.38,2.38,0,0,0-2.48-2.38L88.2,401.14a2.37,2.37,0,0,0-2.26,2.58l.38,4.32a.92.92,0,0,1-.91,1h0A.91.91,0,0,1,84.53,408.36Z" transform="translate(-25.88 -90.95)"/><circle class="cls-8" cx="59.85" cy="318.42" r="4.06"/><path class="cls-8" d="M87.76,409.37A2.37,2.37,0,1,1,85.39,407,2.38,2.38,0,0,1,87.76,409.37Z" transform="translate(-25.88 -90.95)"/><circle class="cls-8" cx="107.2" cy="318.42" r="4.06"/><path class="cls-8" d="M135.11,409.37a2.37,2.37,0,1,1-2.37-2.37A2.37,2.37,0,0,1,135.11,409.37Z" transform="translate(-25.88 -90.95)"/><path class="cls-8" d="M231.84,408.53l-1.36-5a4.47,4.47,0,0,1,4.19-5.64l42.7-1.09a4,4,0,0,1,4.14,4.26l-.39,7.28a.92.92,0,0,1-.91.86h-.59a.91.91,0,0,1-.91-.91v-6.41a2.38,2.38,0,0,0-2.49-2.38l-40.7,1.81a2.39,2.39,0,0,0-2.27,2.58l.38,4.32a.91.91,0,0,1-.91,1h0A.92.92,0,0,1,231.84,408.53Z" transform="translate(-25.88 -90.95)"/><circle class="cls-8" cx="233.04" cy="409.54" r="4.06" transform="translate(-217.87 522.01) rotate(-85.93)"/><path class="cls-8" d="M235.07,409.54a2.37,2.37,0,1,1-2.37-2.37A2.37,2.37,0,0,1,235.07,409.54Z" transform="translate(-25.88 -90.95)"/><path class="cls-8" d="M284.46,409.54a4.06,4.06,0,1,1-4.06-4.06A4.06,4.06,0,0,1,284.46,409.54Z" transform="translate(-25.88 -90.95)"/><path class="cls-8" d="M282.43,409.54a2.37,2.37,0,1,1-2.37-2.37A2.37,2.37,0,0,1,282.43,409.54Z" transform="translate(-25.88 -90.95)"/><rect class="cls-8" x="124.29" y="153.52" width="1.01" height="12.18"/><path class="cls-9" d="M140.52,308.57s16.24-3.05,28.76-1.36c0,0,5.41,20.76,7.77,31.14a4.41,4.41,0,0,1-4,5.37c-8.17.48-24.24,1.32-33.07,1.07a4.4,4.4,0,0,1-4.25-5C136.81,331.17,139.25,312.91,140.52,308.57Z" transform="translate(-25.88 -90.95)"/><path class="cls-17" d="M161.83,322.27a1.18,1.18,0,0,1-1.17-1.07c0-.16-1.59-16.28-3.68-32.66-3.17-25-5.19-32.12-6.12-34.16-.69,2.11-1.82,9.36-1.84,34.22,0,16.31.46,32.29.47,32.45a1.19,1.19,0,1,1-2.37.07c0-.17-.51-17-.46-33.84,0-9.88.23-17.81.61-23.56.71-10.75,1.87-11.94,3.1-12.27a1.69,1.69,0,0,1,1.4.27c.95.66,3.18,2.2,7.52,36.16C161.4,304.42,163,320.8,163,321a1.17,1.17,0,0,1-1.06,1.29Z" transform="translate(-25.88 -90.95)"/><path class="cls-10" d="M146.27,312.29H150l.3,9.88a.9.9,0,0,1-.9.94h-1.91a.9.9,0,0,1-.9-.88Z" transform="translate(-25.88 -90.95)"/><path class="cls-10" d="M159.13,311.61h3.38l.93,10.51a.91.91,0,0,1-.91,1H161a.91.91,0,0,1-.91-.83Z" transform="translate(-25.88 -90.95)"/><path class="cls-2" d="M102,258.16a66.6,66.6,0,0,1-3.31-7.68,9.26,9.26,0,0,1,2.91-10.31,53.51,53.51,0,0,1,5-3.56,9.62,9.62,0,0,1,11.7,1.17c1.85,1.76,3.84,3.59,5,4.49,0,0,18.64,0,28-5.54a1.35,1.35,0,0,1,2,1.16c0,3.4-1.12,9.7-8.68,14.19-10.82,6.42-19.28,13.19-24.35,20.63-4.77,7-20.9,16.08-29.28,13.21a1.34,1.34,0,0,1-.68-2C95.56,275.57,99.81,267,102,258.16Z" transform="translate(-25.88 -90.95)"/><path class="cls-7" d="M123.27,242.27c-.62-.47-1.47-1.2-2.4-2-5.47,9.46-19.32,14.13-20.51,14.51.9,2.07,1.6,3.41,1.6,3.41S118.2,253.09,123.27,242.27Z" transform="translate(-25.88 -90.95)"/><path class="cls-7" d="M209.19,260.19a1.35,1.35,0,0,1-.37-2.65c.55-.16,13.69-3.77,32.7-1.05a1.35,1.35,0,1,1-.38,2.68c-18.45-2.64-31.45.94-31.58,1A1.18,1.18,0,0,1,209.19,260.19Z" transform="translate(-25.88 -90.95)"/><path class="cls-7" d="M223.33,258.19a1.34,1.34,0,0,1-1.35-1.3s-.1-2.62-.1-5c0-1.33,1.08-2.52,2.44-4,2.8-3.08,3.7-4.62,2.05-6.14a3.52,3.52,0,0,0-2.78-1.16,5.39,5.39,0,0,0-3.19,2.17,1.35,1.35,0,1,1-2.23-1.53c.08-.12,2.06-3,5.1-3.32a6.12,6.12,0,0,1,4.94,1.85c3.88,3.59.28,7.57-1.88,9.95a10.54,10.54,0,0,0-1.75,2.23c0,2.31.1,4.83.1,4.86a1.35,1.35,0,0,1-1.3,1.4Z" transform="translate(-25.88 -90.95)"/><path class="cls-9" d="M213.27,256.12c4.91-.59,15.45-1.58,23.13-.41a1.79,1.79,0,0,1,1.42,2.38,15.57,15.57,0,0,0,.42,11.09,2.86,2.86,0,0,1,.15,1.78l-3.15,13.25-18.94,1-3.84-14.06a2.85,2.85,0,0,1,0-1.56c.53-1.78,1.57-6.52-.59-11A1.76,1.76,0,0,1,213.27,256.12Z" transform="translate(-25.88 -90.95)"/><path class="cls-9" d="M259.26,344.42s-7.11-37.21-23.35-59.19L216,285.9s-12.52,33.15-12.18,60.55c0,0,5.75,4.4,16.91,1.35s11.84-.33,18.95,1.36S259.26,344.42,259.26,344.42Z" transform="translate(-25.88 -90.95)"/><path class="cls-10" d="M215.55,282.51l.41,3.39s13.87,2,19.95-.67l-.32-3.18S222.05,283.87,215.55,282.51Z" transform="translate(-25.88 -90.95)"/><path class="cls-7" d="M184.16,255.12s.34-4.4,5.75-3.38,12.18,1.69,14.55,0,8.47-1.16,7.1,2.37C207.5,264.59,184.16,255.12,184.16,255.12Z" transform="translate(-25.88 -90.95)"/><path class="cls-18" d="M196.94,258.19a1.35,1.35,0,0,1-1.35-1.3s-.1-2.62-.1-5c0-1.33,1.08-2.52,2.45-4,2.79-3.08,3.7-4.62,2.05-6.14a3.56,3.56,0,0,0-2.79-1.16,5.39,5.39,0,0,0-3.18,2.17,1.36,1.36,0,0,1-2.24-1.53c.08-.12,2.06-3,5.1-3.32a6.12,6.12,0,0,1,4.94,1.85c3.89,3.59.28,7.57-1.88,9.95a10.76,10.76,0,0,0-1.74,2.23c0,2.31.09,4.83.1,4.86a1.36,1.36,0,0,1-1.3,1.4Z" transform="translate(-25.88 -90.95)"/><path class="cls-7" d="M188.56,362c.67-.34,23.34-.34,23.34-.34l-3.38-42.28-14.55.34Z" transform="translate(-25.88 -90.95)"/><polygon class="cls-7" points="164.37 227.43 182.64 227.43 183.31 170.6 157.27 170.94 164.37 227.43"/><path class="cls-7" d="M180.61,263.42c-2.34,7.08-6.42,28.28-2.54,56.31,0,0,2,1.69,5.08,0l1.35-59.2-.43.06A4.18,4.18,0,0,0,180.61,263.42Z" transform="translate(-25.88 -90.95)"/><path class="cls-7" d="M210.55,259.55c-.28.14,10.23,21.22,11.52,57.28a2.5,2.5,0,0,1-2.46,2.52,6.09,6.09,0,0,1-2.3-.3c-1.69-.67-8.79-54.8-8.79-54.8Z" transform="translate(-25.88 -90.95)"/><path class="cls-8" d="M183,260.62l4.87-.43s13.87,50.07,14.88,59.2c.83,7.46-7.13,32.27-10.08,41.13a5.66,5.66,0,0,1-6.1,3.86,5.92,5.92,0,0,1-2.08-.68S177.06,286.92,183,260.62Z" transform="translate(-25.88 -90.95)"/><path class="cls-8" d="M206.82,260.19l-6.2,58.13a13.09,13.09,0,0,0,.22,4.14c1.83,8.38,8.67,39.53,9.71,40.57s2.49.93,4,.69a4.16,4.16,0,0,0,3.47-4.11c0-10-.27-41.91-1.68-57.47-1.7-18.61-7.11-41.95-7.11-41.95Z" transform="translate(-25.88 -90.95)"/><path class="cls-9" d="M205.47,319.22a1.19,1.19,0,1,1-1.18-1.18A1.19,1.19,0,0,1,205.47,319.22Z" transform="translate(-25.88 -90.95)"/><path class="cls-7" d="M183.25,262.75s-2.81-1.54-1.12-7.29,6.77-1.35,11.16.34,12.52-2.37,14.89-3.72,6.09-1.36,6.09,8.11S192.83,276.47,183.25,262.75Z" transform="translate(-25.88 -90.95)"/><path class="cls-8" d="M369.33,412.77a1.09,1.09,0,0,0,1.1-1.09V281.22a1.1,1.1,0,1,0-2.19,0V411.68A1.09,1.09,0,0,0,369.33,412.77Z" transform="translate(-25.88 -90.95)"/><path class="cls-8" d="M398.91,412.77a1.09,1.09,0,0,0,1.09-1.09V281.22a1.09,1.09,0,1,0-2.18,0V411.68A1.09,1.09,0,0,0,398.91,412.77Z" transform="translate(-25.88 -90.95)"/><path class="cls-8" d="M471.58,413.6a1.1,1.1,0,0,0,1-1.52L416.77,280.79a1.09,1.09,0,0,0-1.43-.58,1.1,1.1,0,0,0-.58,1.43l55.82,131.29A1.08,1.08,0,0,0,471.58,413.6Z" transform="translate(-25.88 -90.95)"/><path class="cls-8" d="M437.11,413.6a1.06,1.06,0,0,0,.42-.09,1.09,1.09,0,0,0,.58-1.43L382.3,280.79a1.1,1.1,0,0,0-1.44-.58,1.09,1.09,0,0,0-.57,1.43L436.1,412.93A1.09,1.09,0,0,0,437.11,413.6Z" transform="translate(-25.88 -90.95)"/><rect class="cls-8" x="366.1" y="279.34" width="54.2" height="3.08" rx="1.54" transform="translate(760.53 470.81) rotate(180)"/><path class="cls-8" d="M389.72,302.38H424.3a1.09,1.09,0,0,0,0-2.18H389.72a1.09,1.09,0,0,0,0,2.18Z" transform="translate(-25.88 -90.95)"/><rect class="cls-8" x="374.46" y="234.08" width="34.58" height="2.18"/><rect class="cls-8" x="384.73" y="258.91" width="34.58" height="2.18"/><path class="cls-8" d="M421.38,376.87H456a1.09,1.09,0,1,0,0-2.18H421.38a1.09,1.09,0,1,0,0,2.18Z" transform="translate(-25.88 -90.95)"/><path class="cls-8" d="M431.79,401.7h34.58a1.09,1.09,0,0,0,0-2.18H431.79a1.09,1.09,0,0,0,0,2.18Z" transform="translate(-25.88 -90.95)"/><path class="cls-19" d="M361,347.2a16.78,16.78,0,0,0,4,2.9,32.73,32.73,0,0,1-7.26,6.46l-.9,2-2.88-3.44A15.66,15.66,0,0,0,361,347.2Z" transform="translate(-25.88 -90.95)"/><path class="cls-12" d="M345.54,412.62a1.11,1.11,0,0,1,0-.19c.94-3.7,5.56-6,5.56-6l1.84.14a12.73,12.73,0,0,1,.74,6.15s0,0,0,.07A43,43,0,0,1,345.54,412.62Z" transform="translate(-25.88 -90.95)"/><path class="cls-12" d="M353.69,412.79a.82.82,0,0,1-.59.59,25.1,25.1,0,0,1-7-.1.67.67,0,0,1-.56-.66A43,43,0,0,0,353.69,412.79Z" transform="translate(-25.88 -90.95)"/><path class="cls-20" d="M353.69,403.84l-.77,3.74a.6.6,0,0,1-.53.5,5.38,5.38,0,0,1-1.2,0,.78.78,0,0,1-.61-.91l.54-3.32Z" transform="translate(-25.88 -90.95)"/><path class="cls-12" d="M337.61,412.75a10.85,10.85,0,0,0,3.61-.51c0,.2,0,.4,0,.62a.4.4,0,0,1-.38.4l-11.12-.07a.5.5,0,0,1-.4-.74C330.76,412.57,334.48,412.84,337.61,412.75Z" transform="translate(-25.88 -90.95)"/><path class="cls-12" d="M329.31,412.45a.2.2,0,0,1,0-.08,14.14,14.14,0,0,1,8.42-5.29l2.37-.07a11.31,11.31,0,0,1,1.08,5.23,10.85,10.85,0,0,1-3.61.51C334.48,412.84,330.76,412.57,329.31,412.45Z" transform="translate(-25.88 -90.95)"/><path class="cls-21" d="M340.58,403.41c0,.18-.35,2.87-.47,3.91a.51.51,0,0,1-.44.46,5.6,5.6,0,0,1-1.63,0,.71.71,0,0,1-.53-.71v-4.21Z" transform="translate(-25.88 -90.95)"/><path class="cls-8" d="M342.48,354.41a211.33,211.33,0,0,0-5.61,49.07,1.07,1.07,0,0,0,.84,1,12.13,12.13,0,0,0,2.65.3,1,1,0,0,0,.94-.82c.8-4.7,5.4-31.18,8-35.48,0,0,1.72,23.59,1.17,35.82a.59.59,0,0,0,.51.61,10,10,0,0,0,2.13,0,.77.77,0,0,0,.69-.66c.57-4,3.86-27.66,3.72-44.72,0-1-2.54-5.14-2.54-5.14Z" transform="translate(-25.88 -90.95)"/><path class="cls-12" d="M334.53,328.11a23.67,23.67,0,0,0,2.42-3.69c.95-1.8.08,1.16.34-.87,7.11-5.13,17.82-2.53,22-2a5.53,5.53,0,0,1,3.5,1.88c3.55,4.1,11.34,15.35,2.17,26.68a16.78,16.78,0,0,1-4-2.9c1-2.86,1.09-6.51-1-11q-.12.53-.27,1.05A65,65,0,0,0,356.57,356a.6.6,0,0,1-.37.55c-3.86,1.55-11.28.63-13.77.26a.83.83,0,0,1-.7-1c1.22-8.86-5.06-23.44-6.71-27.09A2.45,2.45,0,0,0,334.53,328.11Z" transform="translate(-25.88 -90.95)"/><path class="cls-22" d="M352.59,314.08l.74,7.59s-4.27,1.29-7.38-.9l2.19-6.9Z" transform="translate(-25.88 -90.95)"/><path class="cls-23" d="M347.63,305.43c-.1.09-4.34,8.41-4.34,8.41l4.8,2.32,5.19-7.29S349.35,303.81,347.63,305.43Z" transform="translate(-25.88 -90.95)"/><path class="cls-12" d="M351.16,309.07a.81.81,0,0,1-.06.68l-2.4,4a.65.65,0,0,1-.13.16,1.25,1.25,0,0,1-2,0,6.82,6.82,0,0,0-1.89-2.05.78.78,0,0,0-1,.34,29.35,29.35,0,0,0-1.63,3.89.74.74,0,0,0,.44.93,21,21,0,0,0,4.6,1.35.78.78,0,0,0,.72-.31c.73-1,2.8-3.81,3.51-4.52s1.86-.4,2.41-.25a.77.77,0,0,0,.61-.08,1.68,1.68,0,0,0,.63-2.57.77.77,0,0,1,.24-1,1.69,1.69,0,0,0,.65-2.4,2.4,2.4,0,0,0-2.59-1.27.79.79,0,0,1-.83-.46.51.51,0,0,0-.4-.31.74.74,0,0,1-.6-.87A2,2,0,0,0,350.3,302c-2.07-1.14-3.89.72-4.35,2.28s1.86,2.68,3.31,2.86C350.33,307.3,350.92,308.46,351.16,309.07Z" transform="translate(-25.88 -90.95)"/><path class="cls-24" d="M350.37,315s.92-2.7,2.1-2.6,2.1,1.28.64,2.6C351.3,316.63,350.37,315,350.37,315Z" transform="translate(-25.88 -90.95)"/><path class="cls-12" d="M360.31,335.51a24,24,0,0,0,1-9.44l-.43.05a23.39,23.39,0,0,1-1,9.24Z" transform="translate(-25.88 -90.95)"/><path class="cls-12" d="M349.53,368a.22.22,0,0,0,.21-.17c.47-1.82,4-3.83,4.06-3.85a.22.22,0,0,0,.08-.3.21.21,0,0,0-.29-.08c-.16.09-3.75,2.12-4.27,4.13a.21.21,0,0,0,.16.26Z" transform="translate(-25.88 -90.95)"/><path class="cls-12" d="M320.1,330.5c8,1.21,13.28-3.87,17.19-6.95,5.16-4.06,9.17-2.08,9.17-2.08L341,332c-8.21,7.75-16.63,6-21.94,3.52A10.16,10.16,0,0,1,320.1,330.5Z" transform="translate(-25.88 -90.95)"/><path class="cls-25" d="M308.79,325.7l2.67,1.44a23.52,23.52,0,0,0,8.64,3.36,10.16,10.16,0,0,0-1.08,5,24.65,24.65,0,0,1-5.5-3.52C307.47,328.36,308.79,325.7,308.79,325.7Z" transform="translate(-25.88 -90.95)"/><path class="cls-26" d="M300.94,329.46a2,2,0,0,1,1.15-1.26L307.5,326s.08-.69-1.14-1.16a1.63,1.63,0,0,1-.94-1.85s1.67.77,4.12,2a5.77,5.77,0,0,1,2.61,2.84l-1.4,1.83a24.73,24.73,0,0,1-10.11.79Z" transform="translate(-25.88 -90.95)"/><path class="cls-12" d="M84.39,406.5s-.42,2.4-.63,4.77A1.63,1.63,0,0,0,85.32,413c3.16.13,9.92.39,12.34.28a.53.53,0,0,0,.47-.73h0a1.19,1.19,0,0,0-.61-.64l-11.16-5.13Z" transform="translate(-25.88 -90.95)"/><path class="cls-27" d="M84,405.09l.34,2.87s2,.91,3.29-.11l-.8-3.2Z" transform="translate(-25.88 -90.95)"/><path class="cls-8" d="M84.3,351.21c-.15.75-.79,37.35,3.12,53.75a.55.55,0,0,1-.32.65,9.65,9.65,0,0,1-3.19.65,1,1,0,0,1-1-.69c-1.12-3.81-6.48-22.87-7.18-41.09-.78-20.35,0-.69,0-.69l.46-12.58Z" transform="translate(-25.88 -90.95)"/><path class="cls-12" d="M71.55,407.75a17.35,17.35,0,0,0-1.32,4.43,1,1,0,0,0,.87,1.19c1.05.1,2.65.24,3.94.23a1,1,0,0,0,1-1.11,8.34,8.34,0,0,0-2-4.6Z" transform="translate(-25.88 -90.95)"/><path class="cls-28" d="M71,404.07l.8,4.33a2.81,2.81,0,0,0,2.34.16l-.38-4.66Z" transform="translate(-25.88 -90.95)"/><path class="cls-8" d="M68.81,352.33c-3.2,19.31.7,47.73,2,53.3a.85.85,0,0,0,.7.65,5.71,5.71,0,0,0,2.5-.1.8.8,0,0,0,.58-.73c.17-4.49-.14-32.1,2.84-43a2.51,2.51,0,0,1,1-1.37L84.18,357l.44-6.65Z" transform="translate(-25.88 -90.95)"/><path class="cls-2" d="M89.2,315.74A90,90,0,0,0,69,318.26c-2.85,16.68-.5,35.92-.5,35.92C76,356.12,84.33,353,84.33,353c1.24-7,7-26.6,7-26.6a31.53,31.53,0,0,0,11.73-3.72,20.52,20.52,0,0,1-4.07-8.5A32,32,0,0,1,89.2,315.74Z" transform="translate(-25.88 -90.95)"/><path class="cls-29" d="M117.53,301.62a1.83,1.83,0,0,0-2.13-.6c-1.42,6-8.81,10.79-16.42,13.15a20.52,20.52,0,0,0,4.07,8.5C115.66,315.58,117.53,301.62,117.53,301.62Z" transform="translate(-25.88 -90.95)"/><path class="cls-30" d="M117.3,301.91c.1.31-1,.79-1.71-.5,0-.61-.4-3.24,0-3.74a48.51,48.51,0,0,1,5.74-6,.91.91,0,0,1,.11,1.26l-1.83,1.91a9.16,9.16,0,0,1,1.07,2.12,2.58,2.58,0,0,1-.26,1.9,21.3,21.3,0,0,1-1.18,1.93A2.55,2.55,0,0,1,117.3,301.91Z" transform="translate(-25.88 -90.95)"/><path class="cls-31" d="M118.77,296.07l-1.67,1.42-.53,1.42,1.49,1.65a19.7,19.7,0,0,1,.88-3.41C119.31,296.54,119.12,296.25,118.77,296.07Z" transform="translate(-25.88 -90.95)"/><path class="cls-4" d="M72.71,327.54,69,318.26s-9,6.08-10.43,13.8a21.32,21.32,0,0,1,7.79,2.09C67.05,330.5,72.71,327.54,72.71,327.54Z" transform="translate(-25.88 -90.95)"/><path class="cls-32" d="M80.54,336.28s-10.06,5.69-13.45.83a3.8,3.8,0,0,1-.7-3,21.32,21.32,0,0,0-7.79-2.09,10.65,10.65,0,0,0,1.16,7.3c5.94,10.88,22.11-.6,22.11-.6Z" transform="translate(-25.88 -90.95)"/><path class="cls-12" d="M79.33,343.47l5.49-19.17a.57.57,0,0,1,.47-.4c1-.11,3.88-.44,7.21-.72a82.09,82.09,0,0,1,11.44-.38.57.57,0,0,1,.46.81c-1.59,3.2-8.09,16.21-11.35,20.47a.57.57,0,0,1-.45.23l-12.74-.12A.56.56,0,0,1,79.33,343.47Z" transform="translate(-25.88 -90.95)"/><path class="cls-4" d="M93.06,321.52l4-.67a.29.29,0,0,1,.32.38L97,322.42a.3.3,0,0,1-.24.19l-3.82.51a.28.28,0,0,1-.32-.34l.24-1A.29.29,0,0,1,93.06,321.52Z" transform="translate(-25.88 -90.95)"/><path class="cls-4" d="M90.08,324.89l.33-1.71a.41.41,0,0,1,.35-.32l8-.82a.4.4,0,0,1,.42.49l-.51,2.13a.39.39,0,0,1-.36.3l-7.86.39A.39.39,0,0,1,90.08,324.89Z" transform="translate(-25.88 -90.95)"/><path class="cls-33" d="M80.66,338.84s-.77-3.14-.46-4.26.91-2.55,2.9-2.23a29.23,29.23,0,0,1,4.34,1.16,1.14,1.14,0,0,1-1.63,1l.94.73s-.14,1.16-1.42.54l.88,1a1,1,0,0,1-1.49.35C83.78,336.45,83.32,339.22,80.66,338.84Z" transform="translate(-25.88 -90.95)"/><path class="cls-34" d="M79.49,308l-3,8.82a.31.31,0,0,0,.14.38,7.17,7.17,0,0,0,7.44-.5,1.47,1.47,0,0,0,.69-1.07l1-7.63Z" transform="translate(-25.88 -90.95)"/><path class="cls-35" d="M86.13,299.78s3.35,6.31,2.92,8.86-4.58,2.36-8.21.29l-2.53-6.81Z" transform="translate(-25.88 -90.95)"/><path class="cls-7" d="M81,305.59a.27.27,0,0,0,.12-.38,6.77,6.77,0,0,1-.94-2s-.6-.39,1.54-.9,5.32-1.3,6-3.12-1.07-6.23-3.8-2.68a.26.26,0,0,1-.41,0,2.67,2.67,0,0,0-3.27-1.06,2.45,2.45,0,0,0-1.68,2.37.26.26,0,0,1-.31.27,3,3,0,0,0-3.5,1.63c-.71,1.57-.25,2.46.18,2.89a.26.26,0,0,1-.12.43,1.58,1.58,0,0,0-1.1,1.78c.1,1.65,1.94,1.51,2.46,1.43a.26.26,0,0,1,.23.08c.45.5,2.48,2.61,4.68,2.87a.26.26,0,0,0,.27-.35l-1-2.76a.26.26,0,0,1,.14-.32Z" transform="translate(-25.88 -90.95)"/><path class="cls-36" d="M81.38,306s-2.38-1.63-2.56-.26,2.15,2,3.3,1.49Z" transform="translate(-25.88 -90.95)"/><path class="cls-12" d="M500.45,350.19H472.64v-.68c0-7.3,1.41-13.62,4.07-18.27,2.45-4.28,5.88-6.81,9.41-6.93s6.74,2,9.23,6.05c2.74,4.42,4.48,11,5,19.11ZM474,348.83h25c-.61-7.52-2.26-13.65-4.8-17.76-2.22-3.59-5.08-5.51-8-5.4C480.35,325.87,474.18,334.05,474,348.83Z" transform="translate(-25.88 -90.95)"/><path class="cls-8" d="M449.9,410l9.64-65.4,36.24-.59,11.68,69.63H453A3.17,3.17,0,0,1,449.9,410Z" transform="translate(-25.88 -90.95)"/><path class="cls-7" d="M502.82,344.56l-7-.59,11.68,69.63h7a2.23,2.23,0,0,0,2.18-2.69Z" transform="translate(-25.88 -90.95)"/><path class="cls-12" d="M492.55,350.64H464.73V350c0-7.3,1.41-13.62,4.07-18.27,2.45-4.28,5.88-6.8,9.41-6.93s6.75,2,9.23,6.05c2.74,4.42,4.49,11,5.05,19.11Zm-26.46-1.35h25c-.6-7.53-2.26-13.66-4.8-17.77-2.22-3.59-5.08-5.51-8-5.4C472.45,326.32,466.27,334.5,466.09,349.29Z" transform="translate(-25.88 -90.95)"/><path class="cls-12" d="M468.15,375.27H440.33v-.68c0-7.3,1.41-13.62,4.07-18.27,2.45-4.28,5.88-6.81,9.41-6.93s6.75,2,9.24,6.05c2.73,4.42,4.48,11,5.05,19.1Zm-26.46-1.36h25c-.6-7.53-2.26-13.66-4.8-17.76-2.22-3.59-5.07-5.51-8-5.41C448.05,351,441.88,359.13,441.69,373.91Z" transform="translate(-25.88 -90.95)"/><path class="cls-10" d="M418.45,410l9.65-40.09,36.23-.6L476,413.6H421.59A3.17,3.17,0,0,1,418.45,410Z" transform="translate(-25.88 -90.95)"/><path class="cls-10" d="M471.37,369.87l-7-.6L476,413.6h7a2.23,2.23,0,0,0,2.19-2.69Z" transform="translate(-25.88 -90.95)"/><path class="cls-12" d="M460.69,376.4H432.88v-.68c0-7.3,1.4-13.62,4.07-18.27,2.45-4.28,5.88-6.81,9.41-6.93s6.74,2,9.23,6.05c2.74,4.42,4.48,11,5.05,19.1ZM434.24,375h25c-.6-7.53-2.25-13.66-4.79-17.76-2.22-3.59-5.08-5.51-8-5.41C440.59,352.08,434.42,360.26,434.24,375Z" transform="translate(-25.88 -90.95)"/><path class="cls-37" d="M374.54,200l-.44,1.3a.47.47,0,0,1-.59.29.47.47,0,0,1-.3-.59h0l.45-1.29a.46.46,0,0,1,.59-.28A.46.46,0,0,1,374.54,200Z" transform="translate(-25.88 -90.95)"/><path class="cls-37" d="M373.06,204.37l-.44,1.3a.49.49,0,0,1-.63.3.48.48,0,0,1-.3-.62h0l.46-1.29a.48.48,0,0,1,.62-.3A.49.49,0,0,1,373.06,204.37Z" transform="translate(-25.88 -90.95)"/><path class="cls-37" d="M371.57,208.7l-.45,1.3a.51.51,0,0,1-.66.32.52.52,0,0,1-.32-.66h0l.47-1.29a.51.51,0,0,1,1,.34Z" transform="translate(-25.88 -90.95)"/><path class="cls-37" d="M370.06,213l-.46,1.3a.55.55,0,1,1-1-.37h0l.48-1.29a.53.53,0,0,1,.69-.31A.53.53,0,0,1,370.06,213Z" transform="translate(-25.88 -90.95)"/><path class="cls-37" d="M368.51,217.35l-.47,1.29a.56.56,0,0,1-.73.34.57.57,0,0,1-.35-.73h0l.48-1.28a.56.56,0,0,1,1.06.39Z" transform="translate(-25.88 -90.95)"/><path class="cls-37" d="M366.93,221.66l-.49,1.28a.6.6,0,0,1-1.12-.42h0l.5-1.28a.6.6,0,0,1,.77-.34A.61.61,0,0,1,366.93,221.66Z" transform="translate(-25.88 -90.95)"/><path class="cls-37" d="M365.29,225.94l-.5,1.28a.62.62,0,0,1-.81.36.63.63,0,0,1-.36-.81h0l.51-1.27a.63.63,0,0,1,.81-.35A.62.62,0,0,1,365.29,225.94Z" transform="translate(-25.88 -90.95)"/><path class="cls-37" d="M363.6,230.21l-.52,1.28a.65.65,0,1,1-1.21-.5h0l.54-1.27a.64.64,0,0,1,1.19.49Z" transform="translate(-25.88 -90.95)"/><path class="cls-37" d="M361.85,234.46l-.54,1.26a.68.68,0,0,1-.9.36.69.69,0,0,1-.36-.89h0l.55-1.26a.68.68,0,0,1,1.24.54Z" transform="translate(-25.88 -90.95)"/><path class="cls-37" d="M360,238.67l-.56,1.26a.71.71,0,1,1-1.29-.58h0l.58-1.25a.7.7,0,0,1,1.27.58Z" transform="translate(-25.88 -90.95)"/><path class="cls-37" d="M358.11,242.85l-.59,1.25a.73.73,0,1,1-1.31-.63h0l.6-1.24a.72.72,0,0,1,1.3.62Z" transform="translate(-25.88 -90.95)"/><path class="cls-37" d="M356.11,247l-.62,1.22a.74.74,0,0,1-1.32-.66h0l.62-1.23a.74.74,0,0,1,1.32.67Z" transform="translate(-25.88 -90.95)"/><path class="cls-37" d="M354,251.09l-.65,1.21a.75.75,0,1,1-1.33-.71h0l.66-1.21a.73.73,0,0,1,1-.3A.75.75,0,0,1,354,251.09Z" transform="translate(-25.88 -90.95)"/><path class="cls-37" d="M351.81,255.13l-.67,1.2a.77.77,0,0,1-1.35-.76h0l.68-1.19a.78.78,0,0,1,1-.28A.77.77,0,0,1,351.81,255.13Z" transform="translate(-25.88 -90.95)"/><path class="cls-37" d="M349.51,259.12l-.71,1.17a.79.79,0,0,1-1.35-.81h0l.72-1.17a.79.79,0,0,1,1.34.82Z" transform="translate(-25.88 -90.95)"/><path class="cls-37" d="M347.09,263l-.74,1.16a.8.8,0,1,1-1.35-.87h0l.75-1.15a.8.8,0,1,1,1.34.86Z" transform="translate(-25.88 -90.95)"/><path class="cls-37" d="M344.55,266.88l-.78,1.13a.82.82,0,1,1-1.34-.93h0l.79-1.13a.81.81,0,0,1,1.33.93Z" transform="translate(-25.88 -90.95)"/><path class="cls-37" d="M341.89,270.64l-.82,1.1a.83.83,0,0,1-1.34-1h0l.82-1.1a.83.83,0,0,1,1.33,1Z" transform="translate(-25.88 -90.95)"/><path class="cls-37" d="M339.09,274.31l-.86,1.07a.85.85,0,0,1-1.19.13.84.84,0,0,1-.13-1.19h0l.87-1.06a.84.84,0,0,1,1.18-.13A.85.85,0,0,1,339.09,274.31Z" transform="translate(-25.88 -90.95)"/><path class="cls-37" d="M336.15,277.86l-.9,1A.87.87,0,0,1,334,279a.86.86,0,0,1-.08-1.22h0l.91-1a.85.85,0,0,1,1.29,1.12Z" transform="translate(-25.88 -90.95)"/><path class="cls-37" d="M333.08,281.31l-.94,1a.88.88,0,0,1-1.28-1.2h0l.95-1a.87.87,0,0,1,1.27,1.2Z" transform="translate(-25.88 -90.95)"/><path class="cls-37" d="M329.87,284.63l-1,1a.89.89,0,0,1-1.26,0,.9.9,0,0,1,0-1.26h0l1-1a.9.9,0,0,1,1.26,0A.88.88,0,0,1,329.87,284.63Z" transform="translate(-25.88 -90.95)"/><path class="cls-37" d="M326.52,287.81l-1,.92a.88.88,0,0,1-1.26-.06.89.89,0,0,1,.07-1.26h0l1-.91a.89.89,0,0,1,1.26.07A.88.88,0,0,1,326.52,287.81Z" transform="translate(-25.88 -90.95)"/><path class="cls-37" d="M323,290.85l-1.06.88a.89.89,0,0,1-1.26-.12.9.9,0,0,1,.12-1.27h0l1.06-.87a.9.9,0,0,1,1.27.12A.89.89,0,0,1,323,290.85Z" transform="translate(-25.88 -90.95)"/><path class="cls-37" d="M319.43,293.74l-1.1.83a.9.9,0,0,1-1.26-.18.91.91,0,0,1,.18-1.27h0l1.1-.82a.9.9,0,1,1,1.08,1.44Z" transform="translate(-25.88 -90.95)"/><path class="cls-37" d="M315.69,296.46l-1.14.77a.91.91,0,0,1-1-1.5h0l1.14-.77a.91.91,0,0,1,1,1.5Z" transform="translate(-25.88 -90.95)"/><path class="cls-37" d="M311.82,299l-1.17.71a.92.92,0,0,1-1-1.56h0l1.17-.71a.91.91,0,0,1,1.26.3A.93.93,0,0,1,311.82,299Z" transform="translate(-25.88 -90.95)"/><path class="cls-37" d="M307.83,301.34l-1.21.65a.92.92,0,0,1-.88-1.62h0l1.21-.65a.92.92,0,1,1,.88,1.62Z" transform="translate(-25.88 -90.95)"/><path class="cls-37" d="M303.71,303.46l-1.24.59a.92.92,0,0,1-.79-1.67h0l1.24-.59a.92.92,0,0,1,1.23.45A.91.91,0,0,1,303.71,303.46Z" transform="translate(-25.88 -90.95)"/><path class="cls-37" d="M299.49,305.36l-1.28.52a.93.93,0,0,1-.7-1.73h0l1.27-.51a.93.93,0,1,1,.7,1.72Z" transform="translate(-25.88 -90.95)"/><path class="cls-37" d="M295.15,307l-1.3.44a.92.92,0,0,1-1.18-.58.93.93,0,0,1,.58-1.19h0l1.31-.44a.93.93,0,0,1,.59,1.77Z" transform="translate(-25.88 -90.95)"/><path class="cls-37" d="M290.73,308.4l-1.33.36a.94.94,0,0,1-.49-1.81h0l1.33-.36a.94.94,0,0,1,.49,1.81Z" transform="translate(-25.88 -90.95)"/><path class="cls-37" d="M286.22,309.52l-1.34.27a.94.94,0,1,1-.38-1.85h0l1.35-.27a.94.94,0,1,1,.37,1.85Z" transform="translate(-25.88 -90.95)"/><path class="cls-37" d="M281.66,310.34l-1.36.19a.95.95,0,1,1-.27-1.88h0l1.36-.19a.95.95,0,1,1,.26,1.88Z" transform="translate(-25.88 -90.95)"/><path class="cls-37" d="M277.05,310.88l-1.37.1a1,1,0,1,1-.15-1.9h0l1.37-.1a1,1,0,1,1,.15,1.9Z" transform="translate(-25.88 -90.95)"/><path class="cls-37" d="M272.42,311.14l-1.37,0a1,1,0,0,1,0-1.92h0l1.37,0a1,1,0,0,1,1,.95A1,1,0,0,1,272.42,311.14Z" transform="translate(-25.88 -90.95)"/><path class="cls-37" d="M267.79,311.14l-1.38,0a1,1,0,1,1,.07-1.93h0l1.37.05a1,1,0,1,1-.06,1.92Z" transform="translate(-25.88 -90.95)"/><path class="cls-37" d="M263.16,310.91l-1.36-.12a1,1,0,0,1,.16-1.92l1.37.11a1,1,0,0,1-.16,1.93Z" transform="translate(-25.88 -90.95)"/><path class="cls-37" d="M258.56,310.44l-1.36-.18a1,1,0,1,1,.25-1.9l1.36.18a.94.94,0,0,1,.83,1.07,1,1,0,0,1-1.07.83Z" transform="translate(-25.88 -90.95)"/><path class="cls-37" d="M254,309.78l-1.35-.24a1,1,0,0,1-.78-1.1,1,1,0,0,1,1.1-.78l1.35.23a1,1,0,0,1,.78,1.11,1,1,0,0,1-1.1.78Z" transform="translate(-25.88 -90.95)"/><path class="cls-37" d="M249.45,308.94l-1.34-.29a.94.94,0,1,1,.38-1.85l1.35.28a1,1,0,0,1,.74,1.12,1,1,0,0,1-1.13.74Z" transform="translate(-25.88 -90.95)"/><path class="cls-37" d="M245,307.93l-1.34-.32a.95.95,0,0,1,.45-1.84l1.34.33a1,1,0,0,1,.69,1.14.93.93,0,0,1-1.14.69Z" transform="translate(-25.88 -90.95)"/><path class="cls-37" d="M240.48,306.79l-1.32-.37a.94.94,0,0,1-.66-1.15,1,1,0,0,1,1.16-.66L241,305a.93.93,0,0,1,.66,1.15,1,1,0,0,1-1.16.66Z" transform="translate(-25.88 -90.95)"/><path class="cls-37" d="M236.05,305.52l-1.31-.4a.93.93,0,0,1,.54-1.79l1.32.4a.93.93,0,0,1-.54,1.79Z" transform="translate(-25.88 -90.95)"/><path class="cls-37" d="M231.66,304.14l-1.3-.43a.93.93,0,0,1-.59-1.17.92.92,0,0,1,1.16-.59l1.31.43a.93.93,0,0,1,.6,1.17.94.94,0,0,1-1.18.59Z" transform="translate(-25.88 -90.95)"/><path class="cls-37" d="M227.3,302.66l-1.3-.45a.92.92,0,1,1,.62-1.74l1.29.45h0a.93.93,0,0,1-.6,1.75Z" transform="translate(-25.88 -90.95)"/><path class="cls-37" d="M223,301.11l-1.29-.47a.93.93,0,0,1-.54-1.18.92.92,0,0,1,1.18-.54l1.29.47a.92.92,0,0,1-.63,1.72Z" transform="translate(-25.88 -90.95)"/><path class="cls-37" d="M218.67,299.51l-1.28-.49a.91.91,0,0,1,.64-1.71l1.29.49a.91.91,0,0,1,.53,1.18.93.93,0,0,1-1.18.53Z" transform="translate(-25.88 -90.95)"/><path class="cls-37" d="M214.39,297.86l-1.28-.49a.91.91,0,1,1,.65-1.69l1.28.49a.91.91,0,1,1-.65,1.69Z" transform="translate(-25.88 -90.95)"/><path class="cls-37" d="M210.12,296.2l-1.29-.49a.9.9,0,0,1,.65-1.68l1.29.49a.91.91,0,0,1-.65,1.69Z" transform="translate(-25.88 -90.95)"/><path class="cls-37" d="M205.85,294.55l-1.29-.5a.88.88,0,0,1-.51-1.15.9.9,0,0,1,1.15-.52l1.29.5a.89.89,0,0,1-.64,1.67Z" transform="translate(-25.88 -90.95)"/><path class="cls-37" d="M201.57,292.91l-1.28-.49a.89.89,0,0,1,.62-1.66l1.29.48a.9.9,0,0,1,.52,1.15.88.88,0,0,1-1.14.52Z" transform="translate(-25.88 -90.95)"/><path class="cls-37" d="M197.29,291.31l-1.29-.48a.87.87,0,1,1,.6-1.64l1.29.46a.88.88,0,0,1-.59,1.66Z" transform="translate(-25.88 -90.95)"/><path class="cls-37" d="M193,289.76l-1.29-.46a.86.86,0,0,1,.55-1.62l1.31.44a.87.87,0,0,1-.56,1.64Z" transform="translate(-25.88 -90.95)"/><path class="cls-37" d="M188.67,288.28l-1.31-.43a.84.84,0,0,1,.52-1.6l1.31.42a.84.84,0,1,1-.51,1.61Z" transform="translate(-25.88 -90.95)"/><path class="cls-37" d="M184.32,286.9l-1.31-.39a.82.82,0,1,1,.46-1.58l1.32.38a.84.84,0,0,1,.57,1,.83.83,0,0,1-1,.56Z" transform="translate(-25.88 -90.95)"/><path class="cls-37" d="M180,285.64l-1.33-.35a.81.81,0,0,1,.41-1.57l1.33.35a.81.81,0,1,1-.41,1.57Z" transform="translate(-25.88 -90.95)"/><path class="cls-37" d="M175.53,284.52l-1.34-.31a.8.8,0,0,1,.36-1.55l1.34.3a.79.79,0,0,1,.6,1,.81.81,0,0,1-1,.61Z" transform="translate(-25.88 -90.95)"/><path class="cls-37" d="M171.09,283.55l-1.35-.26a.77.77,0,1,1,.28-1.52l1.35.24a.78.78,0,0,1-.28,1.54Z" transform="translate(-25.88 -90.95)"/><path class="cls-37" d="M166.61,282.77l-1.36-.19a.76.76,0,0,1,.2-1.51l1.37.19a.76.76,0,0,1-.21,1.51Z" transform="translate(-25.88 -90.95)"/><path class="cls-37" d="M162.1,282.21l-1.37-.13a.74.74,0,0,1,.13-1.48l1.37.12a.74.74,0,0,1,.68.81.75.75,0,0,1-.81.68Z" transform="translate(-25.88 -90.95)"/><path class="cls-37" d="M157.57,281.86l-1.38-.05a.73.73,0,0,1-.69-.76.71.71,0,0,1,.75-.69l1.37,0a.74.74,0,0,1,.71.76.73.73,0,0,1-.76.7Z" transform="translate(-25.88 -90.95)"/><path class="cls-37" d="M153,281.76h-1.37a.72.72,0,0,1-.72-.7.7.7,0,0,1,.7-.71l1.37,0a.72.72,0,0,1,0,1.43Z" transform="translate(-25.88 -90.95)"/><path class="cls-37" d="M148.48,281.89l-1.37.09a.69.69,0,0,1-.72-.64.68.68,0,0,1,.62-.72l1.37-.1a.69.69,0,1,1,.11,1.37Z" transform="translate(-25.88 -90.95)"/><path class="cls-37" d="M144,282.28l-1.36.17a.65.65,0,0,1-.18-1.28l1.36-.19a.66.66,0,0,1,.75.56.65.65,0,0,1-.56.74Z" transform="translate(-25.88 -90.95)"/><path class="cls-37" d="M139.47,283l-1.35.26a.62.62,0,1,1-.24-1.21l1.34-.28a.63.63,0,1,1,.26,1.23Z" transform="translate(-25.88 -90.95)"/><path class="cls-37" d="M135,283.94l-1.33.36a.59.59,0,0,1-.31-1.14l1.32-.38a.6.6,0,0,1,.33,1.16Z" transform="translate(-25.88 -90.95)"/><path class="cls-37" d="M130.69,285.24l-1.29.46a.56.56,0,1,1-.38-1.05l1.28-.48a.57.57,0,0,1,.74.34.57.57,0,0,1-.34.73Z" transform="translate(-25.88 -90.95)"/><path class="cls-37" d="M126.47,286.89l-1.25.56a.53.53,0,0,1-.71-.26.53.53,0,0,1,.26-.7l1.24-.59a.54.54,0,0,1,.72.26.53.53,0,0,1-.26.72Z" transform="translate(-25.88 -90.95)"/><path class="cls-37" d="M122.4,288.88l-1.2.68a.5.5,0,1,1-.5-.87l1.19-.69a.51.51,0,1,1,.51.88Z" transform="translate(-25.88 -90.95)"/><path class="cls-37" d="M118.52,291.24l-1.13.78a.47.47,0,0,1-.66-.12.46.46,0,0,1,.12-.65l1.11-.8a.49.49,0,0,1,.57.79Z" transform="translate(-25.88 -90.95)"/><path class="cls-37" d="M359.5,214.5l-.65,1.21a.49.49,0,0,1-.65.19.48.48,0,0,1-.19-.65h0l.69-1.19a.46.46,0,0,1,.8.45Z" transform="translate(-25.88 -90.95)"/><path class="cls-37" d="M357.22,218.51l-.73,1.16a.53.53,0,0,1-.91-.56v0l.76-1.14a.51.51,0,0,1,.71-.15A.53.53,0,0,1,357.22,218.51Z" transform="translate(-25.88 -90.95)"/><path class="cls-37" d="M354.68,222.36l-.8,1.12a.58.58,0,0,1-.94-.68h0l.82-1.1a.57.57,0,0,1,.91.67Z" transform="translate(-25.88 -90.95)"/><path class="cls-37" d="M351.92,226.06l-.87,1.06a.63.63,0,1,1-1-.79h0l.88-1a.62.62,0,0,1,.87-.08A.63.63,0,0,1,351.92,226.06Z" transform="translate(-25.88 -90.95)"/><path class="cls-37" d="M348.93,229.58l-.92,1a.67.67,0,0,1-.95,0,.68.68,0,0,1,0-.95h0l.94-1a.66.66,0,0,1,1,.9Z" transform="translate(-25.88 -90.95)"/><path class="cls-37" d="M345.75,232.92l-1,1a.71.71,0,1,1-1-1h0l1-.94a.7.7,0,0,1,1,1Z" transform="translate(-25.88 -90.95)"/><path class="cls-37" d="M342.37,236.08l-1.05.9a.75.75,0,0,1-1-1.14h0l1-.89a.74.74,0,0,1,1,1.13Z" transform="translate(-25.88 -90.95)"/><path class="cls-37" d="M338.8,239l-1.09.84a.78.78,0,0,1-.95-1.24h0l1.1-.83a.77.77,0,0,1,.93,1.23Z" transform="translate(-25.88 -90.95)"/><path class="cls-37" d="M335.07,241.77l-1.14.77a.79.79,0,0,1-1.11-.21.8.8,0,0,1,.21-1.12h0l1.15-.76a.79.79,0,0,1,.88,1.32Z" transform="translate(-25.88 -90.95)"/><path class="cls-37" d="M331.19,244.3,330,245a.83.83,0,0,1-1.14-.28.84.84,0,0,1,.29-1.14h0l1.19-.69a.81.81,0,0,1,1.12.3A.82.82,0,0,1,331.19,244.3Z" transform="translate(-25.88 -90.95)"/><path class="cls-37" d="M327.17,246.6l-1.21.64a.86.86,0,0,1-.8-1.52h0l1.22-.63a.85.85,0,1,1,.78,1.51Z" transform="translate(-25.88 -90.95)"/><path class="cls-37" d="M323,248.67l-1.25.57a.89.89,0,0,1-1.17-.44.87.87,0,0,1,.43-1.17h0l1.26-.55a.88.88,0,0,1,.72,1.6Z" transform="translate(-25.88 -90.95)"/><path class="cls-37" d="M318.77,250.5l-1.28.49a.91.91,0,0,1-.66-1.7h0l1.29-.48a.9.9,0,0,1,1.16.53A.91.91,0,0,1,318.77,250.5Z" transform="translate(-25.88 -90.95)"/><path class="cls-37" d="M314.41,252.08l-1.31.41a.93.93,0,0,1-.56-1.78h0l1.32-.41a.93.93,0,0,1,1.16.61A.94.94,0,0,1,314.41,252.08Z" transform="translate(-25.88 -90.95)"/><path class="cls-37" d="M310,253.38l-1.33.33a.93.93,0,0,1-1.14-.68,1,1,0,0,1,.68-1.15h0l1.34-.33a.94.94,0,0,1,.45,1.83Z" transform="translate(-25.88 -90.95)"/><path class="cls-37" d="M305.44,254.41l-1.35.25a1,1,0,1,1-.35-1.87h0l1.36-.25a1,1,0,0,1,.34,1.87Z" transform="translate(-25.88 -90.95)"/><path class="cls-37" d="M300.86,255.16l-1.36.17a1,1,0,0,1-.24-1.91h0l1.36-.16a1,1,0,0,1,.23,1.9Z" transform="translate(-25.88 -90.95)"/><path class="cls-37" d="M296.24,255.62l-1.37.08a1,1,0,0,1-1-.91,1,1,0,0,1,.91-1h0l1.37-.08a1,1,0,1,1,.11,1.93Z" transform="translate(-25.88 -90.95)"/><path class="cls-37" d="M291.6,255.8h-1.37a1,1,0,0,1,0-2h1.38a1,1,0,0,1,0,2Z" transform="translate(-25.88 -90.95)"/><path class="cls-37" d="M287,255.69l-1.37-.08a1,1,0,0,1-.92-1.05,1,1,0,0,1,1.05-.92h0l1.37.09a1,1,0,1,1-.13,2Z" transform="translate(-25.88 -90.95)"/><path class="cls-37" d="M282.34,255.31l-1.36-.17a1,1,0,1,1,.24-2h0l1.37.17a1,1,0,0,1-.25,2Z" transform="translate(-25.88 -90.95)"/><path class="cls-37" d="M277.75,254.65l-1.35-.24a1,1,0,0,1,.36-2h0l1.35.25a1,1,0,1,1-.36,2Z" transform="translate(-25.88 -90.95)"/><path class="cls-37" d="M273.2,253.73l-1.33-.32a1,1,0,1,1,.47-2h0l1.33.33a1,1,0,1,1-.48,2Z" transform="translate(-25.88 -90.95)"/><path class="cls-37" d="M268.72,252.55l-1.32-.4a1,1,0,0,1,.59-2l1.32.4a1,1,0,0,1,.68,1.27,1,1,0,0,1-1.27.68Z" transform="translate(-25.88 -90.95)"/><path class="cls-37" d="M264.31,251.1l-1.3-.47a1,1,0,0,1,.7-1.9l1.3.47a1,1,0,0,1-.7,1.91Z" transform="translate(-25.88 -90.95)"/><path class="cls-37" d="M260,249.41l-1.27-.55a1,1,0,0,1-.52-1.32,1,1,0,0,1,1.32-.52l1.27.54a1,1,0,0,1,.52,1.33,1,1,0,0,1-1.32.52Z" transform="translate(-25.88 -90.95)"/><path class="cls-37" d="M255.77,247.47l-1.23-.62a1,1,0,0,1,.9-1.78l1.23.61a1,1,0,0,1,.45,1.35,1,1,0,0,1-1.35.44Z" transform="translate(-25.88 -90.95)"/><path class="cls-37" d="M251.67,245.3l-1.19-.69a1,1,0,0,1-.36-1.36,1,1,0,0,1,1.35-.36l1.2.68a1,1,0,0,1-1,1.73Z" transform="translate(-25.88 -90.95)"/><path class="cls-37" d="M247.7,242.89l-1.15-.75a1,1,0,0,1-.28-1.37,1,1,0,0,1,1.37-.29l1.15.76a1,1,0,0,1-1.09,1.65Z" transform="translate(-25.88 -90.95)"/><path class="cls-37" d="M243.88,240.26l-1.1-.82a1,1,0,0,1,1.17-1.58l1.11.82a1,1,0,1,1-1.18,1.58Z" transform="translate(-25.88 -90.95)"/><path class="cls-37" d="M240.22,237.41l-1.05-.89a1,1,0,1,1,1.26-1.49l1,.88a1,1,0,1,1-1.26,1.5Z" transform="translate(-25.88 -90.95)"/><path class="cls-37" d="M236.74,234.34l-1-1a1,1,0,1,1,1.34-1.4l1,.94a1,1,0,1,1-1.34,1.41Z" transform="translate(-25.88 -90.95)"/><path class="cls-37" d="M233.45,231.07l-.93-1a1,1,0,1,1,1.41-1.31l.94,1a1,1,0,1,1-1.42,1.32Z" transform="translate(-25.88 -90.95)"/><path class="cls-37" d="M230.37,227.6l-.87-1.06a1,1,0,1,1,1.48-1.22l.88,1.06a1,1,0,0,1-.13,1.35,1,1,0,0,1-1.36-.13Z" transform="translate(-25.88 -90.95)"/><path class="cls-37" d="M227.5,224l-.82-1.1a1,1,0,1,1,1.53-1.14l.82,1.1a1,1,0,0,1-.19,1.34,1,1,0,0,1-1.34-.2Z" transform="translate(-25.88 -90.95)"/><path class="cls-37" d="M224.8,220.22l-.77-1.14A.95.95,0,0,1,225.6,218l.78,1.14a1,1,0,0,1-1.58,1.07Z" transform="translate(-25.88 -90.95)"/><path class="cls-37" d="M222.26,216.37l-.74-1.16a.94.94,0,0,1,.29-1.3,1,1,0,0,1,1.31.29l.73,1.16a.94.94,0,1,1-1.59,1Z" transform="translate(-25.88 -90.95)"/><path class="cls-37" d="M219.83,212.46l-.71-1.18a.94.94,0,0,1,1.61-1l.71,1.18a.94.94,0,1,1-1.61,1Z" transform="translate(-25.88 -90.95)"/><path class="cls-37" d="M217.49,208.5l-.69-1.18a.94.94,0,1,1,1.62-.94l.69,1.19a.92.92,0,0,1-.34,1.27.94.94,0,0,1-1.28-.33Z" transform="translate(-25.88 -90.95)"/><path class="cls-37" d="M215.2,204.52l-.67-1.19a.92.92,0,0,1,.34-1.26.93.93,0,0,1,1.26.34l.69,1.19a.94.94,0,0,1-.34,1.27.93.93,0,0,1-1.27-.34Z" transform="translate(-25.88 -90.95)"/><path class="cls-37" d="M212.94,200.54l-.68-1.2a.91.91,0,0,1,.34-1.23.9.9,0,0,1,1.23.33l.69,1.19a.91.91,0,1,1-1.57.92Z" transform="translate(-25.88 -90.95)"/><path class="cls-37" d="M210.67,196.57l-.7-1.19a.89.89,0,0,1,1.54-.9l.7,1.18a.9.9,0,0,1-1.54.92Z" transform="translate(-25.88 -90.95)"/><path class="cls-37" d="M208.34,192.64l-.72-1.17a.88.88,0,0,1,1.49-.92l.72,1.17a.88.88,0,0,1-.28,1.21.89.89,0,0,1-1.21-.28Z" transform="translate(-25.88 -90.95)"/><path class="cls-37" d="M205.93,188.78l-.75-1.16a.86.86,0,0,1,1.43-.94l.76,1.15a.86.86,0,0,1-.25,1.19.85.85,0,0,1-1.19-.24Z" transform="translate(-25.88 -90.95)"/><path class="cls-37" d="M203.4,185l-.8-1.12a.85.85,0,0,1,.21-1.17.83.83,0,0,1,1.16.2l.8,1.12a.84.84,0,0,1-1.37,1Z" transform="translate(-25.88 -90.95)"/><path class="cls-37" d="M200.72,181.32l-.84-1.09a.82.82,0,0,1,1.3-1l.85,1.08a.83.83,0,0,1-1.3,1Z" transform="translate(-25.88 -90.95)"/><path class="cls-37" d="M197.88,177.78l-.89-1.05a.8.8,0,0,1,.08-1.13.8.8,0,0,1,1.13.08l.91,1a.82.82,0,0,1-.08,1.15.81.81,0,0,1-1.14-.08Z" transform="translate(-25.88 -90.95)"/><path class="cls-37" d="M194.86,174.4l-1-1a.79.79,0,1,1,1.12-1.11l1,1a.8.8,0,0,1-1.13,1.12Z" transform="translate(-25.88 -90.95)"/><path class="cls-37" d="M191.62,171.24l-1-.92a.77.77,0,0,1-.06-1.09.78.78,0,0,1,1.09-.06l1,.9a.79.79,0,0,1,.07,1.1.78.78,0,0,1-1.1.07Z" transform="translate(-25.88 -90.95)"/><path class="cls-37" d="M188.16,168.33l-1.09-.83a.75.75,0,0,1,.9-1.21l1.11.82a.76.76,0,0,1,.15,1.06.75.75,0,0,1-1.06.16Z" transform="translate(-25.88 -90.95)"/><path class="cls-37" d="M184.48,165.72l-1.17-.73a.74.74,0,0,1,.78-1.26l1.17.72a.76.76,0,0,1,.25,1,.75.75,0,0,1-1,.24Z" transform="translate(-25.88 -90.95)"/><path class="cls-37" d="M180.58,163.46l-1.23-.6a.71.71,0,0,1,.61-1.28l1.25.58a.72.72,0,0,1-.62,1.31Z" transform="translate(-25.88 -90.95)"/><path class="cls-37" d="M176.46,161.65l-1.29-.46a.68.68,0,1,1,.44-1.28l1.3.44a.69.69,0,1,1-.44,1.3Z" transform="translate(-25.88 -90.95)"/><path class="cls-37" d="M172.16,160.32l-1.34-.3a.66.66,0,0,1,.28-1.28l1.34.29a.66.66,0,1,1-.27,1.29Z" transform="translate(-25.88 -90.95)"/><path class="cls-37" d="M167.73,159.49l-1.37-.15a.62.62,0,0,1,.13-1.23l1.37.13a.63.63,0,1,1-.12,1.25Z" transform="translate(-25.88 -90.95)"/><path class="cls-37" d="M163.23,159.19l-1.37,0a.6.6,0,0,1,0-1.19l1.38,0a.6.6,0,0,1,.62.58.61.61,0,0,1-.59.62Z" transform="translate(-25.88 -90.95)"/><path class="cls-37" d="M158.74,159.45l-1.36.2a.56.56,0,1,1-.17-1.11l1.35-.22a.57.57,0,1,1,.18,1.13Z" transform="translate(-25.88 -90.95)"/><path class="cls-37" d="M154.32,160.32l-1.31.4a.53.53,0,0,1-.66-.36.52.52,0,0,1,.35-.66l1.31-.41a.54.54,0,0,1,.68.35.55.55,0,0,1-.36.68Z" transform="translate(-25.88 -90.95)"/><path class="cls-37" d="M150.1,161.84l-1.24.61a.51.51,0,0,1-.44-.91l1.22-.61a.51.51,0,1,1,.46.91Z" transform="translate(-25.88 -90.95)"/><path class="cls-37" d="M146.18,164.05l-1.11.8a.47.47,0,0,1-.66-.1.48.48,0,0,1,.1-.66l1.1-.82a.48.48,0,1,1,.58.77Z" transform="translate(-25.88 -90.95)"/></svg>