<svg id="Слой_1" data-name="Слой 1" xmlns="http://www.w3.org/2000/svg" xmlns:xlink="http://www.w3.org/1999/xlink" viewBox="0 0 535.72 411.7"><defs><style>.cls-1{fill:none;}.cls-2{fill:#c0ddb9;}.cls-3{clip-path:url(#clip-path);}.cls-4{fill:#00602f;}.cls-5{fill:#d5e29e;}.cls-6{fill:#a6ca8d;}.cls-7{fill:#64b265;}.cls-8{fill:#3f4e6c;}.cls-9{fill:#a34061;}.cls-10{fill:#fff;}.cls-11{fill:#427576;}.cls-12{fill:#509c7b;}.cls-13{fill:#435377;}.cls-14{fill:#797e9c;}.cls-15{fill:#97a5b3;}.cls-16{fill:#a88c7c;}.cls-17{fill:#c4a489;}.cls-18{fill:#d0c1ad;}.cls-19{fill:#cce3c2;}.cls-20{fill:#48284f;}.cls-21{fill:#f5a490;}.cls-22{fill:#fac9ae;}.cls-23{fill:#f18412;}.cls-24{fill:#a25116;}.cls-25{fill:#6b3f2c;}.cls-26{fill:#fbbf69;}.cls-27{fill:#f2906c;}.cls-28{fill:#362722;}.cls-29{fill:#d46c67;}.cls-30{fill:#a13e4c;}</style><clipPath id="clip-path" transform="translate(-18.24 -84.12)"><rect class="cls-1" x="163.64" y="367.39" width="244.92" height="96.58" transform="translate(572.2 831.35) rotate(180)"/></clipPath></defs><path class="cls-2" d="M496.37,464H58.51C33,412.29,20.55,353.84,18.42,296.25c-.92-24.64,1.26-51.6,17.89-69.82,13.61-14.92,34.15-20.94,51.47-31.34,25.46-15.28,43.64-39.84,63.39-62s43.56-43.41,72.89-48c36.8-5.77,72,15.91,101.09,39.19s57.92,50.08,94.42,57.49c18.36,3.73,37.55,2.22,55.74,6.69,34.16,8.38,60.76,37.75,71.72,71.17s7.92,70.17-2.16,103.86S513,433,496.37,464Z" transform="translate(-18.24 -84.12)"/><path class="cls-2" d="M448,174c10.27.68,20.94-.09,30.18-4.62s16.83-13.42,17.61-23.69c.94-12.31-7.69-23.35-17.34-31a95.75,95.75,0,0,0-83.08-17.26c-21.28,5.72-37.65,28.32-18.86,46.27S422.3,172.26,448,174Z" transform="translate(-18.24 -84.12)"/><path class="cls-2" d="M91.21,174.82c-7.23,3.78-16,5.94-23.52,2.79-9.8-4.12-14.24-16.36-12.23-26.8s9-19.19,16.79-26.46c12-11.19,50.43-30.65,57-3.26C134,140.66,106.34,166.91,91.21,174.82Z" transform="translate(-18.24 -84.12)"/><g class="cls-3"><path class="cls-4" d="M371.36,471.67a86.53,86.53,0,0,1-19.23,8l-2.3.63c-.76.19-1.52.35-2.26.51-1.5.31-2.94.61-4.36.81a58.14,58.14,0,0,1-8,.67c-9.9.12-16.23-2.64-17-6.7s3.68-8.84,10.77-13.86c1.79-1.21,3.71-2.58,5.8-3.85,1.05-.65,2.11-1.36,3.22-2l1.68-1,1.72-1.05c4.65-2.76,9.74-5.63,15.07-8.65s10-5.59,14.13-7.58a64.39,64.39,0,0,1,10.94-4.41,25.13,25.13,0,0,1,4.48-.89,15.45,15.45,0,0,1,3.84,0,9.33,9.33,0,0,1,5.75,2.74,8.39,8.39,0,0,1,2.28,5.94,14.8,14.8,0,0,1-.57,4,24.47,24.47,0,0,1-1.94,4.63,44.43,44.43,0,0,1-8.46,10.73A78.77,78.77,0,0,1,371.36,471.67Z" transform="translate(-18.24 -84.12)"/><path class="cls-2" d="M394.87,435.7h0a220.6,220.6,0,0,1-36.28,23.93,207.84,207.84,0,0,1-21,9.47c-6.91,2.67-13.54,4.79-19.35,6.52h0a118.68,118.68,0,0,0,20.08-4.42A133.2,133.2,0,0,0,360,462.25C374.2,454.93,386.81,444.75,394.87,435.7Z" transform="translate(-18.24 -84.12)"/><path class="cls-5" d="M333.23,451.06h0a28.47,28.47,0,0,0,10.7,1.09,37.4,37.4,0,0,0,6.18-1.13,39.16,39.16,0,0,0,17.31-10.49c.78-.81,1.54-1.63,2.23-2.48s1.3-1.73,1.88-2.6a28.84,28.84,0,0,0,2.9-5.19h0l-2.09,1.82-2.26,1.83c-1.55,1.22-3.07,2.51-4.8,3.67s-3.4,2.35-5.19,3.44-3.65,2.08-5.48,3a75.6,75.6,0,0,1-11.19,4.44C339.83,449.68,336.26,450.36,333.23,451.06Z" transform="translate(-18.24 -84.12)"/><path class="cls-5" d="M326.41,456.91h0a23.66,23.66,0,0,0,8.95,2.91,29.94,29.94,0,0,0,5.48.16,30.39,30.39,0,0,0,5.72-1c1-.25,1.92-.54,2.88-.88s1.85-.75,2.75-1.18a32.68,32.68,0,0,0,5.17-3,39.85,39.85,0,0,0,4.36-3.7,33.29,33.29,0,0,0,3.29-4h0l-4.28,2.44c-1.49.82-3.1,1.58-4.71,2.34-.81.38-1.62.75-2.44,1.1s-1.7.66-2.55,1c-1.72.62-3.44,1.19-5.15,1.68s-3.51.83-5.22,1.15c-.86.16-1.7.3-2.54.43s-1.7.19-2.53.26c-1.66.16-3.25.25-4.77.31S327.79,456.92,326.41,456.91Z" transform="translate(-18.24 -84.12)"/><path class="cls-5" d="M320.06,462.26h0a18.66,18.66,0,0,0,6,3.17,23.81,23.81,0,0,0,3.83.87,25.17,25.17,0,0,0,4.09.13,27.45,27.45,0,0,0,4.21-.56,28,28,0,0,0,4-1.32,21.58,21.58,0,0,0,6.47-4.08h0a63.66,63.66,0,0,1-14.54,2.82,53.84,53.84,0,0,1-7.44-.11C324.24,462.94,322,462.6,320.06,462.26Z" transform="translate(-18.24 -84.12)"/><path class="cls-5" d="M340.49,443.7h0a28.19,28.19,0,0,0,9.87-1.09,34.94,34.94,0,0,0,5.36-2c.9-.42,1.81-.88,2.69-1.38s1.73-1.06,2.58-1.65a36.16,36.16,0,0,0,4.84-3.89,40.24,40.24,0,0,0,4.16-4.54,47.65,47.65,0,0,0,3.27-4.87,41.17,41.17,0,0,0,2.21-4.86h0a155.24,155.24,0,0,1-16.93,14C352.34,437.8,345.68,441.06,340.49,443.7Z" transform="translate(-18.24 -84.12)"/><path class="cls-5" d="M348.22,434.71h0c4.94-.6,11-3.63,15.95-8.51a33.31,33.31,0,0,0,9.2-16.75h0c-3.52,4.1-7.51,9.2-12.07,13.64l-1.66,1.67c-.56.55-1.16,1.07-1.73,1.6l-3.37,3-3.3,2.77-1.52,1.32Z" transform="translate(-18.24 -84.12)"/><path class="cls-5" d="M353.7,424.68h0a18.81,18.81,0,0,0,3.31-1.4,27.28,27.28,0,0,0,3.33-2.2,28.82,28.82,0,0,0,6.05-6.42,31.15,31.15,0,0,0,2.27-4c.33-.68.64-1.37.93-2.06s.49-1.39.69-2.09a31,31,0,0,0,.94-4.08,22.25,22.25,0,0,0,.16-3.77h0c-.59,1-1.18,2.1-1.8,3.22l-2,3.42c-1.3,2.35-2.91,4.69-4.41,7C360,417,356.51,421.19,353.7,424.68Z" transform="translate(-18.24 -84.12)"/><path class="cls-5" d="M333.14,451h0a47,47,0,0,1-1.93-10.32,54.05,54.05,0,0,1-.27-5.69c0-1.88,0-3.85.2-5.68s.36-3.7.69-5.44.68-3.42,1.14-5c.22-.79.49-1.53.75-2.27s.51-1.46.8-2.14a39.75,39.75,0,0,1,1.91-3.7h0c0,.68.08,1.39.09,2.11s0,1.45,0,2.2c0,1.5,0,3.13-.12,4.73s-.17,3.34-.26,5.07-.27,3.48-.39,5.29c-.32,3.53-.59,7.24-1.05,10.75S333.72,447.82,333.14,451Z" transform="translate(-18.24 -84.12)"/><path class="cls-5" d="M326.7,457.25h0a38.39,38.39,0,0,1-2.05-9,42.39,42.39,0,0,1-.3-5.05c0-1.68,0-3.43.17-5.08.07-.83.17-1.65.3-2.44s.22-1.63.37-2.41a45,45,0,0,1,1.13-4.41,23.28,23.28,0,0,1,1.54-3.84,18.17,18.17,0,0,1,1.83-3.18h0c-.05,1.21-.1,2.49-.15,3.82s-.21,2.69-.31,4.14l-.15,2.22c-.07.74-.14,1.48-.21,2.24-.13,1.51-.25,3.07-.36,4.67s-.29,3.13-.41,4.73l-.18,2.4c-.07.78-.15,1.55-.23,2.33-.14,1.56-.29,3.11-.43,4.6S326.9,455.87,326.7,457.25Z" transform="translate(-18.24 -84.12)"/><path class="cls-5" d="M320.06,462.26h0a24.69,24.69,0,0,1-1.55-6.55,30.11,30.11,0,0,1-.16-3.69,31.3,31.3,0,0,1,.2-3.77,28.23,28.23,0,0,1,.64-3.57,23.93,23.93,0,0,1,.95-3.32,20.46,20.46,0,0,1,2.76-5.16h0c-.32,3.6-1,8-1.49,12.66-.29,2.28-.46,4.67-.67,6.95S320.27,460.28,320.06,462.26Z" transform="translate(-18.24 -84.12)"/><path class="cls-5" d="M339.82,443.14h0a52.25,52.25,0,0,1-1.38-9.51c-.08-1.69-.18-3.48-.14-5.22,0-.87.05-1.73.09-2.59s.07-1.76.14-2.62c.13-1.72.39-3.37.6-5s.63-3.18.95-4.7a30.71,30.71,0,0,1,1.29-4.22,21.87,21.87,0,0,1,1.54-3.66h0c.81,5.13.73,11.6.23,18.34A92.83,92.83,0,0,1,339.82,443.14Z" transform="translate(-18.24 -84.12)"/><path class="cls-5" d="M346.38,433.44h0a49.86,49.86,0,0,1-.58-16.87c.78-5.83,2.35-11.33,4.69-15.13h0a75.12,75.12,0,0,1-.6,15.83l-.27,2.16c-.1.72-.24,1.42-.35,2.13-.26,1.43-.52,2.84-.76,4.22s-.65,2.69-1,4c-.18.64-.35,1.28-.52,1.9S346.58,432.87,346.38,433.44Z" transform="translate(-18.24 -84.12)"/><path class="cls-5" d="M352.91,424.24h0a26.75,26.75,0,0,1-.6-3.46A31.63,31.63,0,0,1,352,417a43,43,0,0,1,.59-8,36.14,36.14,0,0,1,.79-3.94c.18-.63.37-1.26.58-1.87s.37-1.23.59-1.82A24.77,24.77,0,0,1,356,398a19.48,19.48,0,0,1,1.65-2.89h0c0,1.05,0,2.17,0,3.33s-.16,2.35-.26,3.58c-.15,2.5-.63,5-1,7.66A81.16,81.16,0,0,1,352.91,424.24Z" transform="translate(-18.24 -84.12)"/><path class="cls-5" d="M366.38,388.35h0a138.6,138.6,0,0,0-5.45,14.41c-.79,2.64-1.73,5.22-2.38,7.76a71,71,0,0,0-1.78,7.07h0a38.72,38.72,0,0,0,4.1-6.12,48.89,48.89,0,0,0,3.23-7.67A42.26,42.26,0,0,0,366.38,388.35Z" transform="translate(-18.24 -84.12)"/><path class="cls-6" d="M360.23,409.94h0a172.27,172.27,0,0,1-19.74,30.78A167.45,167.45,0,0,1,327.33,455c-4.49,4.33-9,8-13,11.27h0a89.59,89.59,0,0,0,14.46-9.62,102.11,102.11,0,0,0,14-14.05C351.35,432.09,357.49,419.79,360.23,409.94Z" transform="translate(-18.24 -84.12)"/><path class="cls-4" d="M213.71,435.16c12.25,6.06,22,14,27.7,21.16s7.66,13.32,5.22,16.42-8.68,2.78-16.76.37-18.17-6.79-29-12.13-18.39-9.88-23.08-14.3a23.59,23.59,0,0,1-3-3.27,14.43,14.43,0,0,1-1.87-3.17,8.73,8.73,0,0,1-.43-6,8.11,8.11,0,0,1,3.83-4.67,14.77,14.77,0,0,1,3.54-1.44,24.31,24.31,0,0,1,4.64-.66C191.48,427.12,201.46,429.12,213.71,435.16Z" transform="translate(-18.24 -84.12)"/><path class="cls-2" d="M173.46,434.5h0a401.76,401.76,0,0,1,37.65,17.08,413.09,413.09,0,0,1,35.52,21.16h0a148.65,148.65,0,0,0-15.24-12.13,174.22,174.22,0,0,0-19-11.52A163.11,163.11,0,0,0,173.46,434.5Z" transform="translate(-18.24 -84.12)"/><path class="cls-7" d="M333.47,410.86h0A86.53,86.53,0,0,0,313.73,424a72.62,72.62,0,0,0-22.24,36.68,86.57,86.57,0,0,0-2.54,23.6h0a48.08,48.08,0,0,0,23.8-7.13,53.93,53.93,0,0,0,25.41-41.92A48.06,48.06,0,0,0,333.47,410.86Z" transform="translate(-18.24 -84.12)"/><path class="cls-2" d="M326.77,459.33a.41.41,0,0,0,.13-.53.36.36,0,0,0-.51-.11A24.06,24.06,0,0,1,322,461a24.77,24.77,0,0,1-4.69,1.29,22.29,22.29,0,0,1-9.48-.48l1.79-2.55,1.72-2.6c1.17-1.72,2.25-3.49,3.35-5.25a24.78,24.78,0,0,0,10.14-1.62,25.89,25.89,0,0,0,8.87-5.74.39.39,0,0,0,0-.54.36.36,0,0,0-.52,0,25.46,25.46,0,0,1-8.43,5.51,24.4,24.4,0,0,1-9.64,1.67,202,202,0,0,0,9.66-17.78h0a17.51,17.51,0,0,0,5.91-2.07,17.84,17.84,0,0,0,4.92-4,.38.38,0,0,0,0-.53.35.35,0,0,0-.51,0,18.74,18.74,0,0,1-2.1,2.08,18.26,18.26,0,0,1-2.42,1.67,16.67,16.67,0,0,1-5.4,2c2.19-4.65,4.26-9.36,6.08-14.17a.36.36,0,1,0-.68-.26c-2.1,5.49-4.45,10.89-7,16.16a20.46,20.46,0,0,1-1.92-5.36,18.9,18.9,0,0,1-.38-5.6.37.37,0,0,0-.34-.38.34.34,0,0,0-.38.31,19.36,19.36,0,0,0,.44,6.05,20.68,20.68,0,0,0,2.17,5.78h0c-2.38,4.74-4.86,9.43-7.61,14a30.71,30.71,0,0,1-3.9-18.3.37.37,0,0,0-.32-.4.34.34,0,0,0-.4.29,31.64,31.64,0,0,0,4.2,19.13c-2.71,4.43-5.52,8.8-8.55,13a27.88,27.88,0,0,1-4.82-17.59.38.38,0,0,0-.33-.39.34.34,0,0,0-.38.3,27.88,27.88,0,0,0,1,9.44,28.29,28.29,0,0,0,4.12,8.87l-3.63,4.9c-1.27,1.59-2.49,3.22-3.79,4.78a20,20,0,0,1-3.88-10.83.37.37,0,0,0-.37-.35.34.34,0,0,0-.35.34,21,21,0,0,0,4.12,11.42c-2.19,2.68-4.47,5.29-6.8,7.85a.36.36,0,0,0,0,.51.37.37,0,0,0,.52,0c1.47-1.56,2.84-3.21,4.26-4.81s2.75-3.28,4.1-4.95a17.66,17.66,0,0,0,12.29,1,.39.39,0,0,0,.27-.46.34.34,0,0,0-.44-.26,17,17,0,0,1-11.65-.87c2.27-2.87,4.48-5.79,6.59-8.78A23.22,23.22,0,0,0,326.77,459.33Z" transform="translate(-18.24 -84.12)"/><path class="cls-7" d="M249.91,431.6a88.06,88.06,0,0,1,12.38,16.7A66.24,66.24,0,0,1,268.93,464c2.54,9.55,1.45,16.36-2.28,18.16s-9.49-1.36-16.12-7c-3.3-2.85-6.92-6.31-10.75-10.16s-7.84-8.14-12.07-12.62-7.83-8.4-10.75-12a64.7,64.7,0,0,1-6.86-9.65,26.64,26.64,0,0,1-1.91-4.17,15.29,15.29,0,0,1-.9-3.73,9.4,9.4,0,0,1,1.35-6.24,8.49,8.49,0,0,1,5.27-3.58,15,15,0,0,1,4.05-.37,25,25,0,0,1,4.95.81,45.57,45.57,0,0,1,12.38,5.72A80.73,80.73,0,0,1,249.91,431.6Z" transform="translate(-18.24 -84.12)"/><path class="cls-2" d="M209.46,417.17h0a232.37,232.37,0,0,1,31.78,29.7A220.13,220.13,0,0,1,255.54,465c4.28,6.05,8,12,11.11,17.16h0a122.12,122.12,0,0,0-9.25-18.38,137.47,137.47,0,0,0-13.93-18.89A129.6,129.6,0,0,0,209.46,417.17Z" transform="translate(-18.24 -84.12)"/><path class="cls-5" d="M243.36,434.17h0A44.42,44.42,0,0,0,246.23,424a52.62,52.62,0,0,0,.68-5.76c.11-1.93.21-3.92.13-5.83s-.19-3.84-.45-5.66-.57-3.59-1-5.26c-.21-.83-.46-1.63-.71-2.41s-.5-1.55-.78-2.27a35.85,35.85,0,0,0-1.9-4h0c0,.71-.09,1.45-.11,2.19s0,1.52,0,2.3c0,1.56-.05,3.23,0,4.91s.06,3.45.09,5.23.12,3.59.15,5.44c.13,3.64.17,7.41.35,11S243.07,431,243.36,434.17Z" transform="translate(-18.24 -84.12)"/><path class="cls-5" d="M249.1,441.15h0a36.14,36.14,0,0,0,3.05-8.8,40.53,40.53,0,0,0,.79-5.07,47.76,47.76,0,0,0,.25-5.2c0-.85-.05-1.7-.12-2.53s-.12-1.69-.22-2.5a40.71,40.71,0,0,0-.88-4.67,25.51,25.51,0,0,0-1.38-4.12,20.69,20.69,0,0,0-1.74-3.46h0v4c0,1.38.07,2.82.1,4.31,0,3,.18,6.12.14,9.39,0,1.6,0,3.22,0,4.85,0,.81,0,1.62,0,2.43v2.38c0,1.59,0,3.16,0,4.67S249.06,439.76,249.1,441.15Z" transform="translate(-18.24 -84.12)"/><path class="cls-5" d="M255.08,447h0a24,24,0,0,0,2.41-6.33,29.28,29.28,0,0,0,.61-3.69,30.74,30.74,0,0,0,.22-3.83,28,28,0,0,0-.28-3.71,26,26,0,0,0-.66-3.49,21,21,0,0,0-2.4-5.62h0c.07,3.73.38,8.31.38,13.06,0,2.35-.05,4.77-.12,7.07S255.13,445,255.08,447Z" transform="translate(-18.24 -84.12)"/><path class="cls-5" d="M237.37,425.72h0a48.31,48.31,0,0,0,2-9.48c.19-1.71.37-3.52.42-5.29,0-.89,0-1.77,0-2.66s0-1.8,0-2.68a57.82,57.82,0,0,0-1.34-10.11,34.07,34.07,0,0,0-1.26-4.44,25.13,25.13,0,0,0-1.58-3.85h0a110.62,110.62,0,0,0-.51,18.87A118,118,0,0,0,237.37,425.72Z" transform="translate(-18.24 -84.12)"/><path class="cls-5" d="M231.43,415.53h0a45.85,45.85,0,0,0,1.22-17.07c-.66-6-2.31-11.72-4.71-15.64h0a93.44,93.44,0,0,0,.57,16.21c.26,2.94.74,5.83,1.15,8.66.26,1.39.53,2.76.82,4.08.15.66.29,1.31.43,1.94Z" transform="translate(-18.24 -84.12)"/><path class="cls-5" d="M225.28,406h0a26.39,26.39,0,0,0,.72-3.46,34.12,34.12,0,0,0,.37-3.86,41.2,41.2,0,0,0-.5-8.18,34.25,34.25,0,0,0-5.34-14.12h0c0,1.08,0,2.21.07,3.4s.21,2.39.33,3.64c.21,2.52.68,5.11,1,7.77A99.06,99.06,0,0,0,225.28,406Z" transform="translate(-18.24 -84.12)"/><path class="cls-5" d="M243.26,434.25h0a30.43,30.43,0,0,1-10.79.13,38.74,38.74,0,0,1-6-1.57,39.52,39.52,0,0,1-11.6-6.54,37.93,37.93,0,0,1-4.84-4.62c-.73-.82-1.43-1.65-2.07-2.5s-1.21-1.72-1.75-2.58a29.87,29.87,0,0,1-2.66-5.12h0l2,1.81,2.16,1.83c1.49,1.23,3,2.52,4.6,3.73s3.26,2.43,5,3.57,3.49,2.23,5.26,3.26a87.83,87.83,0,0,0,10.79,5.14C236.8,432.23,240.28,433.26,243.26,434.25Z" transform="translate(-18.24 -84.12)"/><path class="cls-5" d="M249.43,440.85h0a25,25,0,0,1-9.25,1.91,31.93,31.93,0,0,1-5.44-.36,32.34,32.34,0,0,1-5.57-1.43c-.92-.32-1.84-.69-2.75-1.09s-1.75-.87-2.61-1.36a33.32,33.32,0,0,1-4.83-3.28,37.81,37.81,0,0,1-4-3.86,32.52,32.52,0,0,1-3-4.09h0l4.07,2.58c1.42.87,2.95,1.72,4.48,2.55a75.42,75.42,0,0,0,9.73,4.38q2.55.88,5.06,1.57c.84.23,1.66.45,2.48.65s1.67.36,2.48.51c1.63.32,3.22.58,4.73.8S248.05,440.7,249.43,440.85Z" transform="translate(-18.24 -84.12)"/><path class="cls-5" d="M255.08,447h0a19.27,19.27,0,0,1-6.37,2.36,22.31,22.31,0,0,1-3.9.4,24.46,24.46,0,0,1-4.06-.31,27.47,27.47,0,0,1-4.07-1,26.46,26.46,0,0,1-3.76-1.66,21.43,21.43,0,0,1-5.92-4.55h0a70.91,70.91,0,0,0,14,4.09,58.83,58.83,0,0,0,7.39.73C250.83,447.12,253.08,447.07,255.08,447Z" transform="translate(-18.24 -84.12)"/><path class="cls-5" d="M236.65,426.23h0a30,30,0,0,1-9.79-1.77,37.82,37.82,0,0,1-5.22-2.31c-.86-.47-1.74-1-2.59-1.49s-1.66-1.12-2.47-1.73a42.1,42.1,0,0,1-8.58-8.54,45.94,45.94,0,0,1-3.1-4.81,40.11,40.11,0,0,1-2.1-4.76h0a214.48,214.48,0,0,0,16.45,14.1A191.19,191.19,0,0,0,236.65,426.23Z" transform="translate(-18.24 -84.12)"/><path class="cls-5" d="M229.51,416.7h0c-4.91-.89-10.86-4.15-15.59-9.08A34.24,34.24,0,0,1,205,391.05h0c3.52,4,7.47,9,11.9,13.54,2.11,2.31,4.46,4.44,6.55,6.5l3.17,2.91,1.47,1.39Z" transform="translate(-18.24 -84.12)"/><path class="cls-5" d="M224.47,406.39h0a20.12,20.12,0,0,1-3.27-1.51,28.06,28.06,0,0,1-3.28-2.27,30,30,0,0,1-5.95-6.46c-3.39-5-5.3-11.09-5.11-15.77h0c.62,1,1.24,2.05,1.88,3.15l2,3.36c1.34,2.32,2.92,4.65,4.43,7C218.39,398.46,221.78,402.78,224.47,406.39Z" transform="translate(-18.24 -84.12)"/><path class="cls-5" d="M211.32,369.91h0a47,47,0,0,0,2.73,15.47,54.26,54.26,0,0,0,3.29,7.68,41.45,41.45,0,0,0,4,6.21h0a64.63,64.63,0,0,0-1.71-7.15c-.66-2.56-1.59-5.18-2.44-7.83A107.81,107.81,0,0,0,211.32,369.91Z" transform="translate(-18.24 -84.12)"/><path class="cls-6" d="M218.18,391.45h0a116.59,116.59,0,0,0,16.26,33.48,126.93,126.93,0,0,0,12.65,15.36,109.72,109.72,0,0,0,13.12,11.5h0c-3.46-3.82-7.47-8.14-11.47-13s-8.05-10.11-11.87-15.56A264.52,264.52,0,0,1,218.18,391.45Z" transform="translate(-18.24 -84.12)"/><path class="cls-7" d="M260.9,377.57h0a113.1,113.1,0,0,0-9.7,31.72,98.23,98.23,0,0,0,9.81,59.6,113.29,113.29,0,0,0,19.35,26.93h0a69,69,0,0,0,18-29.41,76.44,76.44,0,0,0-11-66.75A69.06,69.06,0,0,0,260.9,377.57Z" transform="translate(-18.24 -84.12)"/><path class="cls-2" d="M296.77,435.16a.55.55,0,0,0-.34-.68.49.49,0,0,0-.63.35,32,32,0,0,1-6.3,12A31.54,31.54,0,0,1,279.11,455l-.46-4.32-.56-4.3c-.35-2.87-.81-5.72-1.24-8.58a35.16,35.16,0,0,0,9.27-10.84,36.45,36.45,0,0,0,4.31-14,.55.55,0,0,0-.45-.6.51.51,0,0,0-.56.47,35.55,35.55,0,0,1-4.05,13.33,34.61,34.61,0,0,1-8.7,10.46Q274.42,422.69,271,409l0,0a25.61,25.61,0,0,0,2.59-3.53,25.84,25.84,0,0,0,3.64-12.59.52.52,0,0,0-.49-.54.5.5,0,0,0-.52.5,26.25,26.25,0,0,1-.43,4.07,25.89,25.89,0,0,1-1.12,3.92,23.76,23.76,0,0,1-4,7c-1.79-6.92-3.72-13.82-6-20.61a.51.51,0,0,0-1,.31c1.3,3.89,2.44,7.82,3.6,11.75s2.17,7.89,3.12,11.88a28.48,28.48,0,0,1-6.84-4,26.42,26.42,0,0,1-5.37-5.71.51.51,0,0,0-.7-.12.49.49,0,0,0-.14.68,27,27,0,0,0,5.85,6.14,28.12,28.12,0,0,0,7.47,4.26h0c1.69,7.18,3.25,14.4,4.45,21.69A42,42,0,0,1,254.58,418a.53.53,0,0,0-.7-.14.49.49,0,0,0-.17.67,43.19,43.19,0,0,0,21.7,16.67c1.15,7.14,2.17,14.3,2.86,21.5a37.9,37.9,0,0,1-11.91-5.37,37,37,0,0,1-9.21-8.82.52.52,0,0,0-.7-.12.47.47,0,0,0-.14.67,38,38,0,0,0,9.62,9.17,38.54,38.54,0,0,0,12.45,5.54l.71,8.47c.16,2.83.38,5.65.49,8.48A27.43,27.43,0,0,1,265.52,467a.54.54,0,0,0-.72,0,.47.47,0,0,0,0,.68,28.69,28.69,0,0,0,14.85,8.11c.21,4.81.29,9.63.28,14.45a.51.51,0,0,0,1,0c0-3-.07-6-.09-8.94s-.2-5.95-.35-8.93a24.94,24.94,0,0,0,13.73-10.27.54.54,0,0,0-.14-.74.49.49,0,0,0-.7.14,24,24,0,0,1-12.95,9.82q-.42-7.63-1.2-15.24A32.74,32.74,0,0,0,296.77,435.16Z" transform="translate(-18.24 -84.12)"/></g><path class="cls-7" d="M536.39,336.54c-5.64-9.54-18.92-12.39-29.42-8.85s-18.59,12-25.07,21c-23.81,33-31.15,77.17-19.59,116.11h16.2c-.55-17,7.1-33.76,16.93-47.91,10.87-15.65,24.51-29.27,35-45.19,3.45-5.24,6.58-10.81,8-16.91S539.59,341.94,536.39,336.54Z" transform="translate(-18.24 -84.12)"/><path class="cls-2" d="M478.11,389c9.58-20.88,26.12-37.45,39.47-49.55a.86.86,0,0,0,.06-1.2.85.85,0,0,0-1.2-.05c-13.46,12.21-30.16,28.94-39.87,50.09-9.54,20.8-12.52,46.53-8.91,76.56h1.7C465.75,435,468.68,409.5,478.11,389Z" transform="translate(-18.24 -84.12)"/><path class="cls-4" d="M491.51,464.21c-.15-7.42,5.41-14.42,11.32-18.9s12.82-7.55,18.7-12.08,10.88-11.23,10.54-18.64c-.34-7.7-6.78-14.34-14.28-16.1s-15.59.85-21.57,5.7-10,11.73-12.76,18.93c-4.73,12.48-5.59,28.06-2.69,41.09Z" transform="translate(-18.24 -84.12)"/><path class="cls-2" d="M484.8,444.85c.08-.42.18-.82.26-1.24a.58.58,0,0,1,.06-.26c.28-1.34.59-2.64.94-3.91-1-3.78-1-12-1-12.33a.59.59,0,0,1,.59-.59h0a.6.6,0,0,1,.59.59,87.64,87.64,0,0,0,.55,9.9,48.4,48.4,0,0,1,6-12.51v0c.47-.69,1-1.36,1.46-2,.27-.34.55-.68.83-1,0-3.41,1.52-10.82,1.59-11.14a.58.58,0,0,1,.69-.45.58.58,0,0,1,.46.69c0,.07-1.21,5.83-1.5,9.47a33.92,33.92,0,0,1,18.25-10.67.59.59,0,0,1,.23,1.15,33.59,33.59,0,0,0-19.62,12.68l-.31.44c8.87-2.8,15-2.89,21-3h.57a.6.6,0,0,1,.59.58.6.6,0,0,1-.58.6H516c-6.23.09-12.68.19-22.22,3.43a49.77,49.77,0,0,0-7.17,16.85c5.85-4.12,17.08-6,17.6-6.05a.59.59,0,1,1,.18,1.16c-.13,0-13.05,2.15-18.15,6.68-.08.4-.18.78-.25,1.18a89.9,89.9,0,0,0-1.21,19.12.59.59,0,0,1-.57.61h0a.59.59,0,0,1-.59-.57A91.68,91.68,0,0,1,484.8,444.85Z" transform="translate(-18.24 -84.12)"/><path class="cls-7" d="M87.77,464.15c2-11.21.32-23.57-5.62-33.28S67.09,414,58,407.36s-18.61-13.23-25.6-22.13-11.24-20.77-8.21-31.67c3.36-12.08,15.43-20.59,27.92-21.64s24.94,4.48,34.11,13c14.88,13.85,21.59,34.75,22.36,55.06s-4.57,44.32-9.07,64.15Z" transform="translate(-18.24 -84.12)"/><path class="cls-2" d="M89.21,399.17l0-.11c-.28-.8-.56-1.61-.86-2.4s-.64-1.68-1-2.51c2.27-9.2,4.49-26.72,4.51-26.9a.84.84,0,1,0-1.67-.21c0,.16-1.91,15-4,24.45a100.47,100.47,0,0,0-13.83-22.86c.82-10-1.23-22.22-1.25-22.34a.85.85,0,1,0-1.67.29,109.56,109.56,0,0,1,1.35,20.16q-2.52-2.94-5.22-5.63a1,1,0,0,0-.26-.25,78,78,0,0,0-28.59-18.22.83.83,0,0,0-1.08.51.84.84,0,0,0,.52,1.08,75.26,75.26,0,0,1,25.72,15.71c-10-2.08-24.22-1.56-24.89-1.53a.85.85,0,1,0,.07,1.69c.18,0,17.69-.65,27.31,2.2a97.36,97.36,0,0,1,22.13,34.42C78,390.12,64.66,386,56.09,385.88a.86.86,0,0,0-.86.83.85.85,0,0,0,.83.86c9.12.13,23.93,5.11,31.62,12.33,6.38,18.35,8.57,39.38,6.65,64.18a.86.86,0,0,0,.78.91h.07a.85.85,0,0,0,.84-.78C98,439.09,95.72,417.78,89.21,399.17Z" transform="translate(-18.24 -84.12)"/><path class="cls-4" d="M81.26,464.06c.13-6.36-4.64-12.36-9.71-16.21s-11-6.47-16-10.36-9.33-9.62-9.05-16c.3-6.6,5.82-12.3,12.25-13.8s13.37.72,18.5,4.89,8.61,10,11,16.23a64.6,64.6,0,0,1,2.3,35.23Z" transform="translate(-18.24 -84.12)"/><path class="cls-2" d="M87,447.46c-.06-.36-.15-.7-.22-1.06a.59.59,0,0,0-.05-.23c-.24-1.14-.51-2.26-.81-3.35.87-3.24.86-10.27.86-10.57a.5.5,0,0,0-.5-.5h0a.5.5,0,0,0-.51.5,73.66,73.66,0,0,1-.48,8.49A41.38,41.38,0,0,0,80.12,430v0c-.41-.59-.82-1.17-1.25-1.73l-.71-.87a67.46,67.46,0,0,0-1.36-9.55.51.51,0,0,0-.6-.39.5.5,0,0,0-.39.6c0,.06,1,5,1.29,8.12A29.15,29.15,0,0,0,61.44,417a.5.5,0,0,0-.6.39.51.51,0,0,0,.4.6,28.77,28.77,0,0,1,16.82,10.87l.27.38a56.37,56.37,0,0,0-18-2.56h-.49a.5.5,0,0,0-.5.49.52.52,0,0,0,.5.52h.48a55.21,55.21,0,0,1,19.05,2.94,42.62,42.62,0,0,1,6.14,14.45c-5-3.53-14.64-5.11-15.08-5.19a.51.51,0,0,0-.58.42.5.5,0,0,0,.42.58c.11,0,11.19,1.84,15.57,5.73.07.34.15.67.21,1a77.11,77.11,0,0,1,1,16.4.5.5,0,0,0,.49.52h0a.52.52,0,0,0,.51-.49A78.54,78.54,0,0,0,87,447.46Z" transform="translate(-18.24 -84.12)"/><path class="cls-8" d="M519.12,467.91h-466a2,2,0,0,1-2-2h0a2,2,0,0,1,2-2h466a2,2,0,0,1,2,2h0A2,2,0,0,1,519.12,467.91Z" transform="translate(-18.24 -84.12)"/><path class="cls-6" d="M355.11,191.08c-10,19.86-26.85,15.18-32.66,0v22h32.66Z" transform="translate(-18.24 -84.12)"/><path class="cls-6" d="M363.06,201.28l-.31-6-7.51,10-16.46,10.62-16.46-10.62-7.51-10-.31,6a88.36,88.36,0,0,1-13.73,42.95l-.19.31H377l-.2-.31A88.35,88.35,0,0,1,363.06,201.28Z" transform="translate(-18.24 -84.12)"/><path class="cls-9" d="M308.18,203.72a4.37,4.37,0,0,0,4.3,3.34h52.6a4.43,4.43,0,0,0,2.11-8.33l-27.53-14.91v-5.34a2.65,2.65,0,0,0-2.64-2.65,4.45,4.45,0,0,1-4.44-4.17c0-.09,0-3,0-3.07a4.46,4.46,0,0,1,4.45-4.45h5.57a6.21,6.21,0,0,0-4.34-1.77H337a6.23,6.23,0,0,0-6.22,6.22v3.07A6.23,6.23,0,0,0,337,177.6a.87.87,0,0,1,.87.88v5.34l-27.52,14.91A4.37,4.37,0,0,0,308.18,203.72Zm3-3.43,27.57-14.94,27.57,14.94a2.66,2.66,0,0,1-1.27,5h-52.6a2.66,2.66,0,0,1-1.27-5Z" transform="translate(-18.24 -84.12)"/><path class="cls-5" d="M377,244.54c-20.71-13.95-20.43-26.38-14.23-49.22l-7.64-4.24-2.34,9.14a13.11,13.11,0,0,1-12.69,9.85h-2.61a13.09,13.09,0,0,1-12.68-9.85l-2.34-9.14-7.64,4.24c6.2,22.84,6.48,35.27-14.23,49.22l2,46.88A212.94,212.94,0,0,1,301.54,324l-1,8.71H377L376,324a212.94,212.94,0,0,1-1.08-32.53Z" transform="translate(-18.24 -84.12)"/><path class="cls-6" d="M350.85,236.32a19.07,19.07,0,0,1-5.18,11,17.37,17.37,0,0,1-1.53,1.44c-2.85,2.35-6.3,3.81-9.68,5.31s-6.79,3.09-9.45,5.66-4.45,6.3-3.81,9.93c.6,3.37,3.78,6.28,7.12,6.09,4.17-13.21,16.58-11.16,19.33-25.34C346.75,264,335.59,264,329.46,278a47.34,47.34,0,0,0-3.41,13.41,10.31,10.31,0,0,0,4.84,2.24,30.22,30.22,0,0,1,.39-12.66,10.65,10.65,0,0,0,6.4,3.3c4.31.5,8.61-1.79,11.39-5.13s4.23-7.58,5.12-11.83C356.33,257.11,354.53,246.05,350.85,236.32Z" transform="translate(-18.24 -84.12)"/><path class="cls-10" d="M346,224l-1.84-5.12a1.29,1.29,0,0,0-.94-.83L337,216.58a1.3,1.3,0,0,0-1.2.34l-3.88,3.82a1.21,1.21,0,0,0-.36.64l-3.21,14a1.29,1.29,0,0,0,1,1.56l12,2.75a1.3,1.3,0,0,0,1.56-1l3.21-14A1.33,1.33,0,0,0,346,224Zm-6.78-2.9a1.33,1.33,0,1,1,1.6-1A1.33,1.33,0,0,1,339.23,221.07Z" transform="translate(-18.24 -84.12)"/><polygon class="cls-11" points="321.49 140.61 319.06 140.05 319.91 142.84 322.35 143.4 321.49 140.61"/><polygon class="cls-12" points="318.82 143.35 321.39 140.59 318.95 140.03 316.96 142.17 316.22 141.69 316.59 144.2 319.55 143.82 318.82 143.35 318.82 143.35"/><polygon class="cls-11" points="312.97 146.47 313.7 148.86 315.69 146.72 314.95 144.33 312.97 146.47"/><polygon class="cls-12" points="316.68 147.41 313 146.57 313.73 148.96 316.58 149.61 316.54 150.49 318.53 148.92 316.72 146.54 316.68 147.41 316.68 147.41"/><polygon class="cls-11" points="322.3 150.92 324 149.09 321.16 148.44 319.46 150.27 322.3 150.92"/><polygon class="cls-12" points="321.27 147.24 322.38 150.84 324.08 149.01 323.22 146.22 324 145.82 321.64 144.88 320.49 147.64 321.27 147.24 321.27 147.24"/><path class="cls-6" d="M339.5,219.54a.53.53,0,0,1-.25.08,2.17,2.17,0,0,1-2-1.82,3.77,3.77,0,0,1,.51-2.46c.13-.25.28-.5.42-.74a8.94,8.94,0,0,0,.6-1.14,4.19,4.19,0,0,0-.24-3.56.54.54,0,0,1,.2-.74h0a.54.54,0,0,1,.74.2,5.23,5.23,0,0,1,.31,4.5,10,10,0,0,1-.68,1.3c-.14.23-.27.45-.39.68a2.8,2.8,0,0,0-.4,1.76,1.07,1.07,0,0,0,.93.93.55.55,0,0,1,.56.53A.54.54,0,0,1,339.5,219.54Z" transform="translate(-18.24 -84.12)"/><path class="cls-13" d="M260.12,191.08c8.38,2.39,30.33,2.11,34.36,0l-13.31,49.66v79.81h-7.74V240.74Z" transform="translate(-18.24 -84.12)"/><path class="cls-9" d="M246.7,203.72a4.37,4.37,0,0,0,4.3,3.34h52.6a4.43,4.43,0,0,0,2.11-8.33l-27.53-14.91v-5.34a2.65,2.65,0,0,0-2.64-2.65,4.45,4.45,0,0,1-4.44-4.17c0-.09,0-3,0-3.07a4.46,4.46,0,0,1,4.45-4.45h5.57a6.21,6.21,0,0,0-4.34-1.77h-1.23a6.23,6.23,0,0,0-6.22,6.22c0,.09,0,3,0,3.07a6.22,6.22,0,0,0,6.21,5.94.87.87,0,0,1,.87.88v5.34l-27.52,14.91A4.37,4.37,0,0,0,246.7,203.72Zm3-3.43,27.57-14.94,27.57,14.94a2.66,2.66,0,0,1-1.27,5H251a2.66,2.66,0,0,1-1.27-5Z" transform="translate(-18.24 -84.12)"/><path class="cls-14" d="M273.43,240.74l-13.31-49.66-21.43,12.31a7.64,7.64,0,0,0-3.76,5.68L221.87,316.18,239.62,319l8-74.83-5.07,81,30.85,1.09Z" transform="translate(-18.24 -84.12)"/><path class="cls-15" d="M260.12,191.08l-7.43,17.31a3.38,3.38,0,0,0,2,4.54l5.4,1.81L255.24,225a3.39,3.39,0,0,0,1.16,4.26l17,11.47Z" transform="translate(-18.24 -84.12)"/><path class="cls-13" d="M237.93,207.06l9.72,34.59C244.69,216.86,242,209.24,237.93,207.06Z" transform="translate(-18.24 -84.12)"/><path class="cls-13" d="M221.87,316.18l13.28.84a2.55,2.55,0,0,0,2.68-2.19l1.06-7.82a2.52,2.52,0,0,0-1.88-2.8l-9.37-2.4,13.64,1.67L239.62,319Z" transform="translate(-18.24 -84.12)"/><circle class="cls-15" cx="209.22" cy="224.5" r="1.84"/><path class="cls-14" d="M281.17,240.74l13.31-49.66,21.42,12.31a7.62,7.62,0,0,1,3.76,5.68l13.07,107.11L315,319l-8-74.83,5.07,81-30.85,1.09Z" transform="translate(-18.24 -84.12)"/><path class="cls-15" d="M294.48,191.08l7.43,17.31a3.38,3.38,0,0,1-2,4.54l-5.4,1.81L299.36,225a3.38,3.38,0,0,1-1.17,4.26l-17,11.47Z" transform="translate(-18.24 -84.12)"/><path class="cls-13" d="M316.67,207.06,307,241.65C309.91,216.86,312.58,209.24,316.67,207.06Z" transform="translate(-18.24 -84.12)"/><path class="cls-13" d="M332.73,316.18l-13.29.84a2.55,2.55,0,0,1-2.67-2.19L315.7,307a2.54,2.54,0,0,1,1.89-2.8l9.36-2.4-13.63,1.67L315,319Z" transform="translate(-18.24 -84.12)"/><path class="cls-15" d="M325.29,308.61a1.85,1.85,0,1,0,1.84-1.84A1.85,1.85,0,0,0,325.29,308.61Z" transform="translate(-18.24 -84.12)"/><path class="cls-16" d="M204,191.71c11.81,8.1,26.68,3.59,31.08,0l-15.54,57.61Z" transform="translate(-18.24 -84.12)"/><path class="cls-9" d="M188.86,203.72a4.37,4.37,0,0,0,4.3,3.34h52.6a4.43,4.43,0,0,0,2.11-8.33l-27.53-14.91v-5.34a2.65,2.65,0,0,0-2.65-2.65,4.45,4.45,0,0,1-4.43-4.17c0-.09,0-3,0-3.07a4.45,4.45,0,0,1,4.44-4.45h5.58a6.21,6.21,0,0,0-4.34-1.77h-1.24a6.22,6.22,0,0,0-6.21,6.22v3.07a6.23,6.23,0,0,0,6.21,5.94.87.87,0,0,1,.88.88v5.34L191,198.73A4.38,4.38,0,0,0,188.86,203.72Zm3-3.43,27.57-14.94L247,200.29a2.66,2.66,0,0,1-1.26,5h-52.6a2.66,2.66,0,0,1-1.27-5Z" transform="translate(-18.24 -84.12)"/><path class="cls-17" d="M204,191.71l15.54,57.61V402.4c-18.52,0-33.32,3.38-42.12-2.54l5.14-144.23-5.14,58.21-17.7-7.22,16.76-91.31A23.7,23.7,0,0,1,190.1,198Z" transform="translate(-18.24 -84.12)"/><path class="cls-18" d="M204,191.71l15.54,57.61L201.89,233.6a3.39,3.39,0,0,1-.93-3.69l4.57-12.5L197,211.86a3.39,3.39,0,0,1-1.16-4.4Z" transform="translate(-18.24 -84.12)"/><path class="cls-17" d="M235.08,191.71l-15.54,57.61V411.06c18.52,0,33.32-5.28,42.12-11.2l-5.14-144.23,5.14,58.21,17.7-7.22L262.6,215.31A23.7,23.7,0,0,0,249,198Z" transform="translate(-18.24 -84.12)"/><path class="cls-18" d="M235.08,191.71l-15.54,57.61,17.65-15.72a3.37,3.37,0,0,0,.93-3.69l-4.57-12.5,8.56-5.55a3.39,3.39,0,0,0,1.16-4.4Z" transform="translate(-18.24 -84.12)"/><path class="cls-16" d="M214.31,402.48c1.71-.05,3.45-.08,5.23-.08V249.32Z" transform="translate(-18.24 -84.12)"/><path class="cls-15" d="M438.69,448.32h-29V199.81a34.28,34.28,0,0,0-34.24-34.24h-188a34.28,34.28,0,0,0-34.23,34.24V448.32h-29A15.66,15.66,0,0,0,108.61,464h7.61a8,8,0,0,1,8-8h65.54a8,8,0,0,1,8,8h7.61a15.66,15.66,0,0,0-15.64-15.64h-29V199.81a26.65,26.65,0,0,1,26.62-26.63h188a26.66,26.66,0,0,1,26.63,26.63V448.32h-29A15.66,15.66,0,0,0,357.51,464h7.61a8,8,0,0,1,8-8h65.54a8,8,0,0,1,8,8h7.61A15.66,15.66,0,0,0,438.69,448.32Z" transform="translate(-18.24 -84.12)"/><path class="cls-9" d="M283,168.59v1.19a.89.89,0,1,1-1.78,0v-1.19a4.45,4.45,0,0,0-4.44-4.45h4.34A6.2,6.2,0,0,1,283,168.59Z" transform="translate(-18.24 -84.12)"/><path class="cls-9" d="M344.47,168.59v1.19a.89.89,0,0,1-1.78,0v-1.19a4.45,4.45,0,0,0-4.44-4.45h4.34A6.2,6.2,0,0,1,344.47,168.59Z" transform="translate(-18.24 -84.12)"/><path class="cls-9" d="M225.15,168.59v1.19a.89.89,0,0,1-1.78,0v-1.19a4.45,4.45,0,0,0-4.44-4.45h4.34A6.24,6.24,0,0,1,225.15,168.59Z" transform="translate(-18.24 -84.12)"/><path class="cls-11" d="M236.15,238.31h-3.38A39.92,39.92,0,0,1,220,236.19a14.71,14.71,0,0,0,13,7.93h2.91A14.72,14.72,0,0,0,249,236.19,39.94,39.94,0,0,1,236.15,238.31Z" transform="translate(-18.24 -84.12)"/><path class="cls-9" d="M203.87,249.76a4.36,4.36,0,0,0,4.29,3.34h52.6a4.43,4.43,0,0,0,2.12-8.33l-27.53-14.91v-5.34a2.65,2.65,0,0,0-2.65-2.65,4.44,4.44,0,0,1-4.43-4.17c0-.09,0-3,0-3.07a4.45,4.45,0,0,1,4.44-4.45h5.57a6.21,6.21,0,0,0-4.34-1.77H232.7a6.23,6.23,0,0,0-6.22,6.22c0,.09,0,3,0,3.07a6.23,6.23,0,0,0,6.21,5.94.88.88,0,0,1,.88.88v5.34l-27.53,14.91A4.38,4.38,0,0,0,203.87,249.76Zm3-3.43,27.56-14.94L262,246.33a2.66,2.66,0,0,1-1.27,5h-52.6a2.66,2.66,0,0,1-1.26-5Z" transform="translate(-18.24 -84.12)"/><path class="cls-9" d="M240.15,214.63v1.19a.89.89,0,1,1-1.77,0v-1.19a4.45,4.45,0,0,0-4.45-4.45h4.34A6.2,6.2,0,0,1,240.15,214.63Z" transform="translate(-18.24 -84.12)"/><path class="cls-7" d="M274.51,259a24.25,24.25,0,0,0-12.71-16.32L249,236.19a14.72,14.72,0,0,1-13.05,7.93H233a14.71,14.71,0,0,1-13-7.93l-12.83,6.5A24.25,24.25,0,0,0,194.42,259l-9.19,41,8.59,4.79,2.12,64.8c5,5,21.13,6.2,38.52,6.2s33.55-1.22,38.53-6.2l2.11-64.8,8.6-4.79Z" transform="translate(-18.24 -84.12)"/><polygon class="cls-11" points="256.86 220.65 247.46 225.89 246.96 180.39 244.61 231.32 250.74 227.55 255.83 252.21 256.86 220.65"/><polygon class="cls-6" points="222.36 193.44 210.6 193.44 217.47 205.34 229.23 205.34 222.36 193.44"/><polygon class="cls-19" points="212.97 208.83 221.85 193.44 210.09 193.44 203.21 205.34 199.32 203.95 203.63 215.07 216.83 210.21 212.97 208.83 212.97 208.83"/><polygon class="cls-6" points="189.4 229.28 195.28 239.47 202.15 227.56 196.27 217.38 189.4 229.28"/><polygon class="cls-19" points="207.42 229.72 189.65 229.72 195.53 239.91 209.28 239.91 210.02 243.97 217.49 234.68 206.69 225.69 207.42 229.72 207.42 229.72"/><polygon class="cls-6" points="236.91 239.91 242.8 229.72 229.05 229.72 223.17 239.91 236.91 239.91"/><polygon class="cls-19" points="228.28 224.08 237.17 239.47 243.05 229.28 236.18 217.38 239.33 214.7 227.54 212.87 225.16 226.73 228.28 224.08 228.28 224.08"/><polygon class="cls-11" points="175.59 220.65 184.99 225.89 185.48 180.39 187.84 231.32 181.71 227.55 176.61 252.21 175.59 220.65"/><path class="cls-10" d="M242.42,252.54l-4.83-2.5a1.32,1.32,0,0,0-1.25,0l-5.58,3.22a1.29,1.29,0,0,0-.65,1.07l-.25,5.44a1.19,1.19,0,0,0,.17.71l7.2,12.46a1.3,1.3,0,0,0,1.78.48l10.66-6.16a1.3,1.3,0,0,0,.48-1.78L243,253.05A1.3,1.3,0,0,0,242.42,252.54ZM235.48,255a1.33,1.33,0,0,1-1.82-.49,1.34,1.34,0,1,1,1.82.49Z" transform="translate(-18.24 -84.12)"/><polygon class="cls-11" points="220.1 173.25 217.93 174.5 220.46 175.96 222.63 174.71 220.1 173.25"/><polygon class="cls-12" points="220 177.08 220 173.3 217.84 174.55 217.84 177.47 216.97 177.63 218.95 179.22 220.86 176.92 220 177.08 220 177.08"/><polygon class="cls-11" points="217.84 183.34 220 184.59 220 181.67 217.84 180.42 217.84 183.34"/><polygon class="cls-12" points="221.2 181.51 217.93 183.4 220.1 184.65 222.63 183.19 223.19 183.86 223.58 181.35 220.64 180.85 221.2 181.51 221.2 181.51"/><polygon class="cls-11" points="227.71 180.25 227.71 177.75 225.18 179.21 225.18 181.71 227.71 180.25"/><polygon class="cls-12" points="224.44 178.25 227.71 180.14 227.71 177.64 225.18 176.18 225.48 175.36 223.11 176.27 224.15 179.07 224.44 178.25 224.44 178.25"/><path class="cls-6" d="M235.13,253.54a.48.48,0,0,1-.26.07,2.15,2.15,0,0,1-2-1.81,3.83,3.83,0,0,1,.51-2.46c.13-.26.28-.5.42-.74a9,9,0,0,0,.6-1.15,4.16,4.16,0,0,0-.24-3.56.54.54,0,0,1,.2-.74h0a.54.54,0,0,1,.74.2,5.22,5.22,0,0,1,.31,4.51,9.83,9.83,0,0,1-.68,1.29c-.13.24-.27.46-.39.69a2.79,2.79,0,0,0-.4,1.76c.08.46.48.94.93.93a.55.55,0,0,1,.56.53A.56.56,0,0,1,235.13,253.54Z" transform="translate(-18.24 -84.12)"/><path class="cls-8" d="M156,288.07l21.34,72.39a46.47,46.47,0,0,1,1.9,13.15V441.7H151.78c-2.82-31.27,1.41-69.87,1.41-69.87L125,318.29V441.7H95.15c-4.23-37.75,3.1-71.85,3.1-71.85-9.58-51.84-6.48-71.42-3.31-81.78Z" transform="translate(-18.24 -84.12)"/><path class="cls-20" d="M125,318.29c10.18.42,16.31-1.8,16.31-1.8-5.46,5-14.08,6-14.08,6Z" transform="translate(-18.24 -84.12)"/><path class="cls-14" d="M175.31,437.48h-.85V372.26a33.26,33.26,0,0,0-1.4-9.56L151.64,291l.81-.24,21.42,71.68a33.89,33.89,0,0,1,1.44,9.8Z" transform="translate(-18.24 -84.12)"/><path class="cls-20" d="M125,318.29a14,14,0,0,1-4.57-1.16v4.75a17.14,17.14,0,0,0,1.71.65l-1.71,5.18v19L125,359.39Z" transform="translate(-18.24 -84.12)"/><path class="cls-20" d="M109.31,307.62c.52,8,6.68,12.15,10.28,13.88v-4.74C114.56,314.34,110.25,309.73,109.31,307.62Z" transform="translate(-18.24 -84.12)"/><path class="cls-20" d="M119.37,330.91a20.35,20.35,0,0,0,.18,13.3l0,.13V330.26Z" transform="translate(-18.24 -84.12)"/><path class="cls-14" d="M120.44,321.88c-.27-.11-.55-.24-.85-.38v8.76l.85-2.55Z" transform="translate(-18.24 -84.12)"/><polygon class="cls-14" points="101.35 353.36 102.2 353.36 102.2 262.56 101.35 260.22 101.35 353.36"/><path class="cls-8" d="M120.44,317.13l-.85-.37v4.74c.3.14.58.27.85.38Z" transform="translate(-18.24 -84.12)"/><polygon class="cls-8" points="101.35 246.14 101.35 260.22 102.2 262.56 102.2 243.59 101.35 246.14"/><path class="cls-20" d="M140.15,294.7s.13,1.2.25,3.1a102.33,102.33,0,0,0,17.4-3.65L156,288.07H94.94c-.43,1.41-.86,3-1.26,4.8l1.31.43c.05-.28.1-.57.16-.84a69.7,69.7,0,0,0,11.36,1.32s-.06,1-.19,2.58a104.28,104.28,0,0,0,14.61,2c.12-1.37.27-2.74.46-4.09A123.71,123.71,0,0,0,140.15,294.7Z" transform="translate(-18.24 -84.12)"/><path class="cls-14" d="M120.93,298.35a77.32,77.32,0,0,0-.1,12.17,40.78,40.78,0,0,0,9.5,4.91c3.17-1.16,6.61-2.34,9.79-3.5a78,78,0,0,0,.28-14.13A105.58,105.58,0,0,1,120.93,298.35Z" transform="translate(-18.24 -84.12)"/><path class="cls-8" d="M140.4,297.8c-.12-1.9-.25-3.1-.25-3.1a123.71,123.71,0,0,1-18.76-.44c-.19,1.35-.34,2.72-.46,4.09A105.58,105.58,0,0,0,140.4,297.8Z" transform="translate(-18.24 -84.12)"/><path class="cls-14" d="M93.28,307.38a23.35,23.35,0,0,0,5.18,5c2-.84,4.15-1.67,6.15-2.51a129,129,0,0,0,1.71-13.49A100.75,100.75,0,0,1,95,293.3,110.41,110.41,0,0,0,93.28,307.38Z" transform="translate(-18.24 -84.12)"/><path class="cls-8" d="M95.15,292.46c-.06.27-.11.56-.16.84a100.75,100.75,0,0,0,11.33,3.06c.13-1.58.19-2.58.19-2.58A69.7,69.7,0,0,1,95.15,292.46Z" transform="translate(-18.24 -84.12)"/><path class="cls-20" d="M185.89,451.1l-.52-.2a15.39,15.39,0,0,1-7.48-6.07l-2-3.13H160.34a39.64,39.64,0,0,0-2.47,16.49H194A15.44,15.44,0,0,0,185.89,451.1Z" transform="translate(-18.24 -84.12)"/><path class="cls-10" d="M157.87,458.19a24.51,24.51,0,0,0,1.2,5.77h36.67a15.43,15.43,0,0,0-1.78-5.77Z" transform="translate(-18.24 -84.12)"/><path class="cls-20" d="M125.68,451.1l-.52-.2a15.39,15.39,0,0,1-7.48-6.07l-2-3.13H100.14a39.45,39.45,0,0,0-2.47,16.49h36.08A15.36,15.36,0,0,0,125.68,451.1Z" transform="translate(-18.24 -84.12)"/><path class="cls-10" d="M97.67,458.19a24,24,0,0,0,1.2,5.77h36.66a15.43,15.43,0,0,0-1.78-5.77Z" transform="translate(-18.24 -84.12)"/><path class="cls-21" d="M220.21,217.11a1.68,1.68,0,0,1,.39-1.07l.37-.43a23,23,0,0,1-3.68.45,1.89,1.89,0,0,0,1.74,2.7h2.83A1.65,1.65,0,0,1,220.21,217.11Z" transform="translate(-18.24 -84.12)"/><path class="cls-21" d="M217.11,216.85a1.91,1.91,0,0,1,.18-.79l-.79,0-1.32,2.67H219A1.92,1.92,0,0,1,217.11,216.85Z" transform="translate(-18.24 -84.12)"/><path class="cls-22" d="M230.24,211.19l-3-5.56a4.89,4.89,0,0,0-4.31-2.58h-5.39a10.87,10.87,0,0,0-9.75,6.06l-2.22,4.51-18.18,20.85L178,224l-14.66,13.24,13.33,14.34a14.75,14.75,0,0,0,24-3.52l14.48-29.34,1.32-2.67.79,0a23,23,0,0,0,3.68-.45,8.14,8.14,0,0,0,4.9-2.65l-2.32,3.09a1.71,1.71,0,0,0-.34,1,1.69,1.69,0,0,0,1.69,1.69H225a3.1,3.1,0,0,0,2.39-1.12l2.5-3A3.13,3.13,0,0,0,230.24,211.19Z" transform="translate(-18.24 -84.12)"/><path class="cls-21" d="M223.21,217.07a1.71,1.71,0,0,1,.34-1l2.32-3.09a8.14,8.14,0,0,1-4.9,2.65l-.37.43a1.68,1.68,0,0,0-.39,1.07,1.65,1.65,0,0,0,1.65,1.65h3A1.69,1.69,0,0,1,223.21,217.07Z" transform="translate(-18.24 -84.12)"/><path class="cls-20" d="M180.32,226.62c-.12,9.89-11.6,16.46-11.6,16.46l-5.39-5.8L178,224Z" transform="translate(-18.24 -84.12)"/><path class="cls-21" d="M194,241.68l-6.54-7.21,1-1.12C195.49,234.68,194,241.68,194,241.68Z" transform="translate(-18.24 -84.12)"/><path class="cls-23" d="M116.55,193.33h27.07a28.11,28.11,0,0,1,21.95,10.56l15.66,19.59c-3,9.72-18,18.17-18,18.17L156,233.9v25.85a171.51,171.51,0,0,0,1.45,22.31l1.08,8.34c-27.89,6.34-65.93,0-65.93,0l1.07-10.77q.82-8.46.83-17V243.15a162,162,0,0,1,3.88-35.25h0A18.61,18.61,0,0,1,116.55,193.33Z" transform="translate(-18.24 -84.12)"/><path class="cls-24" d="M152,287.62c-3.92.48-8.44.95-13.27,1.22s-10,.33-15.08.13-10.24-.7-15-1.37-9.26-1.51-13.13-2.31A84,84,0,0,0,108.43,289a95.9,95.9,0,0,0,15.18,1.85,97.25,97.25,0,0,0,15.28-.59A84.69,84.69,0,0,0,152,287.62Z" transform="translate(-18.24 -84.12)"/><path class="cls-24" d="M100.65,279.75a57.93,57.93,0,0,0,13.65.61,63.2,63.2,0,0,0,29.4-9.8,57.86,57.86,0,0,0,10.56-8.67A91.34,91.34,0,0,1,143,269.34,81.52,81.52,0,0,1,114.15,279,91,91,0,0,1,100.65,279.75Z" transform="translate(-18.24 -84.12)"/><path class="cls-24" d="M97.18,264.51a45.75,45.75,0,0,0,7.84,4,50.83,50.83,0,0,0,19.7,3.62,45.22,45.22,0,0,0,8.76-1,74.45,74.45,0,0,1-36.3-6.67Z" transform="translate(-18.24 -84.12)"/><path class="cls-24" d="M148.61,197a12.89,12.89,0,0,0-4.84,3.43,14,14,0,0,0-3.05,13,12.83,12.83,0,0,0,2.81,5.22,19.91,19.91,0,0,1-1.59-5.47,17.15,17.15,0,0,1,.27-6.25,17.38,17.38,0,0,1,2.54-5.72A20.1,20.1,0,0,1,148.61,197Z" transform="translate(-18.24 -84.12)"/><path class="cls-24" d="M156,233.9l-11.19-12.06c1.87,20.95,11.19,33.79,11.19,33.79Z" transform="translate(-18.24 -84.12)"/><path class="cls-22" d="M118.11,183.05l-5.54-17.12a17.82,17.82,0,0,1,17-23.32h0a17.83,17.83,0,0,1,17.57,20.83l-2.33,13.66a7.17,7.17,0,0,1-7.05,6h-4v10.28H117.83Z" transform="translate(-18.24 -84.12)"/><path class="cls-21" d="M132.94,174.73l2.5.57c1.65,1.69,3.94.24,3.94.24a4.57,4.57,0,0,1-3.94,2c-1.8,4.54-7.62,7.17-7.62,7.17l.15-2.55c-3.48,3-8.74,2.26-8.74,2.26l.57-1.25-1.72,1,0-1.09v-8.93Z" transform="translate(-18.24 -84.12)"/><path class="cls-25" d="M141.9,170.91c.08-2,.14-4.09-.94-5.86a4.17,4.17,0,0,0-1.41-1.39c-2.09-1.24-3.87-.06-5,1.42a7.85,7.85,0,0,0,.84,10.22,16.43,16.43,0,0,1-7.62,9.42c0-1.41.22-2.87.24-4.28a15.46,15.46,0,0,1-8.83,4c.41-1,1-2.07,1.4-3.05a13.42,13.42,0,0,1-7,2.35,8.35,8.35,0,0,0,2.22-3.51c-6.51-6.49-10.28-15.63-11-24.8-.24-3.1-.07-6.4,1.61-9s5.26-4.21,8-2.8c.25-2.86,3.36-5.58,6.08-6.47s5.69-.66,8.54-.37,5.78.64,8.57,0c1.93-.46,3.77-1.39,5.74-1.4a7.53,7.53,0,0,1,6.53,4.33,11.23,11.23,0,0,1,.41,8.07,22.5,22.5,0,0,1-4,7.19,6.08,6.08,0,0,1-.1,4.08,6.26,6.26,0,0,1-2.58,3.22l-.06,4a7.57,7.57,0,0,1-1.68,4.63Z" transform="translate(-18.24 -84.12)"/><path class="cls-21" d="M139.13,169.47a1.47,1.47,0,0,0-1.56.75,3.51,3.51,0,0,0-.37,1.81,2.21,2.21,0,0,0,.12.92.9.9,0,0,0,.66.58.88.88,0,0,0,.74-.3,2.47,2.47,0,0,0,.42-.72,10.83,10.83,0,0,0,.7-5.43,2.4,2.4,0,0,0-.51-1.38,1.69,1.69,0,0,0-1.73-.4,2.83,2.83,0,0,0-1.43,1.15,8,8,0,0,0-.79,1.7,7.8,7.8,0,0,1,.94-1.28,2.25,2.25,0,0,1,1.16-.78,1.34,1.34,0,0,1,1.3.35,1.89,1.89,0,0,1,.4,1.15A7.38,7.38,0,0,1,139.13,169.47Z" transform="translate(-18.24 -84.12)"/><path class="cls-26" d="M408.44,282.23,398,336.55a153.7,153.7,0,0,0-2.78,32.18,534.46,534.46,0,0,1-3.93,75.51h33.81c5.63-41.14-2-86.5-2-86.5l16.34-46.21,7.89,50.15c-.28,40-7.33,82.56-7.33,82.56h36.35A428.41,428.41,0,0,0,471.28,360c6.48-43.67,9.16-48.65,9.16-72.76C456,266.48,408.44,282.23,408.44,282.23Z" transform="translate(-18.24 -84.12)"/><path class="cls-27" d="M480.42,289.87c0-.86,0-1.74,0-2.64-24.45-20.75-72-5-72-5l-1.38,7.16A99.94,99.94,0,0,0,480.42,289.87Z" transform="translate(-18.24 -84.12)"/><path class="cls-27" d="M437.79,301l1.65,10.5-15.31,43.29V336.07a9.58,9.58,0,0,1,2.38-6.34h0a9.68,9.68,0,0,0,2.32-7.41l-.3-2.71a9.63,9.63,0,0,1,4.92-9.5l2.4-1.33-6-2.92a43.49,43.49,0,0,1-13.5-10.39h0Z" transform="translate(-18.24 -84.12)"/><path class="cls-27" d="M437.79,301l27.43-2.88-2.88,2a22.19,22.19,0,0,1-22.73,1.76Z" transform="translate(-18.24 -84.12)"/><path class="cls-27" d="M412.36,355.57A51.83,51.83,0,0,1,399.12,367a7.74,7.74,0,0,0,6.37-.71,12.33,12.33,0,0,0,4-4.72C410.52,359.71,411.18,357.3,412.36,355.57Z" transform="translate(-18.24 -84.12)"/><path class="cls-27" d="M468.35,354.8a22,22,0,0,1-11.41,13c1.83.48,3.93,1.27,5.64.45a7.1,7.1,0,0,0,2.93-3.3A30.44,30.44,0,0,0,468.35,354.8Z" transform="translate(-18.24 -84.12)"/><path class="cls-27" d="M451.06,353a29.78,29.78,0,0,0,5.69,9.32,7.75,7.75,0,0,1-4.67-3.25A9.09,9.09,0,0,1,451.06,353Z" transform="translate(-18.24 -84.12)"/><path class="cls-28" d="M418.44,184.18a14.94,14.94,0,0,1-2.5-23.08,12.93,12.93,0,0,1-.27-21.89c-1.54-3.68-2.14-8-.51-11.68s5.7-6.31,9.61-5.5c.16-4.24,2.72-8.67,6.64-10.26A11.37,11.37,0,0,1,443.23,114c5.52-4.39,14-4.54,20-.75a17.49,17.49,0,0,1,7.39,18.39,11,11,0,0,1,7,7.32,11.27,11.27,0,0,1-2.21,10,12.36,12.36,0,0,1,7.45,12.16,11.84,11.84,0,0,1-9.46,10.22,10.39,10.39,0,0,1-3.49,11.58c-3.41,2.48-8,2.93-12.1,2A26.66,26.66,0,0,1,439,192.24C431.91,192.05,424.37,188,418.44,184.18Z" transform="translate(-18.24 -84.12)"/><path class="cls-29" d="M391.88,249.88h0a12.42,12.42,0,0,1-11.77-7.07l-20.79-43.69a46.93,46.93,0,0,1-19.43-7,2.49,2.49,0,0,1-1.16-2.39,23.56,23.56,0,0,1,1.9-7.17,2.54,2.54,0,0,1,3.89-1,27.65,27.65,0,0,0,6.13,3.53,30.59,30.59,0,0,1-6.14-6.25,1.62,1.62,0,0,1,.22-2.22l0,0a1.61,1.61,0,0,1,2.24.12,32,32,0,0,0,10.79,7.83,42.49,42.49,0,0,1-1.39-7.28,3.28,3.28,0,0,1,3.26-3.63h0c2,8.35,8.25,12.57,7.79,21.1l22.26,31.34,7.13-16,17.07,8.1L402.6,242.68A12.44,12.44,0,0,1,391.88,249.88Z" transform="translate(-18.24 -84.12)"/><path class="cls-20" d="M396.84,210.07l17.07,8.1-9.64,20.89c-6.81-10.93-3.29-21.5-2.66-22.77l-5.37-4.87Z" transform="translate(-18.24 -84.12)"/><path class="cls-30" d="M389.71,226.08l5.8,8.17c.82-9.57-5.33-9.23-5.33-9.23Z" transform="translate(-18.24 -84.12)"/><path class="cls-12" d="M418.52,181.14h0a16.24,16.24,0,0,0-11.58,7.64L394.62,209l10.27,4.88Z" transform="translate(-18.24 -84.12)"/><path class="cls-11" d="M402.25,212.64c4-9.94,6.66-14.38,10.35-17.29l-7.71,18.54Z" transform="translate(-18.24 -84.12)"/><path class="cls-29" d="M432.82,187.25a12.26,12.26,0,0,0,9.52,1.7,17.56,17.56,0,0,0,8.52-4.87,26.15,26.15,0,0,0,3.17-3.86l-6.46-1.51v-13.2l-12.78,2.74v10.57l-6.1.87A9.59,9.59,0,0,0,432.82,187.25Z" transform="translate(-18.24 -84.12)"/><path class="cls-30" d="M434.79,173.64c4,2.64,9.33-.64,12.78-3.75v-4.38l-12.78,2.74Z" transform="translate(-18.24 -84.12)"/><path class="cls-12" d="M467.33,248.13c0-16.06,9.3-51.14.64-64.66L454,180.22a26.15,26.15,0,0,1-3.17,3.86,17.56,17.56,0,0,1-8.52,4.87,12.26,12.26,0,0,1-9.52-1.7,9.59,9.59,0,0,1-4.13-7.56l-10.17,1.45-14.79,35.53a11.84,11.84,0,0,0,4,14.13,11.82,11.82,0,0,1,4.82,10.85c-1.3,12.09-4.17,36.78-6.68,45.58,38.88,12.89,74.6,0,74.6,0C480.44,275,467.33,264.19,467.33,248.13Z" transform="translate(-18.24 -84.12)"/><path class="cls-11" d="M450.75,233.87h-36c.18-1.14,1.56-1.57,2.71-1.52a18.35,18.35,0,0,0,3.45.3c1.78-.26,3-1.82,4.31-3.1s3.16-2.43,4.79-1.65,2,2.93,3.36,4a4.79,4.79,0,0,0,4.15.55c1.41-.36,2.71-1,4.12-1.39A10.37,10.37,0,0,1,450.75,233.87Z" transform="translate(-18.24 -84.12)"/><path class="cls-11" d="M471.39,195.35H453.24l3.95,48-30.64,9s-8.53-8.45-14.31-8.12h0c-.36,3.3-.81,7.22-1.32,11.36h0c6.67,11.55,14.7,8.59,14.7,8.59l35.92,8.46a18.14,18.14,0,0,0,13.21-1.88c-3.54-6.71-7.43-13.89-7.43-22.64C467.33,235.67,472.93,211.76,471.39,195.35Z" transform="translate(-18.24 -84.12)"/><path class="cls-12" d="M466.14,183h0a17.3,17.3,0,0,1,13,13.2L484,218.55l-26.07,2.11-4.65-25.31a10.66,10.66,0,0,1,8-12.29h0A10.67,10.67,0,0,1,466.14,183Z" transform="translate(-18.24 -84.12)"/><path class="cls-29" d="M459.74,220.51l4.07,26.78L425.91,255l-8-9.26a8,8,0,0,0-5.09-2.77c-5.85-.69-9.34,4.28-9.34,4.28h0a3.5,3.5,0,0,0,4,1,10.64,10.64,0,0,1,3.81-.87,21.11,21.11,0,0,0-7.45,4,4.93,4.93,0,0,0-1.59,4.29l.38,2.94a2.62,2.62,0,0,0,4.47,1.49,9.62,9.62,0,0,1,3.54-2.54c4.67,8.7,14.07,4.58,14.07,4.58l39.45,5.42a15.67,15.67,0,0,0,17.71-17.13L478.65,219Z" transform="translate(-18.24 -84.12)"/><path class="cls-30" d="M463.81,247.29l10,5.07c-3-8.14-6.53-7-10.24-6.85Z" transform="translate(-18.24 -84.12)"/><polygon class="cls-20" points="441.5 136.39 460.41 134.86 460.57 136.39 442.34 141.96 441.5 136.39"/><path class="cls-29" d="M455.31,157a11.72,11.72,0,0,1-2.38-11,47.61,47.61,0,0,1-7-5.59,15.77,15.77,0,0,1-4.27-7.65,22.85,22.85,0,0,1-14.17,7.76l-.15.14-1.2,5.71a36.3,36.3,0,0,0,.16,15.63l.1.45a11.63,11.63,0,0,0,3.4,6A11.2,11.2,0,0,0,440.5,171l4.76-1.34a17.52,17.52,0,0,0,7.26-4.13A12.69,12.69,0,0,1,455.31,157Z" transform="translate(-18.24 -84.12)"/><path class="cls-20" d="M449.32,151.32l-8.57-3.18a4.85,4.85,0,0,1,4.81-.42A9.36,9.36,0,0,1,449.32,151.32Z" transform="translate(-18.24 -84.12)"/><path class="cls-20" d="M443.65,153.45a1.39,1.39,0,1,1-.71-2A1.51,1.51,0,0,1,443.65,153.45Z" transform="translate(-18.24 -84.12)"/><path class="cls-20" d="M427.41,143.2,432.3,145a2.62,2.62,0,0,0-1.62-2.81A4.69,4.69,0,0,0,427.41,143.2Z" transform="translate(-18.24 -84.12)"/><path class="cls-20" d="M428.47,147.82c-.31.84-.23,1.65.17,1.8s1-.41,1.3-1.26.24-1.64-.17-1.79S428.79,147,428.47,147.82Z" transform="translate(-18.24 -84.12)"/><path class="cls-30" d="M434.78,157.06,430,155.27a2.91,2.91,0,0,0,1.7,2.38A3.39,3.39,0,0,0,434.78,157.06Z" transform="translate(-18.24 -84.12)"/><path class="cls-10" d="M441.65,161.82l-11.46-.74a5.3,5.3,0,0,0,3.08,3,7,7,0,0,0,4.37.14A11.79,11.79,0,0,0,441.65,161.82Z" transform="translate(-18.24 -84.12)"/><path class="cls-29" d="M456.83,454.29A32.49,32.49,0,0,0,473.94,451a23.84,23.84,0,0,0-2.52-6.71H446a18.82,18.82,0,0,1-1.77,2.59A16.46,16.46,0,0,1,456.83,454.29Z" transform="translate(-18.24 -84.12)"/><path class="cls-10" d="M456.83,454.29a16.46,16.46,0,0,0-12.59-7.46,18.82,18.82,0,0,1-6.61,5.23c-3,1.4-6.27,2-9.15,3.59s-5,5.08-4.47,8.31h50.37a34.22,34.22,0,0,0-.44-13A32.49,32.49,0,0,1,456.83,454.29Z" transform="translate(-18.24 -84.12)"/><path class="cls-20" d="M446,444.24h25.41C458.88,451,446,444.24,446,444.24Z" transform="translate(-18.24 -84.12)"/><path class="cls-29" d="M404.7,454.29A32.55,32.55,0,0,0,421.82,451a23.64,23.64,0,0,0-2.53-6.71H393.88a19.68,19.68,0,0,1-1.76,2.59A16.46,16.46,0,0,1,404.7,454.29Z" transform="translate(-18.24 -84.12)"/><path class="cls-10" d="M404.7,454.29a16.46,16.46,0,0,0-12.58-7.46,18.91,18.91,0,0,1-6.61,5.23c-3,1.4-6.28,2-9.15,3.59s-5,5.08-4.47,8.31h50.36a34.45,34.45,0,0,0-.43-13A32.55,32.55,0,0,1,404.7,454.29Z" transform="translate(-18.24 -84.12)"/><path class="cls-20" d="M393.88,444.24h25.41C406.75,451,393.88,444.24,393.88,444.24Z" transform="translate(-18.24 -84.12)"/></svg>