<svg xmlns="http://www.w3.org/2000/svg" xmlns:xlink="http://www.w3.org/1999/xlink" viewBox="0 0 598.36 561.49"><defs><style>.cls-1{fill:none;}.cls-2,.cls-3,.cls-4,.cls-9{fill:#fff;}.cls-2{opacity:0.61;}.cls-3,.cls-4{opacity:0.33;}.cls-20,.cls-4{mix-blend-mode:soft-light;}.cls-5{isolation:isolate;}.cls-6{fill:#f5f7fa;}.cls-7{clip-path:url(#clip-path);}.cls-8{fill:#1f602b;}.cls-10{fill:#358538;}.cls-11{clip-path:url(#clip-path-2);}.cls-12{fill:#fdfeff;}.cls-13{clip-path:url(#clip-path-3);}.cls-14{fill:#d8dee8;}.cls-15{fill:#d98424;}.cls-16{clip-path:url(#clip-path-4);}.cls-17{clip-path:url(#clip-path-5);}.cls-18{clip-path:url(#clip-path-6);}.cls-19{fill:#7fb069;}.cls-21{opacity:0.3;mix-blend-mode:multiply;}.cls-22{fill:#facec1;}.cls-23{fill:#58694f;}.cls-24{fill:#313136;}</style><clipPath id="clip-path" transform="translate(1.9 -10.42)"><path class="cls-1" d="M260.22,199.14h26.26s4.94-13.47-1.49-23c-13.13-19.4,4.77-29.54,11.63-34.91,10.35-8.1,15.94-19.75.72-24.83s.08-28.66,18.68-39.33c18.2-10.44,10.14-48.83-31.33-29.84-24.77,11.34-20.89,37.6-22.08,51.33S241,113.44,248,130.21c6,14.32,17.31,24.76,8.66,34.61S247.09,185.71,260.22,199.14Z"/></clipPath><clipPath id="clip-path-2" transform="translate(1.9 -10.42)"><path class="cls-1" d="M244.55,297.54H283s15.35-32.52,2.07-42.14-4.13-36.74-.92-51.76c8.7-40.77-36.31-42.91-29.32-96.19,1.86-14.17,10.15-40.58-.3-53.44C242.64,39.35,231,50.65,223.71,38.74c-11.46-18.61-32.86-27.58-48.37-12-15.32,15.34-4,51.41,31.88,83.94,23.06,26.25,22.57,33.13,18.32,49.47-3,11.45-18.09,40.31-3.89,54.51s24.54,28.88,16.71,41.23C226.45,274.64,244.55,297.54,244.55,297.54Z"/></clipPath><clipPath id="clip-path-3" transform="translate(1.9 -10.42)"><path class="cls-1" d="M197.07,203.81h39.32c2.29-5.56,5.21-15.83-3-18.36-11.44-3.52-11.56-23.68-8.36-30.79,4-8.79,12.76-29.47-4.84-35.18-14.64-4.76-25.07-4.84-26-23.75S183.13,64.94,166,65.93c-18.05,1-32.65-23.09-47.5-15.18-25.86,13.8-2.85,55.64,28.37,68s13.17,23.46,12.21,38.92c-1.32,21.11,27.27,16.82,34.74,25.18C199.65,189.36,198.49,198.33,197.07,203.81Z"/></clipPath><clipPath id="clip-path-4" transform="translate(1.9 -10.42)"><polygon class="cls-2" points="71.22 490.56 71.22 158.03 203.62 149.99 203.62 498.83 71.22 490.56"/></clipPath><clipPath id="clip-path-5" transform="translate(1.9 -10.42)"><rect class="cls-3" x="223.13" y="247.65" width="310.5" height="153.78" transform="translate(702.93 -53.84) rotate(90)"/></clipPath><clipPath id="clip-path-6" transform="translate(1.9 -10.42)"><polygon class="cls-4" points="203.62 498.83 203.62 149.99 301.49 169.5 301.49 479.82 203.62 498.83"/></clipPath></defs><g class="cls-5"><g id="Слой_1" data-name="Слой 1"><path class="cls-6" d="M271.17,22.57c-64-30.37-217,64.17-243,195C-.95,364,132,541.62,293,541.44c104.45-.11,204-75,239.25-176.7,43.15-124.39-14.69-274.95-78-288.81-36.79-8.05-62.38,32.9-107.5,18.76C304.42,81.4,303.65,38,271.17,22.57Z" transform="translate(1.9 -10.42)"/><g class="cls-7"><path class="cls-8" d="M260.22,199.14h26.26s4.94-13.47-1.49-23c-13.13-19.4,4.77-29.54,11.63-34.91,10.35-8.1,14.92-18.57,2.47-25.36C285,108.21,297.42,87.76,316,77.09c18.2-10.44,10.14-48.83-31.33-29.84-24.77,11.34-20.89,37.6-22.08,51.33S241,113.44,248,130.21c6,14.32,17.31,24.76,8.66,34.61S247.09,185.71,260.22,199.14Z" transform="translate(1.9 -10.42)"/><path class="cls-9" d="M271.52,201.59c-.06-.34-6.15-34.26-2.06-69.71,2.41-20.84,7.82-38.13,16.08-51.39,10.34-16.6,25.19-26.9,44.14-30.59l.13.67c-18.75,3.66-33.45,13.84-43.69,30.28-8.2,13.17-13.57,30.36-16,51.1-4.09,35.35,2,69.18,2,69.51Z" transform="translate(1.9 -10.42)"/><path class="cls-9" d="M281.51,87.65c-2.29-18.43,4.72-44.55,4.79-44.81L287,43c-.07.27-7,26.26-4.77,44.56Z" transform="translate(1.9 -10.42)"/><path class="cls-9" d="M288.8,76.84l-.37-.59c18.92-11.78,36.62-6.11,36.8-6l-.22.65C324.84,70.8,307.43,65.23,288.8,76.84Z" transform="translate(1.9 -10.42)"/><path class="cls-9" d="M268.73,155.22l-.67-.16c6.27-26.42,42.34-33,42.69-33l0,.68C310.42,122.73,274.87,129.34,268.73,155.22Z" transform="translate(1.9 -10.42)"/><path class="cls-9" d="M268.43,144.14c-3.43-16.51-21.42-27.93-21.6-28l.37-.58c.18.11,18.41,11.68,21.9,28.48Z" transform="translate(1.9 -10.42)"/><path class="cls-9" d="M271.36,196.13l-.69,0c.44-5.51,4.72-10.33,8.23-13.41a47.91,47.91,0,0,1,7.56-5.39l.33.6C286.65,178,272.15,186,271.36,196.13Z" transform="translate(1.9 -10.42)"/><path class="cls-9" d="M269.68,188.15c-1.32-7.71-13.19-16.46-17.09-19.33a12.87,12.87,0,0,1-1.21-.94l.52-.45-.26.23.26-.23c.07.08.55.43,1.1.84,4,2.91,16,11.78,17.35,19.76Z" transform="translate(1.9 -10.42)"/></g><path class="cls-10" d="M238.36,255.86c-6.84,10.79-3.29,23,.56,31.35a12.31,12.31,0,0,1,2.93,1c10.25,4,21.26,6,31.92,8.18,2.3.48,4.55.59,6.88.89l2.37.24s15.35-32.52,2.07-42.14-4.13-36.74-.92-51.76c8.7-40.77-36.31-42.91-29.32-96.19,1.86-14.17,10.15-40.58-.3-53.44C242.64,39.35,231,50.65,223.71,38.74c-11.46-18.61-32.86-27.58-48.37-12-15.32,15.34-4,51.41,31.88,83.94,23.06,26.25,22.57,33.13,18.32,49.47-3,11.45-18.09,40.31-3.89,54.51S246.19,243.51,238.36,255.86Z" transform="translate(1.9 -10.42)"/><g class="cls-11"><path class="cls-12" d="M263,293.45h-.69c0-4.78,0-9.58-.07-14.26a500,500,0,0,0-11.38-99.59,401.67,401.67,0,0,0-24.39-75,335.69,335.69,0,0,0-28.73-52.27,268.75,268.75,0,0,0-23.94-30.58c-1.43-1.57-3-3.11-4.51-4.59-2-2-4.15-4.07-6-6.28l.53-.45c1.83,2.19,3.93,4.25,5.95,6.24,1.52,1.49,3.09,3,4.54,4.61a271,271,0,0,1,24,30.66,336.28,336.28,0,0,1,28.79,52.38,401.35,401.35,0,0,1,24.43,75.14,500.61,500.61,0,0,1,11.4,99.73C263,283.86,263,288.67,263,293.45Z" transform="translate(1.9 -10.42)"/><path class="cls-12" d="M237.84,133.51c-10.45-32.94,9.84-88.38,10-88.94l.65.24c-.21.56-20.42,55.78-10,88.49Z" transform="translate(1.9 -10.42)"/><path class="cls-12" d="M258.84,227.52c-4.39-22.71-43.16-45-43.55-45.26l.34-.6c.4.22,39.44,22.71,43.88,45.73Z" transform="translate(1.9 -10.42)"/><path class="cls-12" d="M260.23,240.83c-.2-15.47,7.76-36.61,22.41-59.54.33-.53.6-.94.64-1l.26.12h.4c0,.14,0,.14-.72,1.27-14.58,22.81-22.5,43.82-22.3,59.16Z" transform="translate(1.9 -10.42)"/><path class="cls-12" d="M262.24,284.74c-4.94-15.77-27.89-24.81-28.12-24.9l.25-.64c.23.09,23.49,9.25,28.52,25.33Z" transform="translate(1.9 -10.42)"/><path class="cls-12" d="M263.38,293.65l-.65-.24c4.77-12.88,13.38-24.8,26.32-36.44l.46.52C276.66,269.05,268.11,280.88,263.38,293.65Z" transform="translate(1.9 -10.42)"/><path class="cls-12" d="M204,61.85c-6.81-17.94-9.81-38.33-10.79-45-.17-1.18-.31-2.11-.36-2.25l.66-.22c.06.19.16.83.38,2.37,1,6.68,4,27,10.75,44.89Z" transform="translate(1.9 -10.42)"/><path class="cls-12" d="M219.26,89.24C208.44,75.35,172,71,171.68,70.92l.08-.69a155.83,155.83,0,0,1,19.82,3.93c14.1,3.79,23.6,8.72,28.22,14.66Z" transform="translate(1.9 -10.42)"/></g><path class="cls-8" d="M198,192.18l.46.2c11,4.24,22.66,6.37,34,8.72,1.54.32,3.08.59,4.62.82,2.06-5.74,3.63-14.2-3.73-16.47-11.44-3.52-11.56-23.68-8.36-30.79,4-8.79,12.76-29.47-4.84-35.18-14.64-4.76-25.07-4.84-26-23.75S183.13,64.94,166,65.93c-18.05,1-32.65-23.09-47.5-15.18-25.86,13.8-2.85,55.64,28.37,68s13.17,23.46,12.21,38.92c-1.32,21.11,27.27,16.82,34.74,25.18A17.33,17.33,0,0,1,198,192.18Z" transform="translate(1.9 -10.42)"/><g class="cls-13"><path class="cls-9" d="M215.67,197.61a206.5,206.5,0,0,0-37.85-83.88,201.66,201.66,0,0,0-70.38-59l.3-.62a202.46,202.46,0,0,1,70.63,59.24,207.16,207.16,0,0,1,38,84.17Z" transform="translate(1.9 -10.42)"/><path class="cls-9" d="M206.94,164.88h-.69c.11-24.82,21.41-44,21.62-44.22l.46.51C228.12,121.35,207.05,140.36,206.94,164.88Z" transform="translate(1.9 -10.42)"/><path class="cls-9" d="M213.14,186.41c-11.49-21.52-56.14-24.78-56.59-24.81l0-.68c.45,0,45.48,3.31,57.15,25.16Z" transform="translate(1.9 -10.42)"/><path class="cls-9" d="M176.22,111.69c-7.88-18.4,4.16-46.44,4.28-46.72l.63.27c-.12.28-12,28.05-4.27,46.18Z" transform="translate(1.9 -10.42)"/><path class="cls-9" d="M149.15,82.79c-18.8-11.67-48.12-5.38-48.41-5.31l-.15-.67c.29-.07,29.89-6.42,48.92,5.39Z" transform="translate(1.9 -10.42)"/></g><path class="cls-14" d="M262.62,234l.22,1.1c-19.06-.14-42.13-9.32-42.35-9.41s.22-1.26.29-1.43a.32.32,0,0,1,.42-.17c.23.09,22.49,9.13,41.42,9.26a.33.33,0,0,1,0,.65Z" transform="translate(1.9 -10.42)"/><polygon class="cls-15" points="205.52 505.91 62.03 496.06 62.03 131.65 205.52 122.06 205.52 505.91"/><polygon class="cls-2" points="73.12 480.13 73.12 147.6 205.52 139.57 205.52 488.4 73.12 480.13"/><g class="cls-16"><path class="cls-9" d="M596.45,236.35l-142.38,3.78c-.48-70.56-.87-171.37-.1-180.73a17.34,17.34,0,0,1-1.67,5.84L433.44,50.52c-2,4.24-2.09,7.78-2.25,17.26-.09,5.38-.16,13.1-.19,23-.06,16.48,0,39.23.06,67.61.18,48.29.53,96.86.53,97.34l.11,14.68,48.85-.83v105.7l-92.12-1.58-55-99.4-75.6,1.22L359.33,109.6,343.27,91.89l-111.63,184-48,.77c.07-16.69.18-46.35.24-75.9.06-26.09.07-47,0-62.09-.07-30.12-.19-30.47-.87-32.38l-9,7.15a8.11,8.11,0,0,1-.45-2c.47,6.27.26,97.76,0,165.41l-50.17.81C114.29,229,93,115.35,92.28,112.21l-16.71,9.57,0-.18c.91,4.39,19.74,105.43,32.31,173l1.81,9.74,105.12-.67L149.46,411.33,21.3,407.2v25.67l136.62,5.72,82.69-135.06,82.31-.52,38.52,70.18-101.76-1.75V570.8l10.66.92V386.56L370,388.78,470.51,571.91,489,555.3,397.14,389.39l95.76,2.13V269.33l103.55-1.74Z" transform="translate(1.9 -10.42)"/></g><rect class="cls-15" x="301.49" y="153.93" width="167.35" height="341.46" transform="translate(772.24 638.9) rotate(180)"/><rect class="cls-3" x="223.13" y="247.65" width="310.5" height="153.78" transform="translate(704.83 -64.26) rotate(90)"/><g class="cls-17"><path class="cls-9" d="M516.12,255.43H388.92c-.45-57.72-.81-140.21-.09-147.81a12.47,12.47,0,0,1-1.57,4.67L369.5,98.87c-1.91,3.35-2,6.26-2.13,14.06-.09,4.43-.15,10.79-.18,18.9-.06,13.58,0,32.32.06,55.71.17,39.79.5,79.82.5,80.22l.11,12.09h45.59v85.7H326.23l-54.7-83.79H193L297.56,143.18l-16.06-16L164.85,281.76h-53c.08-15,.2-41.55.28-68,.06-23.39.08-42.12,0-55.66-.08-27-.21-27.32-1-29.08L101,134.8a6.23,6.23,0,0,1-.51-1.85c.53,5.67.29,88,0,148.81H42.73C32,236.92,16.58,172.25,15.72,169.29L-1.9,177.87l1.6,16.48c1.1,4.15,9.7,40.16,24.68,102.84l2.14,9H146.43L73,403.47H16l1,24.41H82.71l91.85-121.71H260.9l38.76,59.38H195v174h11.31v-161H308.14L404.2,525.69l17-14.65-86.5-132.5h90.05V279.85h91.36Z" transform="translate(1.9 -10.42)"/></g><polygon class="cls-15" points="303.39 484.97 205.52 505.91 205.52 122.06 303.39 143.51 303.39 484.97"/><polygon class="cls-4" points="205.52 488.4 205.52 139.57 303.39 159.08 303.39 469.39 205.52 488.4"/><g class="cls-18"><path class="cls-14" d="M399.3,264.41l-54.81-4.94c-.2-54.57-.37-132.58,0-139.67a18.58,18.58,0,0,1-.73,4.2l-8.37-15.1c-.91,2.94-.94,5.72-1,13.17,0,4.23-.07,10.31-.09,18.08,0,13,0,31,0,53.37.08,38.13.24,76.47.24,76.85l.05,11.58,21.16,1.25V363L314.15,365l-28.56-84-44.9-2.56,58.75-135.51L291,124.76l-67.59,152.7-34.66-2c.05-17.08.13-47.45.18-77.69.05-26.7.06-48.08,0-63.55,0-30.86-.14-31.25-.66-33.39l-6.94,5a13.11,13.11,0,0,1-.35-2.22c.37,6.62.2,101.37,0,171.45l-41.78-2.37C131,217.71,111.08,84,110.39,80.18l-16.47,5.6,0-.23c.91,5.46,19.37,127.16,31.19,205.21l1.67,11L211.63,304,161.52,417.18,34.76,429.53v32.65L168.47,445l60.95-140.59,50.37,1.31,20.75,59.95-58.64,2.9v187l6.75-1.82V382.1l56.28-3.7,46.6,134.66,7.68-15.51-40.81-120,42.4-2.79V283.5l38.5,2.28Z" transform="translate(1.9 -10.42)"/></g><path class="cls-8" d="M533.92,208.82c0,58.8-82.38,166.1-119.66,211.64a23.19,23.19,0,0,1-35.9,0c-37.28-45.54-119.65-152.84-119.65-211.64a137.61,137.61,0,1,1,275.21,0Z" transform="translate(1.9 -10.42)"/><circle class="cls-8" cx="398.21" cy="476.99" r="28.13"/><path class="cls-19" d="M530.19,208.82c0,58.8-82.38,166.1-119.66,211.64a23.18,23.18,0,0,1-35.89,0C337.36,374.92,255,267.62,255,208.82a137.61,137.61,0,1,1,275.21,0Z" transform="translate(1.9 -10.42)"/><circle class="cls-9" cx="394.49" cy="198.39" r="76.74"/><circle class="cls-19" cx="394.49" cy="476.99" r="28.13"/><g class="cls-20"><path class="cls-9" d="M392,364c8.73-57.5,46.69-75.9,40.18-130.19-7.52-62.61-63-79.28-64.29-135a88.76,88.76,0,0,1,3.31-25.91,137.64,137.64,0,0,0-116.2,136c0,58.8,82.38,166.1,119.66,211.64a23.09,23.09,0,0,0,21.47,8.23C389.44,403.51,389.24,382,392,364Z" transform="translate(1.9 -10.42)"/></g><path class="cls-8" d="M339.63,201h0Z" transform="translate(1.9 -10.42)"/><path class="cls-8" d="M345.68,207.09a6.05,6.05,0,0,0,6.06-6.05H339.63A6.05,6.05,0,0,0,345.68,207.09Z" transform="translate(1.9 -10.42)"/><polygon class="cls-8" points="443.4 152.59 347.64 152.59 341.53 186.31 450.01 186.31 443.4 152.59"/><path class="cls-8" d="M353.41,201h0Z" transform="translate(1.9 -10.42)"/><path class="cls-8" d="M359.46,207.09a6.05,6.05,0,0,0,6.06-6.05H353.41A6.05,6.05,0,0,0,359.46,207.09Z" transform="translate(1.9 -10.42)"/><path class="cls-8" d="M367.19,201h0Z" transform="translate(1.9 -10.42)"/><path class="cls-8" d="M373.25,207.09A6.05,6.05,0,0,0,379.3,201H367.19A6.05,6.05,0,0,0,373.25,207.09Z" transform="translate(1.9 -10.42)"/><path class="cls-8" d="M381,201h0Z" transform="translate(1.9 -10.42)"/><path class="cls-8" d="M387,207.09a6.06,6.06,0,0,0,6.06-6.05H381A6.05,6.05,0,0,0,387,207.09Z" transform="translate(1.9 -10.42)"/><path class="cls-8" d="M448.21,201h0Z" transform="translate(1.9 -10.42)"/><path class="cls-8" d="M442.15,207.09a6.05,6.05,0,0,1-6-6.05h12.11A6.05,6.05,0,0,1,442.15,207.09Z" transform="translate(1.9 -10.42)"/><path class="cls-8" d="M434.43,201h0Z" transform="translate(1.9 -10.42)"/><path class="cls-8" d="M428.37,207.09a6.06,6.06,0,0,1-6.06-6.05h12.12A6.06,6.06,0,0,1,428.37,207.09Z" transform="translate(1.9 -10.42)"/><path class="cls-8" d="M420.64,201h0Z" transform="translate(1.9 -10.42)"/><path class="cls-8" d="M414.59,207.09a6.05,6.05,0,0,1-6.06-6.05h12.11A6.05,6.05,0,0,1,414.59,207.09Z" transform="translate(1.9 -10.42)"/><path class="cls-8" d="M406.86,201h0Z" transform="translate(1.9 -10.42)"/><path class="cls-8" d="M400.8,207.09a6.05,6.05,0,0,1-6.05-6.05h12.11A6.05,6.05,0,0,1,400.8,207.09Z" transform="translate(1.9 -10.42)"/><path class="cls-8" d="M345.71,209.43v44.8h96.41v-44.8ZM428,243.79H359.8V219H428Z" transform="translate(1.9 -10.42)"/><path class="cls-8" d="M125.86,134c0,10.29-14.42,29.07-20.94,37a4.06,4.06,0,0,1-6.29,0c-6.52-8-20.94-26.75-20.94-37a24.09,24.09,0,1,1,48.17,0Z" transform="translate(1.9 -10.42)"/><circle class="cls-9" cx="101.78" cy="134.03" r="13.43" transform="translate(-44.92 202.6) rotate(-80.78)"/><circle class="cls-8" cx="103.68" cy="172.37" r="4.92"/><path class="cls-8" d="M93.3,133.29h0Z" transform="translate(1.9 -10.42)"/><path class="cls-8" d="M94.28,134.27a1,1,0,0,0,1-1h-2A1,1,0,0,0,94.28,134.27Z" transform="translate(1.9 -10.42)"/><polygon class="cls-8" points="111.63 116.73 96.19 116.73 95.21 122.17 112.69 122.17 111.63 116.73"/><path class="cls-8" d="M95.53,133.29h0Z" transform="translate(1.9 -10.42)"/><path class="cls-8" d="M96.5,134.27a1,1,0,0,0,1-1h-2A1,1,0,0,0,96.5,134.27Z" transform="translate(1.9 -10.42)"/><path class="cls-8" d="M97.75,133.29h0Z" transform="translate(1.9 -10.42)"/><path class="cls-8" d="M98.72,134.27a1,1,0,0,0,1-1h-2A1,1,0,0,0,98.72,134.27Z" transform="translate(1.9 -10.42)"/><path class="cls-8" d="M100,133.29h0Z" transform="translate(1.9 -10.42)"/><path class="cls-8" d="M101,134.27a1,1,0,0,0,1-1h-2A1,1,0,0,0,101,134.27Z" transform="translate(1.9 -10.42)"/><path class="cls-8" d="M110.81,133.29h0Z" transform="translate(1.9 -10.42)"/><path class="cls-8" d="M109.83,134.27a1,1,0,0,1-1-1h2A1,1,0,0,1,109.83,134.27Z" transform="translate(1.9 -10.42)"/><path class="cls-8" d="M108.59,133.29h0Z" transform="translate(1.9 -10.42)"/><path class="cls-8" d="M107.61,134.27a1,1,0,0,1-1-1h2A1,1,0,0,1,107.61,134.27Z" transform="translate(1.9 -10.42)"/><path class="cls-8" d="M106.36,133.29h0Z" transform="translate(1.9 -10.42)"/><path class="cls-8" d="M105.39,134.27a1,1,0,0,1-1-1h2A1,1,0,0,1,105.39,134.27Z" transform="translate(1.9 -10.42)"/><path class="cls-8" d="M104.14,133.29h0Z" transform="translate(1.9 -10.42)"/><path class="cls-8" d="M103.17,134.27a1,1,0,0,1-1-1h2A1,1,0,0,1,103.17,134.27Z" transform="translate(1.9 -10.42)"/><path class="cls-8" d="M94.28,134.64v7.23h15.55v-7.23Zm13.28,5.54h-11v-4h11Z" transform="translate(1.9 -10.42)"/><g class="cls-21"><path class="cls-19" d="M101.67,161.19c1.53-10.07,8.17-13.29,7-22.79-1.31-11-11-13.88-11.25-23.63a15.54,15.54,0,0,1,.58-4.54A24.1,24.1,0,0,0,77.69,134c0,10.29,14.42,29.07,20.94,37a4.07,4.07,0,0,0,3.76,1.45A27.67,27.67,0,0,1,101.67,161.19Z" transform="translate(1.9 -10.42)"/></g><path class="cls-8" d="M192.75,243.67c0,10.29-14.41,29.07-20.94,37a4,4,0,0,1-6.28,0c-6.53-8-20.95-26.75-20.95-37a24.09,24.09,0,1,1,48.17,0Z" transform="translate(1.9 -10.42)"/><circle class="cls-9" cx="170.57" cy="233.24" r="13.43"/><circle class="cls-8" cx="168.67" cy="292.43" r="4.92" transform="translate(-145.1 401.66) rotate(-80.78)"/><path class="cls-8" d="M160.2,242.93h0Z" transform="translate(1.9 -10.42)"/><path class="cls-8" d="M161.17,243.9a1,1,0,0,0,1-1h-2A1,1,0,0,0,161.17,243.9Z" transform="translate(1.9 -10.42)"/><polygon class="cls-8" points="178.52 226.37 163.08 226.37 162.1 231.81 179.59 231.81 178.52 226.37"/><path class="cls-8" d="M162.42,242.93h0Z" transform="translate(1.9 -10.42)"/><path class="cls-8" d="M163.39,243.9a1,1,0,0,0,1-1h-2A1,1,0,0,0,163.39,243.9Z" transform="translate(1.9 -10.42)"/><path class="cls-8" d="M164.64,242.93h0Z" transform="translate(1.9 -10.42)"/><path class="cls-8" d="M165.62,243.9a1,1,0,0,0,1-1h-2A1,1,0,0,0,165.62,243.9Z" transform="translate(1.9 -10.42)"/><path class="cls-8" d="M166.86,242.93h0Z" transform="translate(1.9 -10.42)"/><path class="cls-8" d="M167.84,243.9a1,1,0,0,0,1-1h-1.95A1,1,0,0,0,167.84,243.9Z" transform="translate(1.9 -10.42)"/><path class="cls-8" d="M177.7,242.93h0Z" transform="translate(1.9 -10.42)"/><path class="cls-8" d="M176.73,243.9a1,1,0,0,1-1-1h1.95A1,1,0,0,1,176.73,243.9Z" transform="translate(1.9 -10.42)"/><path class="cls-8" d="M175.48,242.93h0Z" transform="translate(1.9 -10.42)"/><path class="cls-8" d="M174.5,243.9a1,1,0,0,1-1-1h1.95A1,1,0,0,1,174.5,243.9Z" transform="translate(1.9 -10.42)"/><path class="cls-8" d="M173.26,242.93h0Z" transform="translate(1.9 -10.42)"/><path class="cls-8" d="M172.28,243.9a1,1,0,0,1-1-1h2A1,1,0,0,1,172.28,243.9Z" transform="translate(1.9 -10.42)"/><path class="cls-8" d="M171,242.93h0Z" transform="translate(1.9 -10.42)"/><path class="cls-8" d="M170.06,243.9a1,1,0,0,1-1-1h2A1,1,0,0,1,170.06,243.9Z" transform="translate(1.9 -10.42)"/><path class="cls-8" d="M161.18,244.28v7.22h15.54v-7.22Zm13.27,5.54h-11v-4h11Z" transform="translate(1.9 -10.42)"/><g class="cls-21"><path class="cls-19" d="M168.56,270.82c1.53-10.06,8.18-13.28,7-22.78-1.32-11-11-13.88-11.26-23.63a15.54,15.54,0,0,1,.58-4.54,24.1,24.1,0,0,0-20.34,23.8c0,10.29,14.42,29.07,20.95,37a4,4,0,0,0,3.76,1.44A27.5,27.5,0,0,1,168.56,270.82Z" transform="translate(1.9 -10.42)"/></g><path class="cls-8" d="M139.89,376.15c0,10.29-14.42,29.07-20.94,37a4,4,0,0,1-6.28,0c-6.53-8-21-26.75-21-37a24.09,24.09,0,1,1,48.17,0Z" transform="translate(1.9 -10.42)"/><circle class="cls-9" cx="117.71" cy="365.72" r="13.43"/><circle class="cls-8" cx="115.81" cy="424.91" r="4.92" transform="translate(-322.44 429.57) rotate(-76.72)"/><path class="cls-8" d="M107.33,375.41h0Z" transform="translate(1.9 -10.42)"/><path class="cls-8" d="M108.31,376.39a1,1,0,0,0,1-1h-2A1,1,0,0,0,108.31,376.39Z" transform="translate(1.9 -10.42)"/><polygon class="cls-8" points="125.66 358.86 110.22 358.86 109.24 364.29 126.73 364.29 125.66 358.86"/><path class="cls-8" d="M109.56,375.41h0Z" transform="translate(1.9 -10.42)"/><path class="cls-8" d="M110.53,376.39a1,1,0,0,0,1-1h-2A1,1,0,0,0,110.53,376.39Z" transform="translate(1.9 -10.42)"/><path class="cls-8" d="M111.78,375.41h0Z" transform="translate(1.9 -10.42)"/><path class="cls-8" d="M112.75,376.39a1,1,0,0,0,1-1h-2A1,1,0,0,0,112.75,376.39Z" transform="translate(1.9 -10.42)"/><path class="cls-8" d="M114,375.41h0Z" transform="translate(1.9 -10.42)"/><path class="cls-8" d="M115,376.39a1,1,0,0,0,1-1h-2A1,1,0,0,0,115,376.39Z" transform="translate(1.9 -10.42)"/><path class="cls-8" d="M124.84,375.41h0Z" transform="translate(1.9 -10.42)"/><path class="cls-8" d="M123.86,376.39a1,1,0,0,1-1-1h2A1,1,0,0,1,123.86,376.39Z" transform="translate(1.9 -10.42)"/><path class="cls-8" d="M122.62,375.41h0Z" transform="translate(1.9 -10.42)"/><path class="cls-8" d="M121.64,376.39a1,1,0,0,1-1-1h2A1,1,0,0,1,121.64,376.39Z" transform="translate(1.9 -10.42)"/><path class="cls-8" d="M120.4,375.41h0Z" transform="translate(1.9 -10.42)"/><path class="cls-8" d="M119.42,376.39a1,1,0,0,1-1-1h2A1,1,0,0,1,119.42,376.39Z" transform="translate(1.9 -10.42)"/><path class="cls-8" d="M118.17,375.41h0Z" transform="translate(1.9 -10.42)"/><path class="cls-8" d="M117.2,376.39a1,1,0,0,1-1-1h2A1,1,0,0,1,117.2,376.39Z" transform="translate(1.9 -10.42)"/><path class="cls-8" d="M108.32,376.76V384h15.54v-7.22Zm13.27,5.54h-11v-4h11Z" transform="translate(1.9 -10.42)"/><g class="cls-21"><path class="cls-19" d="M115.7,403.31c1.53-10.07,8.17-13.29,7-22.79-1.31-11-11-13.88-11.25-23.63a15.54,15.54,0,0,1,.58-4.54,24.1,24.1,0,0,0-20.34,23.8c0,10.29,14.42,29.07,21,37a4,4,0,0,0,3.75,1.44A27.62,27.62,0,0,1,115.7,403.31Z" transform="translate(1.9 -10.42)"/></g><path class="cls-22" d="M184.57,316.91s-1.85-9.66-3.7-12.53a16.29,16.29,0,0,0-5.29-4.72s-.72,1.18,1.57,3.67.38,2.73,0,3.53.44,3.68,2.08,4.71,2.26,6.62,2.26,6.62Z" transform="translate(1.9 -10.42)"/><path class="cls-23" d="M179.23,315.67l6-1a94,94,0,0,0,21.1,26.55c6.7,5.8,11,9.55,18.12,11.43,10.5,2.78,19.56-.48,20.74,2.47.58,1.44-1.42,3-4.62,6.82-9.31,11.15-8.43,17.14-13.55,18.79-4.23,1.37-8.49-1.57-15.71-6.72-6.57-4.69-14.8-10.57-21.76-21.77A69.48,69.48,0,0,1,179.23,315.67Z" transform="translate(1.9 -10.42)"/><path class="cls-23" d="M266.7,356.29c1,.37,15.68,6.22,18.71,21.58.24,1.24,2.6,14.44-6.35,23.76-10,10.45-29.35,10.2-37,1.46a15.72,15.72,0,0,1-3.27-6.2h0l2-5.37c2.46-3,5.82-3.68,7.61-4.12,4.42-1.09,7.76.88,10.29-1.25,1.4-1.18,1.68-2.88,1.93-4.4.85-5.16-2.07-8.34-2.28-11.53-.16-2.38-1-7.59,2.11-11A10.09,10.09,0,0,1,266.7,356.29Z" transform="translate(1.9 -10.42)"/><path class="cls-24" d="M272.43,527.47c.18-.94,3.23-1.8,4.74-.53.75.63,1.27,1.9.83,2.48-.15.21.49.58-.13.58C275.82,530,272.26,528.41,272.43,527.47Z" transform="translate(1.9 -10.42)"/><path class="cls-22" d="M275.63,527.82l3.14-.45c-1.45-1.75-1.18-7.33-1.18-7.33l-3.34.75s.38,1.53,1,3.79A14.53,14.53,0,0,1,275.63,527.82Z" transform="translate(1.9 -10.42)"/><path class="cls-24" d="M275.36,527.43s3.78-.87,4.19-.12.72,2.76-1.68,2.69S275.14,528.07,275.36,527.43Z" transform="translate(1.9 -10.42)"/><path class="cls-24" d="M229.34,531c.3-.91,3.45-1.33,4.77.13.65.73,1,2.07.48,2.58-.19.18.4.64-.22.56C232.33,534,229,531.93,229.34,531Z" transform="translate(1.9 -10.42)"/><path class="cls-22" d="M232.46,531.81h3.17c-1.19-1.94-.14-7.43-.14-7.43l-3.41.28s.16,1.56.48,3.89A14.9,14.9,0,0,1,232.46,531.81Z" transform="translate(1.9 -10.42)"/><path class="cls-24" d="M224.24,411.87a147.72,147.72,0,0,0-4.92,22.5c-3.85,28,4.34,28.92,2.81,60-.49,9.91,8.59,32.77,9.39,33.27a10,10,0,0,0,1.25,0,12.23,12.23,0,0,0,3.2-.53c1.44-.25,6.62-14.29,5.42-22.64-.85-5.9-.6-12.25-.11-24.93.08-2.05,5.34-40,5.34-40h0c1.6,14,3.44,26,5,35.21,5.12,29.71,21.78,47.69,22.65,48a3.57,3.57,0,0,0,3-.21,2,2,0,0,0,.76-.86c.45-.35-.13-29.66-5.21-51.72-7.37-32-4.16-39.51-6.5-53.81C264.34,403.81,224.24,411.87,224.24,411.87Z" transform="translate(1.9 -10.42)"/><path class="cls-23" d="M254,353.79c-4.9-.14-16.15-1.87-22.35,3.71-.11.1,1.16.77.54,1.51a40.81,40.81,0,0,0-4.38,6.28,41.92,41.92,0,0,0-3.68,9.09,78,78,0,0,0-2.9,15.88c-1.13,14.9,0,21.77,1,26.44A51.44,51.44,0,0,0,251.69,421a45.62,45.62,0,0,0,14.67-4.83c-3.53-10.67-.76-16.39.55-21.65,1.86-7.51,1.89-7,3.42-12.91,2.53-9.84,2.94-19.9,1.2-22C266.85,354.12,258.41,353.92,254,353.79Z" transform="translate(1.9 -10.42)"/><path class="cls-24" d="M232.24,531.39s3.87-.34,4.17.46.33,2.84-2,2.44S231.94,532,232.24,531.39Z" transform="translate(1.9 -10.42)"/><path class="cls-22" d="M243.74,344.62a8.56,8.56,0,0,1,.91-6.1c1.3-2.39,1.64-2.72,2.25-3.13l.87-.54.1,0a9.94,9.94,0,0,1,2.82-.18c1.22.26,2.51,5.23,2.14,12.25l.15.81c.19,1.11.35,2.2.46,3.26a2.74,2.74,0,0,0,1.75,2.25c6.48,2.44,6.47.49,7.14,2.59.36,1.15-7,3-10.62,2.58-8.14.06-14.77-.8-14.05-2.09.31-.57,6.62-2.21,8.4-3.85,1.62-1.5,1.49-3,1.62-4.15C247.19,348,244.33,346.73,243.74,344.62Z" transform="translate(1.9 -10.42)"/><path class="cls-24" d="M245.24,332.86c0,2.18,1,4.5,1.55,4.87a3.62,3.62,0,0,1,.79.86,1,1,0,0,1,.13.26c.47,1.37-1.71,3-1.29,3.6.31.44,1.79-.15,2,.23s-1.07,1.11-.88,1.55.9,0,1.38.53c.24.25.17.44.42,1.21a7,7,0,0,0,.49,1.16c.76,1.28,2.89,1.75,3.3,1.24.11-.15,0-.26.13-.74a4,4,0,0,1,.41-1,10.36,10.36,0,0,1,2.58-2,7,7,0,0,0,2.69-3.06c.06-.15.09-.26.12-.34a8,8,0,0,0-.2-5.4c-1.21-2.43-3.93-1.28-6.16-3.68-2.58-2.78-1-6.57-2.44-7S245.23,328.84,245.24,332.86Z" transform="translate(1.9 -10.42)"/><path class="cls-22" d="M247.21,341.94c.53-.74,1.47-.05,1.47.9s-.91,1.93-1.8,1.75S246.49,342.92,247.21,341.94Z" transform="translate(1.9 -10.42)"/><path class="cls-15" d="M264.8,409.47a.18.18,0,0,1-.18-.16,29.76,29.76,0,0,1,1.47-12.45c.23-.82.45-1.59.64-2.37,1.06-4.26,1.52-5.91,2-7.66.32-1.13.65-2.3,1.16-4.26a.19.19,0,0,1,.22-.13.2.2,0,0,1,.13.22c-.51,2-.84,3.14-1.16,4.27-.49,1.74-.95,3.39-2,7.65-.19.78-.42,1.56-.65,2.38A29.52,29.52,0,0,0,265,409.28a.18.18,0,0,1-.16.19Z" transform="translate(1.9 -10.42)"/><path class="cls-24" d="M247.64,340.35,246.4,342s-1.33,2-2.11.89c-.64-.88-.8-.86-.84-.82a0,0,0,0,0,0,0s.09-.44.18-.82a7.33,7.33,0,0,0-1.05,2.27,4,4,0,0,0,0,3.11A3.07,3.07,0,0,0,244.4,348a8.36,8.36,0,0,0,2.39-.24s-2.11-1.53-2.15-1.89c-.08-1,1.29-1.53,2.31-3.56A8.56,8.56,0,0,0,247.64,340.35Z" transform="translate(1.9 -10.42)"/></g></g></svg>