<svg xmlns="http://www.w3.org/2000/svg" viewBox="0 0 531.14 335.85"><defs><style>.cls-1{isolation:isolate;}.cls-2{fill:#e5f0dc;}.cls-3{fill:#d5e7c7;}.cls-4,.cls-5{fill:#b7d69b;}.cls-5{opacity:0.33;}.cls-11,.cls-13,.cls-15,.cls-21,.cls-5,.cls-8{mix-blend-mode:multiply;}.cls-6{fill:#c7e6ec;}.cls-7{fill:#aadadd;}.cls-11,.cls-13,.cls-15,.cls-21,.cls-8{opacity:0.5;}.cls-13,.cls-9{fill:#9ac6c9;}.cls-10{fill:#689e2f;}.cls-11{fill:#83a939;}.cls-12{fill:#92bb76;}.cls-14,.cls-15{fill:#f49e78;}.cls-16{fill:#683c3d;}.cls-17{fill:#f07e5a;}.cls-18{fill:#fbe8e1;}.cls-19{fill:#568d4f;}.cls-20{fill:#d6c3bb;}.cls-21{fill:#729039;}</style></defs><g class="cls-1"><g id="Слой_1" data-name="Слой 1"><path class="cls-2" d="M500.09,368.86c1-4.94.11-10.28,2.07-14.94,2-4.86,6.9-8.12,9-13,2.18-5.12.9-11,.34-16.5-1.6-15.79,3-31.87.33-47.51-.06-.37-.2-.8-.56-.88a.94.94,0,0,0-.67.22c-5.79,3.78-11.81,7.81-15.05,13.91-1.38,2.61-2.19,5.49-3.69,8-2.35,4-6.4,7.16-7.27,11.72-.41,2.1-.15,4.52-1.57,6.12-1.08,1.23-2.82,1.58-4.37,2.1a16.5,16.5,0,0,0-10.64,12c-.64,3.05-.51,6.54-2.65,8.8-1.63,1.72-4.15,2.22-6.17,3.45-5.67,3.42-6.25,11.28-6.17,17.9l.15,13.76a4.73,4.73,0,0,0,.64,2.83,4.68,4.68,0,0,0,2.2,1.35c9.08,3.47,18.34,7,28.05,7.45h0c2,.1,7.79-4.52,9.49-6A19.62,19.62,0,0,0,500.09,368.86Z" transform="translate(-23.35 -82.98)"/><path class="cls-3" d="M505,367c2.11-1.49,3.16-4,4.15-6.43,2.41-5.82,6-12.2,12.15-13.41a18,18,0,0,0,3.36-.68,10.07,10.07,0,0,0,3.78-3.45c2.29-2.9,5.41-6,9.07-5.42,1.32.19,2.53.84,3.84,1.08,2.3.42,4.62-.48,6.94-.83s5.14.11,6.17,2.22c-3,.72-4.56,3.94-5.45,6.88s-1.65,6.21-4.12,8a12.51,12.51,0,0,0-2.26,1.68c-1.4,1.68-.63,4.19-.78,6.37-.33,5.05-5.62,8.32-7.34,13.08-1.16,3.23-.82,7.36-3.54,9.45-1.94,1.49-4.74,1.3-6.78,2.65-1.55,1-2.45,2.79-3.92,3.92a8.17,8.17,0,0,1-7.3.95,24,24,0,0,1-6.68-3.68c-4-2.78-12.32-6.3-13.34-11.56C491.32,369.43,500.51,370.21,505,367Z" transform="translate(-23.35 -82.98)"/><path class="cls-2" d="M135,339.52c-3.87-1.75-8.49-2.81-10.8-6.39-1.73-2.69-1.65-6.11-1.68-9.31-.07-6.29-1.16-13.28-6.1-17.16-3.07-2.41-7.21-3.25-10-6S102.81,293.62,101,290s-5.74-7-9.47-5.46a14.31,14.31,0,0,1-.22,11.05,26.4,26.4,0,0,0-2,4.56c-.86,3.72,1.51,7.43,1.54,11.25,0,4.64-3.35,8.72-3.6,13.35-.08,1.52.18,3.05.16,4.57,0,3.27-1.38,6.39-1.77,9.64a17.06,17.06,0,0,0,5.8,14.79,34.56,34.56,0,0,1,3.8,3.22c3.2,3.62,3,9.42,6.27,12.94,2.36,2.51,6,3.29,9.38,3.8,10.85,1.62,22.67,1.59,32.74-3.31,3.21-1.56,6.43-3.16,6.87-7,.48-4.32-1.55-9.42-3.67-13.06A26.53,26.53,0,0,0,135,339.52Z" transform="translate(-23.35 -82.98)"/><path class="cls-3" d="M69.76,387.38c-4.67-1.43-8.81-5.9-8.13-10.74.35-2.46,1.81-5.12.49-7.22a5.73,5.73,0,0,0-3-2.05c-3.39-1.23-7-1.81-10.29-3.23s-6.43-4-7.23-7.48c-.63-2.78.28-5.66.38-8.51.3-9.1-7.46-16.27-10.64-24.81-.78-2.09-1.3-4.32-2.49-6.21s-2.89-3.27-4.13-5.08-1.89-4.31-.68-6.13c1.39-2.09,4.52-2.16,6.85-1.21s4.29,2.67,6.65,3.55c4.32,1.59,9.4.17,13.57,2.14,3.94,1.87,6.1,6.32,9.93,8.41,4.21,2.29,10.23,1.66,12.91,5.63,1,1.44,1.29,3.26,2.36,4.63,1.58,2,4.34,2.53,6.66,3.58,4.79,2.17,8,6.78,12.24,9.86,3,2.16,6.48,3.53,9.65,5.43a33.32,33.32,0,0,1,11.37,11.39c1.2,2,2.21,4.3,1.78,6.58-.4,2.11-2,3.8-3.5,5.3C102.81,382.5,86.56,392.51,69.76,387.38Z" transform="translate(-23.35 -82.98)"/><path class="cls-4" d="M413.09,362.83c-33.91-1.32-67.72-4.39-101.62-5.77-77.24-3.14-154.62,2.51-231.06,12.5-11.09,1.45-24.22,4.46-27.69,14-2.64,7.24,2,15.38,8.94,19.85s15.56,6.05,24,7.25c61.95,8.82,125.08,2.79,187.76,3,73.94.22,148.06,9.13,221.67,3.06,13.8-1.14,30.51-5,33.78-17.12,4.71-17.4-27.52-26.37-43.52-29.35C461.18,365.75,437.66,363.78,413.09,362.83Z" transform="translate(-23.35 -82.98)"/><path class="cls-5" d="M463.08,378.8c3.3.7,9.48,3.88,10.52,6.86.8,12.35-21.58,11.74-30.43,10.69-38.44-2-77.64-9.32-116-4-8.09,1.52-15.77,5.08-24,5.64-66.52,3.49-122.6-14.1-187.59-5.77-10.63,1.23-36.47,3.66-36.47-1,2.11-9.81,12.89-8.33,23.57-9.66,100.48-10.49,202.83-18.5,304-11.64C424.62,371.11,440.75,374.08,463.08,378.8Z" transform="translate(-23.35 -82.98)"/><path class="cls-6" d="M490.39,246.26q0,3.3-.16,6.56a136.45,136.45,0,0,1-1.38,14.11A138.26,138.26,0,1,1,352.14,108c2.64,0,5.25.07,7.85.22a136.89,136.89,0,0,1,17.08,2,138.27,138.27,0,0,1,113.32,136Z" transform="translate(-23.35 -82.98)"/><path class="cls-7" d="M490.39,246.26q0,3.3-.16,6.56l-.2,0a2.28,2.28,0,0,1-.93-.5c-2.72-2-5.58-4.2-6.72-7.38-1.24-3.48-.56-8.18-3.74-10.06a1.94,1.94,0,0,0-1.56-.29c-1,.32-1.17,1.63-1.21,2.67a19.73,19.73,0,0,1-2.15,8.86,13.46,13.46,0,0,1-9.88,6.63,5.48,5.48,0,0,1-3-.33c-1.52-.73-2.27-2.46-2.62-4.11a15,15,0,0,1,2.35-11.56,3.78,3.78,0,0,1,1.44-1.37,7.27,7.27,0,0,1,2.72-.22,5.19,5.19,0,0,0,4-2.33,2.09,2.09,0,0,0,.26-2.16c-.51-.81-1.69-.8-2.51-1.31-1.5-.93-1.3-3.18-.68-4.84s1.45-3.54.61-5.11c-1.51-2.83-6.6-1.43-8.35-4.12a5.72,5.72,0,0,1-.63-3.1c-.05-2.82-.09-5.63-.13-8.45a10.87,10.87,0,0,1,.49-4.22A3.68,3.68,0,0,1,461,197a4.82,4.82,0,0,1,2.88,1.28,20.18,20.18,0,0,1,7,11.06c.46,1.93,1.37,4.53,3.34,4.23,1.39-.22,2-1.85,2.15-3.25a12.37,12.37,0,0,0-2.2-8.21c-2.41-3.39-6.44-5.46-8.44-9.1-1.74-3.17-1.64-7-1.49-10.61a30.46,30.46,0,0,1,1.08-8.2,14.89,14.89,0,0,1,2.17-4.22A137.55,137.55,0,0,1,490.39,246.26Z" transform="translate(-23.35 -82.98)"/><path class="cls-7" d="M488.85,266.93a138.12,138.12,0,0,1-55.8,91.44.27.27,0,0,1-.07-.08c1-4.82,4.18-8.86,7.24-12.72s6-7.62,9-11.42c2.22-2.82,4.49-5.71,5.65-9.11a38.68,38.68,0,0,1,1.39-4.14c1.14-2.39,3.32-4.11,4.75-6.34a11.68,11.68,0,0,0,1.81-6.82,5.23,5.23,0,0,0-1-3.13c-1.2-1.42-3.31-1.6-5.16-1.39s-3.74.69-5.53.2a6.83,6.83,0,0,1-4.46-5,15.69,15.69,0,0,1,.18-7c2.7-13.05,11.29-24.47,22.24-32.07a16.05,16.05,0,0,1,6-2.9,6.55,6.55,0,0,1,6.18,1.81c2.09,2.46,1.37,6.31,3,9.12a3.3,3.3,0,0,0,1.38,1.41C487.23,269.53,488.07,268.29,488.85,266.93Z" transform="translate(-23.35 -82.98)"/><path class="cls-7" d="M435.58,171.12a4.91,4.91,0,0,0-2-.23,3.89,3.89,0,0,0-1.94,1.11,6.83,6.83,0,0,0-2.23,3.86,4.25,4.25,0,0,0,1.51,4,6.43,6.43,0,0,0,2,.89,40.38,40.38,0,0,0,6.89,1.36,2.56,2.56,0,0,0,1.2-.05c.89-.31,1.23-1.37,1.4-2.3.32-1.84,1.15-5.32-.37-6.8C440.8,171.75,437.22,171.55,435.58,171.12Z" transform="translate(-23.35 -82.98)"/><path class="cls-7" d="M427.11,160.27a2,2,0,0,1-.49,1.1,2.46,2.46,0,0,1-2.09.3,19.36,19.36,0,0,0-4.87-.08,3.9,3.9,0,0,0-1.89.6c-2.12,1.58.11,5.11-.89,7.56-1.36,3.31-7.17,2.11-9,5.19-.93,1.57-.38,3.55.14,5.29a19.65,19.65,0,0,1,1.11,6.5c-.21,4.62-5,9.31-9.34,5.82a56.51,56.51,0,0,1-11.9-14.4c-3.89-6.67-5.13-14.5-7.65-21.79s-7-14.68-14.36-17.1c-2.32-.76-4.79-1-7.14-1.63s-4.71-1.87-5.9-4a10.75,10.75,0,0,1-1-4.69c-.19-3.62.47-8,3.73-9.53a6.07,6.07,0,0,0,1.77-1,3.2,3.2,0,0,0,.75-2c.22-2.84-.52-6.33,1.76-8a.91.91,0,0,1,.16-.11,136.89,136.89,0,0,1,17.08,2,62.72,62.72,0,0,1,16.41,9.79c8.54,6.87,15.75,15.22,23.79,22.66a48.06,48.06,0,0,1,7.27,7.62C426.54,153.22,427.8,156.82,427.11,160.27Z" transform="translate(-23.35 -82.98)"/><path class="cls-7" d="M411.59,330.67c-6.12,10.08-14.1,19.41-24.57,24.85-4.49,2.33-9.4,3.93-13.45,7A23.29,23.29,0,0,0,365.68,373c-.9,2.43-1.43,5.11-3.1,7.09s-5.08,2.86-6.81.92c-1-1.12-1.1-2.75-1.16-4.25-.3-8.31-.52-17,3.28-24.45,2.18-4.27,5.76-8.52,4.77-13.22-.85-4.06-4.84-6.62-8.66-8.25s-8-3-10.62-6.22a10.6,10.6,0,0,1,1.34-14.14,8.71,8.71,0,0,0,2.62-2.65c.52-1.15-.12-2.89-1.38-2.83-2.66.14-6.68,1.32-8.94-.09-1.93-1.21-2.53-3.7-3.8-5.58-2.1-3.08-6-4.42-9.67-4.88s-7.48-.24-11.1-1.11c-6.31-1.53-11.33-6.14-16.31-10.3a158.67,158.67,0,0,0-23.08-16c-5.06-2.9-10.65-5.88-13-11.21-2.24-5.05-1-10.87-1.24-16.39-.52-12.09-8.14-22.61-15.91-31.9-1.67-2-3.44-4-5.78-5.16s-5.45-1.12-7.3.72-1.87,5-2.83,7.61-4.63,4.63-6.24,2.41a4.52,4.52,0,0,1-.65-1.91,27.28,27.28,0,0,1-.32-4.94,137.64,137.64,0,0,1,22.52-43.94c.82.75,1.55,1.64,2.31,2.46a26.07,26.07,0,0,0,13.66,7.66,9.83,9.83,0,0,1,9.54-9.14,2.92,2.92,0,0,1,2.46,1c.67,1,.13,2.38.56,3.5.62,1.63,2.86,1.85,4.56,1.46s3.52-1.11,5.12-.4a6.38,6.38,0,0,1,2.23,2c1.76,2.16,3.82,4.37,6.56,4.88s6.06-1.7,5.55-4.44c-.47-2.5-3.18-3.19-5.28-3.75-3.19-.82-4.9-2-7.75-3.66a26.87,26.87,0,0,1-4.43-2.7,5.15,5.15,0,0,1-2-4.56c.42-2.33,2.9-3.61,5.12-4.46s4.49-1.61,6.77-2.29,5.18.45,7.31,1.19l3,1.05c4.54,1.58,8.17,6.14,5.23,11-.82,1.34-2.05,2.37-3,3.62a4.74,4.74,0,0,0-1.05,4.38c.56,1.46,2.81,2.16,3.75.9-1.2-2,1.86-3.94,4.2-3.92s5.36.25,6.3-1.9c1.24-2.81-2.75-4.82-4.78-7.13a6.5,6.5,0,1,1,11.1-6.15c1.28,4.29-1.87,9.56.85,13.12a4.81,4.81,0,0,0,8.44-4.26c-1-3.5-5.82-5.64-5.26-9.24.44-2.8,3.8-3.91,6.57-4.46,6.42-1.26,13.31-2.47,19.3.15,5.06,2.21,8.69,6.9,10.9,12,.71,1.64,1.41,3.47,3,4.38a18.41,18.41,0,0,0,3,1.06c3,1.16,4.76,4.5,4.95,7.73s-.87,6.4-2,9.44c-.74,2.09-1.6,4.29-3.39,5.61s-4.79,1.19-5.79-.79c-.7-1.37-.27-3.22-1.31-4.36s-2.61-.91-4-1.1c-3.53-.48-6.11-3.42-9.11-5.34s-7.84-2.35-9.37.86c-1.15,2.38-.18,6.26-2.59,7.35-2.08.94-4.2-1-6.07-2.36s-5.46-1.25-5.44,1c0,.82.57,1.54.67,2.36.2,1.66-1.53,2.93-3.16,3.32s-3.42.32-4.86,1.17c-2.09,1.24-2.73,4.13-2,6.44a11.35,11.35,0,0,0,4.63,5.45,12.39,12.39,0,0,0,5,2.2c2.12.33,4.28-.19,6.43-.17s4.56.78,5.44,2.74-.13,4.27-.17,6.44,2.34,4.71,4,3.28c-2.07-4,2.17-8.16,3.76-12.36s.36-9.19.77-13.81,4.2-9.82,8.65-8.51c5.19,1.51,4.61,9.19,7.83,13.54a4.36,4.36,0,0,0,3.66,2c3.41-.3,4.4-6,7.83-6.05,1.82,0,3.13,1.66,4.15,3.17l16.06,23.94a12.57,12.57,0,0,1,1.95,3.71,6.38,6.38,0,0,1-9.61,7c-1.58-1-2.64-2.68-4.18-3.75s-4.06-1.26-5,.36c-1,1.82.75,4,.6,6.11-.18,2.58-3.19,4-5.77,4.12s-5.31-.43-7.7.56c-6,2.5-5.26,12.22-10.79,15.62-2.27,1.39-5.65,1.83-6.36,4.4-.86,3.11,3.15,5.3,4.19,8.35.82,2.39-.35,5-2,6.93a7.43,7.43,0,0,1-3.43,2.38c-4.85,1.37-8.37-4.34-12.39-7.37-4.67-3.5-11.9-3.24-16.05.87s-4.31,11.67-.11,15.72a4,4,0,0,0,2.6,1.3c1.86,0,3-1.93,4.11-3.42a8.18,8.18,0,0,1,5.91-3.53c2.37-.09,4.86,1.63,5.06,4,.12,1.43-.55,2.79-.72,4.21s.47,3.2,1.89,3.34,2.31-1.21,3.59-1.55c2.37-.64,4.17,2.27,4.41,4.71s0,5.28,1.77,7c2,1.94,5.34,1.12,8,.18-1.31-3.27,1.06-7.09,4.23-8.63s6.87-1.4,10.39-1.23c3.94.19,8.17.49,11.22,3,2.82,2.32,4.49,6.41,8.08,7.11,2.32.45,4.89-.72,7,.33,3.38,1.69,2.31,6.87,4.21,10.12,3.42,5.86,14.2,2.83,17.66,8.66C415.57,322.88,413.67,327.25,411.59,330.67Z" transform="translate(-23.35 -82.98)"/><path class="cls-7" d="M288.82,136.28a7.79,7.79,0,0,0-2.23,2.45,5.43,5.43,0,0,0,.32,5.36,6.21,6.21,0,0,0,4.71,2.72c2.6.2,5.26-1.12,7.78-.41,1.69.49,3.13,1.86,4.89,1.88,2.34,0,4.08-2.78,3.32-5a4.9,4.9,0,0,0-5.73-2.83,4.55,4.55,0,0,1-2.57.35c-1.77-.62-2.29-3.42-3.62-4.66C293.52,134.1,291,134.58,288.82,136.28Z" transform="translate(-23.35 -82.98)"/><path class="cls-7" d="M325.75,116.77a8.86,8.86,0,0,0-2.66,2.62A3.54,3.54,0,0,0,323,123c.82,1.29,2.52,1.62,4,2s3.18,1.11,3.47,2.61c.39,2.12-2.33,3.94-1.82,6,.44,1.78,2.76,2.17,4.59,2.14,3.22-.06,7-.69,8.43-3.58.92-1.88.5-4.13,1-6.17a14.07,14.07,0,0,1,3-5.22q2.69-3.42,5.36-6.86a1.93,1.93,0,0,0,.45-.83c.12-.75-.63-1.32-1.3-1.66C342.7,107.66,332,112.37,325.75,116.77Z" transform="translate(-23.35 -82.98)"/><path class="cls-7" d="M312.48,128.26a3.26,3.26,0,0,0-1.82,3c.23,1.37,1.74,2.13,3.12,2.37s2.86.21,4,1a.89.89,0,0,1,.36.36,1.19,1.19,0,0,1,0,.81l-.54,1.93c-.55,2-1.1,4.06-.49,6s2.89,3.51,4.72,2.61c1.2-.6,1.8-2,3-2.67,2-1.15,4.67.33,6.77-.61a1.22,1.22,0,0,0,.63-.53c.23-.48-.11-1-.47-1.44a9.38,9.38,0,0,0-6-3.08,3.32,3.32,0,0,1-1.66-.4,2.24,2.24,0,0,1-.68-2.15,15.87,15.87,0,0,0,.39-2.34,4.3,4.3,0,0,0-1.77-3.21C319.17,127.71,315.85,126.19,312.48,128.26Z" transform="translate(-23.35 -82.98)"/><path class="cls-7" d="M302.33,133.66a2,2,0,0,0-.33,2.47,2.75,2.75,0,0,0,1.81.84,20.72,20.72,0,0,1,4.36,1.06,5.69,5.69,0,0,1,3.2,3,2.53,2.53,0,0,0,.56,1.05,1.2,1.2,0,0,0,1.57-.21,2.35,2.35,0,0,0,.54-1.6,5.14,5.14,0,0,0-3.63-4.92,16.74,16.74,0,0,1-1.85-.48C306.67,134.07,304.35,131.29,302.33,133.66Z" transform="translate(-23.35 -82.98)"/><g class="cls-8"><path class="cls-9" d="M393.51,223.59l14.06-40.67-11.68,6.9s-8.88-17.2-13.18-20.34a11.91,11.91,0,0,0-3.93-1.85,10.91,10.91,0,0,0-2.6-.41H331.34a11.8,11.8,0,0,0-10.18,5.83l-18.8,32,33.52,19.34,17.48-30.65,2.05,3.49,7,11.84-11,6.4Z" transform="translate(-23.35 -82.98)"/><path class="cls-9" d="M439.94,268.08,421.38,236,388,255.62l18.07,30.3-4.05.07-13.74.23-.13-12.77-27.88,32.69,28.47,32.28-.25-13.57s19.35.75,24.19-1.45a12,12,0,0,0,3.55-2.5,11.43,11.43,0,0,0,1.63-2.07h0l7-12.43.51-.9h0L440,279.81A11.78,11.78,0,0,0,439.94,268.08Z" transform="translate(-23.35 -82.98)"/><path class="cls-9" d="M300.74,285.23l6.91-11.87,11,6.5-13.53-40.78-42.36,7.64,11.74,6.81S263.84,269.7,263.21,275a11.8,11.8,0,0,0,.31,4.33,11,11,0,0,0,.92,2.47l7.49,13.35h0l14.45,25.75a11.83,11.83,0,0,0,10.07,6l37.07.75L334,289l-35.28-.24Z" transform="translate(-23.35 -82.98)"/></g><path class="cls-10" d="M407.57,176.36,393.51,217l-42.18-8.16,11-6.41-7-11.84-3.08-5.23,8.54-24.73h15.31a11.17,11.17,0,0,1,2.6.4,12,12,0,0,1,3.93,1.86c4.3,3.13,13.18,20.34,13.18,20.34Z" transform="translate(-23.35 -82.98)"/><path class="cls-11" d="M378.78,161.07c-4.17.22-7.87,2.36-10.69,6.25-2.37,3.26-10.21,18.47-12.68,23.31l-3.08-5.23,8.54-24.73h15.31A11.17,11.17,0,0,1,378.78,161.07Z" transform="translate(-23.35 -82.98)"/><path class="cls-12" d="M302.36,198.46l18.8-32a11.79,11.79,0,0,1,10.18-5.82h44.84c-5.49,0-10.85,5.48-13.87,10.76l-26.43,46.36Z" transform="translate(-23.35 -82.98)"/><path class="cls-10" d="M388.78,331.86l-28.47-32.27,27.88-32.69.13,12.76,13.74-.22,6.07-.11L425.45,299l-7.55,13.33a11.2,11.2,0,0,1-1.63,2.06,12,12,0,0,1-3.55,2.51c-4.84,2.19-24.19,1.45-24.19,1.45Z" transform="translate(-23.35 -82.98)"/><path class="cls-11" d="M416.27,314.34c1.86-3.74,1.83-8-.17-12.39-1.67-3.66-11.05-18-14-22.51l6.07-.11L425.45,299l-7.55,13.33A11.2,11.2,0,0,1,416.27,314.34Z" transform="translate(-23.35 -82.98)"/><path class="cls-12" d="M421.38,229.42l18.56,32.1a11.78,11.78,0,0,1,.05,11.73l-22.09,39h0c2.71-4.78.58-12.15-2.53-17.38L388,249.07Z" transform="translate(-23.35 -82.98)"/><path class="cls-10" d="M262.76,240.17l42.36-7.65,13.53,40.78-11-6.5-6.91,11.87-3.06,5.25-25.75,4.66-7.49-13.36a10.72,10.72,0,0,1-.92-2.47,11.8,11.8,0,0,1-.31-4.33c.63-5.28,11.29-21.45,11.29-21.45Z" transform="translate(-23.35 -82.98)"/><path class="cls-11" d="M263.52,272.75c2.23,3.53,5.91,5.72,10.68,6.27,4,.47,21.11-.14,26.54-.35l-3.06,5.25-25.75,4.66-7.49-13.36A10.72,10.72,0,0,1,263.52,272.75Z" transform="translate(-23.35 -82.98)"/><path class="cls-12" d="M333.52,321.1l-37.07-.75a11.79,11.79,0,0,1-10.07-6l-21.94-39.1h0c2.69,4.79,10.09,6.79,16.18,6.83l53.36.36Z" transform="translate(-23.35 -82.98)"/><path class="cls-13" d="M371.79,117.23c.83,4.77-4.56,8.78-9.38,8.38s-8.87-3.69-12.38-7a5.24,5.24,0,0,1-7.94,6.28c-1.33-1-2.51-2.68-4.13-2.36-2.31.46-1.81,4-3,6-1.56,2.56-5.34,2-8.23,2.8s-5.08,3.12-7.4,5a62.68,62.68,0,0,1-8.86,5.78l-14.34,8.23a8.35,8.35,0,0,1-3.6,4.4c-1.12.66-2.38,1-3.53,1.67-2.63,1.44-4.42,4-6.58,6.08s-5.23,3.76-8.07,2.81L261,191.18a34.52,34.52,0,0,1-3.13,5.32,65,65,0,0,1-4.43,4.82c-3.8,4.08-6.67,8.93-9.51,13.73l-16.48,27.81c-1.67,2.83-3.4,5.86-3.32,9.15.06,2.77,1.41,5.33,2.73,7.76l12.39,23a71,71,0,0,0,7.08,11.36c2.28,2.81,5,5.29,6.94,8.33s3.06,6.94,1.73,10.3c-9.49,1.44-18.57-4.35-25.56-10.92-9.87-9.29-17.89-21.11-20.25-34.46-2-11.42.19-23.14,2.87-34.42A406.75,406.75,0,0,1,227,184c5.23-13.94,11.34-27.78,20.7-39.37,20.82-25.79,54.94-37.07,87.85-41,8.33-1,16.82-1.58,25,.07a29.52,29.52,0,0,1,9.44,3.45c2,1.23,5.21,3.38,6.1,5.69C377.24,115.68,374.45,117.38,371.79,117.23Z" transform="translate(-23.35 -82.98)"/><path class="cls-14" d="M292.77,375.94c-5.94,10.89-11.32,18.53-53.48,11.55-39.51-6.55-66.27-8.39-79.87-8.66l-2.56,0c-1.61,0-3.64.09-6,.28-16.1,1.29-41.66,4.71-55.47,7-15.83,2.59-14.26-4.22.83-9.93s20-7.64,24.73-14.15,5.07-14.67,17-12.89c5.74.85,7.6,7.2,15.61,8.11l.63.05a33.78,33.78,0,0,0,8-.84c9.61-1.88,24.27-6.38,43.79-9.08,26.75-3.7,65.14-2.23,76.71,5.47S292.77,375.94,292.77,375.94Z" transform="translate(-23.35 -82.98)"/><path class="cls-15" d="M162.18,356.39c-.19,3-2.24,18.57-2.76,22.44l-2.56,0c-1.61,0-3.64.09-6,.28l-1-.07a77.34,77.34,0,0,1,4.31-21.78A33.78,33.78,0,0,0,162.18,356.39Z" transform="translate(-23.35 -82.98)"/><path class="cls-16" d="M248.66,94.22c-1.41.86-2.84,2.81-1.62,3.92.62.56,1.84.82,1.68,1.64a1.24,1.24,0,0,1-.68.74c-2.64,1.52-6.19,1.64-8.06,4-1.46,1.86-1.51,4.69-3.35,6.18-1,.84-2.42,1.06-3.63,1.61s-2.39,1.72-2.11,3a11.55,11.55,0,0,0,1.09,2c.88,2-1.07,4.29-3.2,4.77s-4.34-.17-6.52-.44c-3.11-.39-6.48.09-8.92,2.06s-3.62,5.65-2.12,8.41a9,9,0,0,1,1.24,2.4c.2,1.08-.34,2.14-.52,3.22-.66,3.87,3.13,7,6.72,8.58a36.29,36.29,0,0,0,50.72-37.53C268.21,97.84,261.09,86.65,248.66,94.22Z" transform="translate(-23.35 -82.98)"/><path class="cls-16" d="M285.36,152.26a12.33,12.33,0,0,0-.74,2.71c-1.18,4.51-7.35,6.81-11.19,4.18a5.25,5.25,0,0,0-1.82-1,3.72,3.72,0,0,0-2.19.49c-2,.91-4.34,2.55-3.9,4.71a12.6,12.6,0,0,0,1.13,2.34c.92,2.05.11,4.48-1.08,6.39s-2.75,3.61-3.54,5.71c-1.42,3.8-.11,8.38-2.18,11.87-2.42,4.08-8.13,4.63-11.74,7.7-2.13,1.81-4.11,4.71-6.85,4.19a5.33,5.33,0,0,1-3.39-3.1c-2.27-4.47-2-9.82-.8-14.68s3.36-9.43,4.77-14.24c1.16-3.92,1.85-8.05,3.86-11.61a24.83,24.83,0,0,1,8.78-8.59,42.05,42.05,0,0,1,26.59-6.09c3.61.39,9.76,2.25,9.82,6.74C288.87,150.08,286.51,150.09,285.36,152.26Z" transform="translate(-23.35 -82.98)"/><path class="cls-14" d="M250,155.65c-2.79,5-5.35,12-5.35,18.15,0,19.93.6,30.61-10.42,42.07-7,7.25-21.23,36.95-28.15,59.35-15.38-3.81-51.72-24.06-51.72-24.06s18.85-61.93,26.89-79.36c5.59-12.13,17.36-27.56,30-27.41,10.85.13,18.9,2.45,27.54-5.25a34.64,34.64,0,0,0,4.08-4.34s4.82,15.14,10.44,16A29.74,29.74,0,0,0,250,155.65Z" transform="translate(-23.35 -82.98)"/><path class="cls-15" d="M253.24,150.82a29.74,29.74,0,0,0-3.27,4.83,15.59,15.59,0,0,1-6.65-2c-3.29-2.28-5.43-7.85-4.6-14.5a34.64,34.64,0,0,0,4.08-4.34S247.62,149.94,253.24,150.82Z" transform="translate(-23.35 -82.98)"/><path class="cls-14" d="M260,153.64c-16.41.32-24.31-15.11-13.65-31.64,9.62-14.94,21.3-23.85,32.26-20.08,13.64,4.7,21.46,14.47,17.1,30C291.9,145.43,274.61,153.35,260,153.64Z" transform="translate(-23.35 -82.98)"/><path class="cls-14" d="M281.87,145.73c4.54,1.27,5.66,5.2,3.09,7.91s-10.25,3.46-12.69-.42S281.87,145.73,281.87,145.73Z" transform="translate(-23.35 -82.98)"/><g class="cls-8"><path class="cls-14" d="M281.84,149a4.24,4.24,0,0,0-2.35-.42c-1.81.22-3.25,1.57-4.52,2.88.49.53,1.46.27,2,.78.35.34.37,1,.8,1.2a.83.83,0,0,0,1-.35,1.66,1.66,0,0,0,.16-1.18,1.37,1.37,0,0,0-.23-.6,1.68,1.68,0,0,0-.93-.51c.1-.41.62-.54,1.05-.6a4.78,4.78,0,0,1,1.51,0,1.64,1.64,0,0,1,1.2.84c.15.34.19.8.54.94a.63.63,0,0,0,.66-.21C283.62,150.71,282.88,149.49,281.84,149Z" transform="translate(-23.35 -82.98)"/></g><path class="cls-14" d="M253.24,113.37c-.93-4.62-4.77-6-7.66-3.66s-4.21,10-.52,12.68S253.24,113.37,253.24,113.37Z" transform="translate(-23.35 -82.98)"/><g class="cls-8"><path class="cls-14" d="M250,113.16a4.17,4.17,0,0,1,.24,2.37c-.35,1.79-1.8,3.13-3.21,4.3-.49-.52-.16-1.47-.63-2-.32-.36-.93-.44-1.13-.88a.83.83,0,0,1,.42-1,1.68,1.68,0,0,1,1.19-.07,1.44,1.44,0,0,1,.59.27,1.8,1.8,0,0,1,.43,1c.42-.07.59-.57.67-1a4.84,4.84,0,0,0,.14-1.51,1.66,1.66,0,0,0-.75-1.26c-.33-.18-.79-.25-.9-.61a.64.64,0,0,1,.26-.64C248.4,111.26,249.56,112.09,250,113.16Z" transform="translate(-23.35 -82.98)"/></g><path class="cls-16" d="M262.29,115.84c1,.63,2.16,1,3.17,1.65a10.85,10.85,0,0,1,2.76,2.81c.5.7,1.74-.17,1.25-.88-1.45-2.09-4.37-4.51-7.11-4a.24.24,0,0,0-.07.44Z" transform="translate(-23.35 -82.98)"/><path class="cls-16" d="M277.06,130.37c-.1.45,0,.57.24,1a7.11,7.11,0,0,1,1.08,2.19c.3,1.19.38,2.22,1.56,2.88a.21.21,0,0,0,.31-.11,1.84,1.84,0,0,0-.15-1.5c-.27-.69-.26-1.43-.52-2.12-.33-.85-1.25-2.53-2.31-2.47a.2.2,0,0,0-.21.15Z" transform="translate(-23.35 -82.98)"/><path class="cls-16" d="M257.63,119c-.25,1.48.62,3.2,1.47,4.39s2.43,3.23,4.14,3.1a.21.21,0,0,0,.21-.25c-.24-1.5-1.92-2.25-2.83-3.37s-1.35-3.13-2.64-4a.24.24,0,0,0-.35.14Z" transform="translate(-23.35 -82.98)"/><path class="cls-16" d="M269.81,133.89c-.35,1.6,1,3.27,2,4.42s2.49,3,4.08,2.74a.31.31,0,0,0,.24-.38c-.45-1.36-2.14-2-3.1-3.08s-1.67-3-3-3.79a.17.17,0,0,0-.25.09Z" transform="translate(-23.35 -82.98)"/><path class="cls-15" d="M257.7,133.62c-.32.06-.7.22-.75.54a.91.91,0,0,0,.14.51,16.3,16.3,0,0,0,4,4.94,1.4,1.4,0,0,0,.48.29,1,1,0,0,0,1.08-.65,2.45,2.45,0,0,0,0-1.37C262.08,135.27,260.75,133.13,257.7,133.62Z" transform="translate(-23.35 -82.98)"/><g class="cls-8"><path class="cls-14" d="M250.64,135a5.87,5.87,0,0,0,.65,3.66,11.45,11.45,0,0,0,2.42,3.57,9.75,9.75,0,0,0,3.42,2.2c.77.28,2.36.88,2.94,0a.18.18,0,0,0,0-.21,1,1,0,0,0-.79-.38,10,10,0,0,1-1.86-.43,9,9,0,0,1-3.22-2.21,11.29,11.29,0,0,1-2.05-3.07,23.12,23.12,0,0,0-1.32-3.2.09.09,0,0,0-.17,0Z" transform="translate(-23.35 -82.98)"/></g><path class="cls-17" d="M347.19,121.73c2.86-.64.66-6.23-1-8.79,2.72-.81,5.56.93,7.5,3s4.1,6,5,6.68c1.24.8,1.9-1.26,1.89-2.17a10,10,0,0,0-.46-3.23l2.61,3.46a5.65,5.65,0,0,0,1.68,1.66,1.92,1.92,0,0,0,2.21-.14c.82-.79.41-2.15-.05-3.19.46.94,1.41,2.07,2.32,1.54a1.84,1.84,0,0,0,.45-2.28,5.09,5.09,0,0,0-1.21-2,3.18,3.18,0,0,0,2,.87c1.1-.43-.68-4.59-2.26-6A36.87,36.87,0,0,0,350,102.48c-6.5-1.12-13.88,1.07-17.45,6.6-.46.71,3.34,1.78,3.6,1.89a9.08,9.08,0,0,1,3.27,2.53C342,116.24,346.17,121.76,347.19,121.73Z" transform="translate(-23.35 -82.98)"/><path class="cls-16" d="M283.59,126.94c1.39,1.44.4,3.79-.42,5.63s-1,4.62.88,5.23a4.66,4.66,0,0,0-2.72,6.44,4.69,4.69,0,0,0-.51,2.92l4,.35c-.05,0-1.77,6.12,2.48,5.47,2.43-.38,6-2.73,6.84-5.08.54-1.52.75-3.76,2.36-3.82.45,0,.9.18,1.35.19,1.25,0,2-1.27,2.74-2.3a11.21,11.21,0,0,1,8.59-4.75c1.87-.08,3.87.29,5.54-.54s2.57-2.63,3.61-4.17c1.31-1.95,3-1.87,4.49-3.11,1.3-1.08.93-2.94,3.09-3.42,1.51-.34,3.16.41,4.6-.15,2.21-.86,2.29-3.92,2-6.27a6.91,6.91,0,0,0,6.24-6.1c2,1.42,4.48-.94,5.52-3.13s2.46-5,4.87-4.71c2.08.22,3.64,2.78,5.66,2.27.66-.17,1.32-.67,2-.44s.77.82,1.08,1.31c2.41,3.81,9.51,0,12.5,3.35.67.76,1,1.79,1.73,2.48,2,1.92,5.58,0,6.47-2.68a7.4,7.4,0,0,0-3.75-8.78c-2.87-1.34-6.59-.79-8.93-2.93-1.59-1.46-2-3.75-2.94-5.71s-2.88-3.89-4.95-3.27A17.51,17.51,0,0,0,350,83.85c-2.76-1.23-6.59-1.41-8.2,1.14-.88,1.4-.79,3.21-1.41,4.74-1.45,3.6-7.3,4.18-9.43.93-.86-1.3-1.72-3.28-3.23-2.88a12,12,0,0,0-1.1.5c-1.37.47-2.62-.86-3.81-1.71s-3.53-.61-3.32.83a20.89,20.89,0,0,0-7.26-1.61c-2.49,0-5.11,1.17-6.25,3.39a8.18,8.18,0,0,0-13.91-1,5.34,5.34,0,0,0-6.12,2.09c-.31.48-.58,1-1.11,1.26a2.5,2.5,0,0,1-1.79-.31,12.16,12.16,0,0,0-9.75.16,6.35,6.35,0,0,1-2.45.85,15,15,0,0,1-2.7-.61,3.87,3.87,0,0,0-4.24,3,9.19,9.19,0,0,0-7.39,9,4.37,4.37,0,0,0-3.37,8.06c-1.23.47-.11,2.49,1.2,2.5s2.48-.9,3.79-.93c.79,0,1.56.28,2.35.21a8.39,8.39,0,0,0,1.79-.55,6.32,6.32,0,0,1,7.55,3.48,3.28,3.28,0,0,0,1,1.65c1.42.91,3.29-1.39,4.79-.63-.95,1.24.5,2.64,1.79,2.27s2.18-2.2,3.77-1.18c1.4.89,1.38,2.73,1.18,4.17a6.44,6.44,0,0,0-.18,2.72C282.38,126.11,283.07,126.4,283.59,126.94Z" transform="translate(-23.35 -82.98)"/><path class="cls-18" d="M240.39,211.83c-5.08,7-20.11,33.31-23.14,40.88s-11.2,22.51-11.2,22.51-48.31-17.36-50.94-26.6c2.45-26.24,21.79-73.32,26.28-82.31a46.18,46.18,0,0,1,19.79-19.71c5.71-3,19.67-3.11,26.31-3,2.22,0,3.62.1,3.62.1-2.05,10.31-.29,20.13,5.76,23.52s8.9-1.27,8.9-1.27-.3,2.72-.42,6.52a76.45,76.45,0,0,0,.42,11.82C246.83,192.69,245.47,204.8,240.39,211.83Z" transform="translate(-23.35 -82.98)"/><path class="cls-19" d="M245.77,166s-.3,2.72-.42,6.52c-2.4.8-6.48,1-11.64-1.61-7.94-4.06-8.56-18.78-6.22-27.26,2.22,0,3.62.1,3.62.1-2.05,10.31-.29,20.13,5.76,23.52S245.77,166,245.77,166Z" transform="translate(-23.35 -82.98)"/><path class="cls-20" d="M224.83,179.35c-.82,6.65-1.17,24.18-1.17,24.18H221l-6.42,29-34.95-6s-1.15-22.15,0-28.56a5.37,5.37,0,0,1-2.08-1.42L186,168.92Z" transform="translate(-23.35 -82.98)"/><path class="cls-19" d="M283.13,387.28c-22.83,3.32-60.52-24.24-91.3-35.47q-4.37-1.59-8.75-3.38c-.92-.37-1.83-.75-2.73-1.13q-3.22-1.37-6.41-2.84c-15.77-7.32-30.34-16.68-38.63-28.25-4.58-6.4-7.24-13.49-7.12-21.29.45-27.11,20.19-48.54,29.13-59.66a62.43,62.43,0,0,0,12.24,11C184.37,256,214,259.93,214,259.93s-11.73,23.94-3.42,28.65,77.65,52.07,83.83,59.79S306,384,283.13,387.28Z" transform="translate(-23.35 -82.98)"/><path class="cls-14" d="M245.1,299.38s-2.95,7.17-8.22,9.81c-17.12-11-46.25-33.77-55.29-59.8-2.73-7.88-2.51-29.4-.19-50,.19-1.68.39-3.37.61-5,2-15,5-28.77,8.84-35.52,8.65-15.31,16.33-17.34,26.49-13.15,10.64,4.39,7.25,25.46,3.24,52-.34,2.27-.69,4.58-1,6.92-.05.31-.09.63-.14.94-4.4,30.18-7.36,35.81-5.51,40.66C216.15,252.17,245.1,299.38,245.1,299.38Z" transform="translate(-23.35 -82.98)"/><path class="cls-15" d="M220.58,197.75c-.34,2.27-.69,4.58-1,6.92-17.23,2.27-30.7-1.49-38.15-5.24.19-1.68.39-3.37.61-5Z" transform="translate(-23.35 -82.98)"/><path class="cls-14" d="M239.21,291.34c2.61,3.59,7.7,6.65,12,7.91s8.7,1.87,12.91,3.27c.51.17,1.08.42,1.25.93a1.38,1.38,0,0,1-.2,1.11c-1.05,1.8-3.51,2.05-5.59,2.09a28.22,28.22,0,0,0,7.63,3.85c1.63.53,3.4.95,4.62,2.16a1.48,1.48,0,0,1,.52,1.55,1.34,1.34,0,0,1-.53.55c-1.93,1.19-4.5-.1-6.69.47l8.35,3.21c.45.17,1,.43,1,.9a1.21,1.21,0,0,1-.57,1c-1.81,1.41-4.4,1-6.64.45a6.67,6.67,0,0,0,2,1.14,3.82,3.82,0,0,1,1.76,1.35,1.53,1.53,0,0,1-.31,2,2.19,2.19,0,0,1-1.37.19,19.68,19.68,0,0,1-5.25-1.23c.71.65,1.49,1.61,1,2.46a2,2,0,0,1-2,.73c-3.41-.24-6.47-2.1-9.37-3.91-1.87-1.17-3.74-2.34-5.54-3.61a111.73,111.73,0,0,1-13.42-11.86,54.31,54.31,0,0,1-5.83-6.4C229.56,301.17,239.21,291.34,239.21,291.34Z" transform="translate(-23.35 -82.98)"/><path class="cls-19" d="M200.61,345.22c-17.32,3.18-43.57,7.1-43.57,7.1s-2.11,23.09,0,30.85c18.7-.68,35.33-.19,51.15,2.13s48.4,7.45,58.05,6.84,28.28-5.45,31-14c-14.28-17.49-39-28.88-58.66-32.79A107.17,107.17,0,0,0,200.61,345.22Z" transform="translate(-23.35 -82.98)"/><path class="cls-18" d="M226.12,170.65c-1,5.07-2.56,18.95-3.38,26.43-.33,3-.54,4.95-.54,4.95s-24.43,3.05-42.08-6.25c.13-1.27.36-2.81.66-4.55,2.06-12,7.68-33.25,11.38-38.52,4.25-6,9.69-9.78,15.11-10.44s9.95.09,13.57,2.95C225.65,149,227.48,163.56,226.12,170.65Z" transform="translate(-23.35 -82.98)"/><path class="cls-19" d="M222.74,197.08c-.33,3-.54,4.95-.54,4.95s-24.43,3.05-42.08-6.25c.13-1.27.36-2.81.66-4.55C188.75,195.4,205.06,198.35,222.74,197.08Z" transform="translate(-23.35 -82.98)"/><path class="cls-21" d="M245.1,344.85c3-1.29,8.14-1.25,8.14-1.25-6.74-.75-29-3.33-40.89-2.2-1.93.18-4.09.45-6.4.76-8.19,1.13-51.78-4.08-70.63-26h0c8.29,11.57,22.86,20.93,38.63,28.25q3.18,1.47,6.41,2.84c.9.38,1.81.76,2.73,1.13,9.37-1.11,29.93-3.36,40.71-3.21,14.14.2,38.59,6.41,39,6.51C262.52,351.59,253.09,346.35,245.1,344.85Z" transform="translate(-23.35 -82.98)"/></g></g></svg>